# 3ds Max Wavefront OBJ Exporter v0.97b - (c)2007 guruware
# File Created: 26.04.2018 13:51:49

mtllib cavefloor.mtl

#
# object Line002
#

v  -63.0707 7.2961 399.5516
v  -15.8607 7.2961 392.1481
v  31.5639 7.2961 375.7319
v  -24.0151 7.2961 278.7368
v  83.4949 7.2961 341.2901
v  -45.0451 7.2961 212.4283
v  195.5114 7.2961 111.5705
v  319.7595 7.2961 -61.4971
v  -204.7006 7.2961 -33.4930
v  -263.9278 7.2961 96.2273
v  -92.2551 7.2961 -331.4524
v  -149.5509 7.2961 -228.5561
v  208.1723 7.2961 202.5570
v  189.9320 7.2961 151.0552
v  311.3905 7.2961 -118.3636
v  141.4345 7.2961 -331.7743
v  40.3622 7.2961 -347.1176
v  225.5541 7.2961 93.0084
v  283.2790 7.2961 73.8025
v  -2.3415 7.2961 -506.7732
v  -105.1305 7.2961 -506.7732
v  -27.8777 7.2961 -414.9283
v  -185.6021 7.2961 189.5743
v  157.3142 7.2961 349.1226
v  222.5498 7.2961 -354.1991
v  314.6093 7.2961 -233.4917
v  -80.2379 7.2961 -414.9283
v  -99.7657 7.2961 -379.1989
v  -303.8416 7.2961 44.0817
v  -227.2327 7.2961 -149.8012
v  302.8068 7.2961 -332.5254
v  377.9136 7.2961 54.5966
v  374.6948 7.2961 -1.1970
v  353.8794 7.2961 -44.1152
v  233.7086 7.2961 339.1442
v  225.7687 7.2961 287.9643
v  322.1200 7.2961 -293.1479
v  258.3865 7.2961 225.7329
v  262.2491 7.2961 278.7368
v  86.9284 7.2961 -351.5167
v  -242.6833 7.2961 150.4115
v  -137.9630 7.2961 -274.9077
v  337.1414 7.2961 -179.6294
v  -189.0356 7.2961 -189.8224
v  -238.6060 7.2961 -96.2608
v  -24.0151 7.2961 -377.5895
v  328.9868 7.2961 93.0084
v  362.0339 7.2961 79.8111
v  -291.6101 7.2961 23.2664
v  170.8334 7.2961 -338.1047
v  -293.1122 7.2961 69.8326
v  4.5255 7.2961 -360.4222
v  -6.8479 7.2961 -379.1989
v  316.1115 7.2961 -93.5784
v  253.8801 7.2961 -355.5939
v  200.0178 7.2961 365.3242
v  -140.9672 7.2961 233.7800
v  -120.7956 7.2961 -302.2681
v  280.0602 7.2961 -349.4781
# 59 vertices

vn 0.0000 1.0000 -0.0000
vn 0.0028 0.9999 0.0126
vn 0.0222 0.9948 0.0997
# 3 vertex normals

vt -1.1825 0.8789 0.0000
vt -1.1509 1.0307 0.0000
vt -1.4345 1.1672 0.0000
vt -1.2414 0.8433 0.0000
vt -1.4405 0.9245 0.0000
vt -1.4512 0.7826 0.0000
vt -1.5153 0.9820 0.0000
vt -1.4857 0.6791 0.0000
vt -1.8474 1.0251 0.0000
vt -2.1262 1.1155 0.0000
vt -1.7228 0.3659 0.0000
vt -1.5382 0.3476 0.0000
vt -2.1305 0.3739 0.0000
vt -1.9766 0.3442 0.0000
vt -1.7564 1.0911 0.0000
vt -1.8002 1.0377 0.0000
vt -2.1827 1.0738 0.0000
vt -2.2971 0.7146 0.0000
vt -2.2419 0.5588 0.0000
vt -1.8892 1.0593 0.0000
vt -1.9514 1.1331 0.0000
vt -2.3873 0.4132 0.0000
vt -2.3144 0.2636 0.0000
vt -2.2681 0.4243 0.0000
vt -1.4911 0.5105 0.0000
vt -1.5969 1.1119 0.0000
vt -2.3791 0.8207 0.0000
vt -2.3117 1.0180 0.0000
vt -2.2309 0.3479 0.0000
vt -2.1777 0.3469 0.0000
vt -1.5672 0.2621 0.0000
vt -1.8346 0.2722 0.0000
vt -2.4123 0.9492 0.0000
vt -2.0399 1.2612 0.0000
vt -2.0987 1.2271 0.0000
vt -2.1314 1.1745 0.0000
vt -1.6243 1.1998 0.0000
vt -1.6749 1.1614 0.0000
vt -2.3828 0.9979 0.0000
vt -1.7667 1.1765 0.0000
vt -1.7108 1.2097 0.0000
vt -2.2800 0.6245 0.0000
vt -1.4936 0.4069 0.0000
vt -2.0360 0.3370 0.0000
vt -2.2684 1.0790 0.0000
vt -1.9059 0.3070 0.0000
vt -1.7678 0.2838 0.0000
vt -2.2390 0.4322 0.0000
vt -1.9626 1.2099 0.0000
vt -2.0007 1.2511 0.0000
vt -1.5988 0.2691 0.0000
vt -2.3247 0.7536 0.0000
vt -1.5464 0.2913 0.0000
vt -2.2429 0.5492 0.0000
vt -2.2556 0.4457 0.0000
vt -2.1589 1.0936 0.0000
vt -2.4028 0.8655 0.0000
vt -1.5715 1.1644 0.0000
vt -1.4543 0.6335 0.0000
vt -2.0783 0.3479 0.0000
vt -2.4148 0.9069 0.0000
# 61 texture coords

g Line002
usemtl _cave_cave_caveMaterial__25
s 16
f 1/1/1 2/2/1 3/3/1 
f 1/4/1 3/5/1 4/6/1 
f 3/5/1 5/7/1 4/6/1 
f 6/8/2 7/9/1 8/10/1 
f 8/10/1 9/11/1 10/12/1 
f 8/10/1 11/13/1 12/14/1 
f 4/6/1 13/15/1 14/16/1 
f 15/17/1 16/18/1 17/19/1 
f 8/10/1 18/20/1 19/21/1 
f 10/12/1 6/8/2 8/10/1 
f 8/10/1 12/14/1 9/11/1 
f 20/22/1 21/23/1 22/24/1 
f 6/8/2 10/12/1 23/25/1 
f 4/6/1 5/7/1 24/26/1 
f 25/27/1 15/17/1 26/28/1 
f 22/24/1 21/23/1 27/29/1 
f 8/10/1 17/19/1 28/30/1 
f 9/11/1 29/31/1 10/12/1 
f 12/14/1 30/32/1 9/11/1 
f 26/28/1 31/33/1 25/27/1 
f 32/34/1 33/35/1 34/36/1 
f 4/6/1 35/37/1 36/38/1 
f 26/28/1 37/39/1 31/33/1 
f 4/6/1 36/38/1 13/15/1 
f 11/13/1 8/10/1 28/30/1 
f 6/8/2 4/6/1 14/16/1 
f 36/38/1 38/40/1 13/15/1 
f 36/38/1 39/41/1 38/40/1 
f 24/26/1 35/37/1 4/6/1 
f 19/21/1 32/34/1 34/36/1 
f 16/18/1 40/42/1 17/19/1 
f 10/12/1 41/43/1 23/25/1 
f 11/13/1 42/44/1 12/14/1 
f 15/17/1 43/45/1 26/28/1 
f 12/14/1 44/46/1 30/32/1 
f 30/32/1 45/47/1 9/11/1 
f 8/10/1 15/17/1 17/19/1 
f 27/29/1 28/30/1 46/48/1 
f 8/10/1 19/21/1 34/36/1 
f 19/21/1 47/49/1 48/50/1 
f 9/11/1 49/51/1 29/31/1 
f 25/27/1 50/52/1 15/17/1 
f 6/8/2 14/16/1 7/9/1 
f 29/31/1 51/53/1 10/12/1 
f 19/21/1 48/50/1 32/34/1 
f 52/54/1 46/48/1 28/30/1 
f 52/54/1 53/55/1 46/48/1 
f 17/19/1 52/54/1 28/30/1 
f 8/10/1 54/56/1 15/17/1 
f 27/29/1 46/48/1 22/24/1 
f 31/33/1 55/57/1 25/27/1 
f 35/37/1 24/26/1 56/58/1 
f 6/8/2 23/25/1 57/59/3 
f 11/13/1 58/60/1 42/44/1 
f 8/10/1 7/9/1 18/20/1 
f 31/33/1 59/61/1 55/57/1 
f 15/17/1 50/52/1 16/18/1 
# 0 polygons - 57 triangles

