# 3ds Max Wavefront OBJ Exporter v0.97b - (c)2007 guruware
# File Created: 25.04.2018 14:03:46

mtllib mallet.mtl

#
# object Box001
#

v  -20.0000 0.0000 -28.8493
v  -20.0000 0.0000 -48.5261
v  -6.6667 0.0000 -48.5261
v  -6.9899 0.0000 -28.8493
v  -6.6667 0.0000 -29.1725
v  6.6667 0.0000 -48.5261
v  6.6667 0.0000 -29.1725
v  20.0000 0.0000 -48.5261
v  20.0000 0.0000 -29.1725
v  -20.0000 17.5000 -29.1725
v  -6.6667 17.5000 -29.1725
v  -6.6667 17.5000 -48.5261
v  -20.0000 17.5000 -48.5261
v  6.6667 17.5000 -29.1725
v  6.6667 17.5000 -48.5261
v  20.0000 17.5000 -29.1725
v  20.0000 17.5000 -48.5261
v  -6.6667 0.3232 -28.8493
v  -20.0000 5.7299 -28.8493
v  -6.6667 5.7299 -28.8493
v  6.6667 0.3232 -28.8493
v  6.6667 5.7299 -28.8493
v  -0.0000 5.7299 -28.8493
v  20.0000 0.3232 -28.8493
v  20.0000 5.7299 -28.8493
v  20.0000 0.3232 -48.8493
v  20.0000 17.1768 -48.8493
v  20.0000 17.1768 -28.8493
v  20.0000 11.4598 -28.8493
v  6.6667 0.3232 -48.8493
v  6.6667 17.1768 -48.8493
v  -6.6667 0.3232 -48.8493
v  -6.6667 17.1768 -48.8493
v  -20.0000 0.3232 -48.8493
v  -20.0000 17.1768 -48.8493
v  -20.0000 11.4598 -28.8493
v  -20.0000 17.1768 -28.8493
v  -6.6667 17.1768 -28.8493
v  -6.6667 11.4598 -28.8493
v  6.6667 17.1768 -28.8493
v  -0.0000 11.4598 -28.8493
v  6.6667 11.4598 -28.8493
v  -6.6667 8.5949 -28.8493
v  -2.5100 9.9046 68.6913
v  -3.4709 8.5999 68.6913
v  -2.4982 7.2695 68.6913
v  0.0281 10.5534 68.6913
v  0.0240 6.6365 68.6913
v  2.4045 10.0339 68.6913
v  2.4146 7.1699 68.6913
v  3.4391 8.5909 68.6913
v  6.6667 8.5949 -28.8493
v  -5.2919 6.7637 -28.8493
v  -5.3140 10.4167 -28.8493
v  5.1842 10.4930 -28.8493
v  5.2034 6.7052 -28.8493
v  -5.2919 6.7637 -24.1758
v  -6.6667 8.5949 -24.1758
v  -0.0000 5.7299 -24.1758
v  5.2034 6.7052 -24.1758
v  6.6667 8.5949 -24.1758
v  5.1842 10.4930 -24.1758
v  -0.0000 11.4598 -24.1758
v  -5.3140 10.4167 -24.1758
v  -2.3300 6.6994 -21.0536
v  -3.4516 8.6013 -21.0536
v  0.0074 5.9722 -21.0536
v  2.2501 6.5925 -21.0536
v  3.4118 8.5898 -21.0536
v  2.2420 10.6124 -21.0536
v  0.0084 11.2176 -21.0536
v  -2.3392 10.4738 -21.0536
v  -2.3300 6.6994 59.1763
v  -3.4516 8.6013 59.1763
v  0.0074 5.9722 59.1763
v  2.2501 6.5925 59.1763
v  3.4118 8.5898 59.1763
v  2.2420 10.6124 59.1763
v  0.0084 11.2176 59.1763
v  -2.3392 10.4738 59.1763
v  -3.2661 6.1293 61.7620
v  -5.0744 8.6027 61.7620
v  0.0065 5.3079 61.7620
v  3.1758 6.0152 61.7620
v  5.0315 8.5887 61.7620
v  3.1658 11.1909 61.7620
v  0.0048 11.8818 61.7620
v  -3.2773 11.0429 61.7620
v  -3.2661 6.1293 66.1056
v  -5.0744 8.6027 66.1056
v  0.0065 5.3079 66.1056
v  3.1758 6.0152 66.1056
v  5.0315 8.5887 66.1056
v  3.1658 11.1909 66.1056
v  0.0048 11.8818 66.1056
v  -3.2773 11.0429 66.1056
# 96 vertices

vn 0.0000 -1.0000 -0.0000
vn 0.0000 1.0000 -0.0000
vn 0.0000 0.0000 1.0000
vn 1.0000 0.0000 -0.0000
vn 0.0000 0.0000 -1.0000
vn -1.0000 0.0000 -0.0000
vn -0.7997 -0.6004 -0.0000
vn -0.1917 -0.9814 -0.0000
vn -0.0038 -1.0000 -0.0000
vn 0.0044 -0.9988 0.0478
vn -0.2044 -0.9777 0.0488
vn 0.1842 -0.9829 -0.0000
vn 0.1840 -0.9818 0.0474
vn 0.7907 -0.6123 -0.0000
vn 0.7881 0.6155 -0.0000
vn 0.1833 0.9831 -0.0000
vn -0.0047 1.0000 -0.0000
vn -0.0165 0.9985 0.0514
vn 0.1924 0.9804 0.0416
vn -0.1926 0.9813 -0.0000
vn -0.1923 0.9797 0.0564
vn -0.8029 0.5961 -0.0000
vn -0.6430 -0.4486 0.6208
vn -0.6409 -0.4812 0.5981
vn -0.5380 -0.8126 0.2242
vn -0.9363 -0.1737 0.3054
vn 0.0028 -0.9985 0.0553
vn 0.5163 -0.8397 0.1684
vn 0.6289 -0.4512 0.6332
vn 0.6104 -0.4727 0.6356
vn 0.9387 -0.1908 0.2870
vn 0.6425 0.4565 0.6155
vn 0.6398 0.4997 0.5838
vn 0.6433 0.4136 0.6443
vn 0.6424 0.3715 0.6703
vn -0.0346 0.9981 0.0511
vn 0.4642 0.8809 0.0929
vn -0.4627 0.8846 0.0582
vn -0.6323 0.4436 0.6351
vn -0.6192 0.4597 0.6366
vn -0.6553 0.4142 0.6317
vn -0.6681 0.3969 0.6293
vn -0.5885 -0.7873 -0.1837
vn -0.9574 -0.0151 -0.2885
vn -0.0236 -0.9905 -0.1353
vn 0.5721 -0.7944 -0.2041
vn 0.9576 0.0157 -0.2876
vn 0.5772 0.7956 -0.1841
vn -0.0126 0.9906 -0.1363
vn -0.5843 0.7853 -0.2047
vn -0.7986 -0.5598 -0.2211
vn -0.7900 -0.5775 -0.2058
vn -0.0188 -0.9914 -0.1295
vn -0.2413 -0.9614 -0.1319
vn 0.2258 -0.9665 -0.1217
vn 0.8055 -0.5598 -0.1945
vn 0.7948 -0.5731 -0.1996
vn 0.8043 0.5520 -0.2201
vn 0.7951 0.5700 -0.2071
vn -0.0121 0.9916 -0.1287
vn 0.2118 0.9688 -0.1288
vn -0.2568 0.9585 -0.1237
vn -0.7996 0.5685 -0.1934
vn -0.7888 0.5809 -0.2008
vn -0.7880 -0.5761 0.2174
vn -0.7903 -0.5778 0.2039
vn -0.0128 -0.9737 0.2276
vn -0.2376 -0.9467 0.2174
vn 0.2126 -0.9528 0.2167
vn 0.7940 -0.5725 0.2044
vn 0.7919 -0.5710 0.2167
vn 0.7934 0.5688 0.2166
vn 0.7955 0.5704 0.2044
vn -0.0171 0.9736 0.2276
vn 0.2085 0.9537 0.2166
vn -0.2417 0.9456 0.2175
vn -0.7883 0.5806 0.2039
vn -0.7859 0.5788 0.2175
vn -0.7220 -0.5279 0.4472
vn -0.0117 -0.8894 0.4570
vn -0.2177 -0.8675 0.4472
vn 0.1948 -0.8730 0.4472
vn 0.7255 -0.5231 0.4472
vn 0.7269 0.5212 0.4472
vn -0.0156 0.8893 0.4570
vn 0.1910 0.8738 0.4472
vn -0.2215 0.8666 0.4472
vn -0.7202 0.5304 0.4472
vn 0.5774 -0.5774 0.5774
vn 0.0000 -0.7071 -0.7071
vn 0.0000 -0.7071 0.7071
vn 0.0000 0.7071 0.7071
vn 0.0000 0.7071 -0.7071
# 93 vertex normals

vt 1.0000 0.0000 0.0000
vt 1.0000 0.9838 0.0000
vt 0.6667 0.9838 0.0000
vt 0.6747 0.0000 0.0000
vt 0.6667 0.0162 0.0000
vt 0.3333 0.9838 0.0000
vt 0.3333 0.0162 0.0000
vt -0.0000 0.9838 0.0000
vt -0.0000 0.0162 0.0000
vt 0.0000 0.0162 0.0000
vt 0.0000 0.9838 0.0000
vt 1.0000 0.0162 0.0000
vt 0.0000 0.0000 0.0000
vt 0.3253 0.0000 0.0000
vt 0.3333 0.0141 0.0000
vt 0.0000 0.2500 0.0000
vt 0.3333 0.2500 0.0000
vt 0.6667 0.0141 0.0000
vt 0.6667 0.2500 0.0000
vt 0.5000 0.2500 0.0000
vt 1.0000 0.0141 0.0000
vt 1.0000 0.2500 0.0000
vt 0.0162 0.0000 0.0000
vt 0.9838 0.0000 0.0000
vt 1.0000 0.0185 0.0000
vt 0.9838 1.0000 0.0000
vt 1.0000 0.9815 0.0000
vt 0.0162 1.0000 0.0000
vt 0.0000 0.9732 0.0000
vt 0.0000 0.5000 0.0000
vt 0.0000 0.0141 0.0000
vt 0.0000 0.0185 0.0000
vt 0.3333 0.0185 0.0000
vt 0.3333 0.9815 0.0000
vt 0.0000 0.9815 0.0000
vt 0.6667 0.0185 0.0000
vt 0.6667 0.9815 0.0000
vt 1.0000 0.5000 0.0000
vt 1.0000 0.9732 0.0000
vt 0.3333 0.9732 0.0000
vt 0.3333 0.5000 0.0000
vt 0.6667 0.9732 0.0000
vt 0.5000 0.5000 0.0000
vt 0.6667 0.5000 0.0000
vt 0.3333 0.3750 0.0000
vt 0.4071 0.4303 0.0000
vt 0.4075 0.3194 0.0000
vt 0.5898 0.4326 0.0000
vt 0.5901 0.3176 0.0000
vt 0.6667 0.3750 0.0000
vt 0.6504 0.0076 0.0000
vt 1.0000 0.0054 0.0000
vt 0.6667 0.0054 0.0000
vt 0.3333 0.0054 0.0000
vt 0.6667 -0.0044 0.0000
vt 0.3333 -0.0044 0.0000
vt 0.0000 0.0054 0.0000
vt 1.0000 -0.0044 0.0000
vt -0.0000 1.0004 0.0000
vt 0.3333 1.0004 0.0000
vt 0.6667 0.9946 0.0000
vt 1.0000 0.9946 0.0000
vt 0.6667 1.0004 0.0000
vt 0.3333 0.9946 0.0000
vt 1.0000 1.0004 0.0000
vt -0.0000 0.9946 0.0000
# 66 texture coords

g Box001
usemtl wire_113135006
s 1
f 1/1/1 2/2/1 3/3/1 4/4/1 
f 3/3/1 5/5/1 4/4/1 
f 5/5/1 3/3/1 6/6/1 7/7/1 
f 7/7/1 6/6/1 8/8/1 9/9/1 
f 10/10/2 11/7/2 12/6/2 13/11/2 
f 11/7/2 14/5/2 15/3/2 12/6/2 
f 14/5/2 16/12/2 17/2/2 15/3/2 
s 2
f 1/13/3 4/14/3 18/15/3 19/16/3 
f 18/15/3 20/17/3 19/16/3 
f 21/18/3 22/19/3 23/20/3 20/17/3 
f 18/15/3 21/18/3 20/17/3 
f 24/21/3 25/22/3 22/19/3 21/18/3 
s 4
f 9/23/4 8/24/4 26/25/4 17/26/4 
f 26/25/4 27/27/4 17/26/4 
f 17/26/4 16/28/4 28/29/4 29/30/4 
f 17/26/4 29/30/4 25/16/4 9/23/4 
f 24/31/4 9/23/4 25/16/4 
s 1
f 26/32/5 30/33/5 31/34/5 27/35/5 
f 30/33/5 32/36/5 33/37/5 31/34/5 
f 32/36/5 34/25/5 35/27/5 33/37/5 
s 4
f 2/23/6 1/1/6 19/22/6 36/38/6 
f 36/38/6 37/39/6 10/26/6 2/23/6 
f 10/26/6 13/28/6 35/35/6 2/23/6 
f 34/32/6 2/23/6 35/35/6 
s 2
f 38/40/3 37/29/3 36/30/3 39/41/3 
f 40/42/3 38/40/3 39/41/3 41/43/3 
f 42/44/3 40/42/3 41/43/3 
f 28/39/3 40/42/3 42/44/3 29/38/3 
f 39/41/3 36/30/3 19/16/3 43/45/3 
f 20/17/3 43/45/3 19/16/3 
s 1
f 44/46/3 45/45/3 46/47/3 47/43/3 
f 47/43/3 46/47/3 48/20/3 49/48/3 
f 49/48/3 48/20/3 50/49/3 51/50/3 
s 2
f 29/38/3 42/44/3 52/50/3 22/19/3 
f 25/22/3 29/38/3 22/19/3 
f 43/45/3 20/17/3 53/47/3 
f 41/43/3 39/41/3 54/46/3 
f 52/50/3 42/44/3 55/48/3 
f 22/19/3 52/50/3 56/49/3 
f 42/44/3 41/43/3 55/48/3 
f 56/49/3 23/20/3 22/19/3 
f 20/17/3 23/20/3 53/47/3 
f 39/41/3 43/45/3 54/46/3 
s 1
f 43/45/7 53/47/7 57/47/7 58/45/7 
s 4
f 53/47/8 23/20/9 59/20/10 57/47/11 
f 23/20/9 56/49/12 60/49/13 59/20/10 
s 1
f 56/49/14 52/50/14 61/50/14 60/49/14 
s 4
f 52/50/15 55/48/15 62/48/15 61/50/15 
s 8
f 55/48/16 41/43/17 63/43/18 62/48/19 
f 41/43/17 54/46/20 64/46/21 63/43/18 
s 4
f 54/46/22 43/45/22 58/45/22 64/46/22 
s 2
f 58/45/23 57/47/24 65/47/25 66/45/26 
s 4
f 57/47/11 59/20/10 67/20/27 65/47/25 
f 59/20/10 60/49/13 68/49/28 67/20/27 
s 2
f 60/49/29 61/50/30 69/50/31 68/49/28 
s 16
f 61/50/32 62/48/33 70/48/34 69/50/35 
s 8
f 62/48/19 63/43/18 71/43/36 70/48/37 
f 63/43/18 64/46/21 72/46/38 71/43/36 
s 16
f 64/46/39 58/45/40 66/45/41 72/46/42 
s 10
f 66/45/26 65/47/25 73/47/43 74/45/44 
s 6
f 65/47/25 67/20/27 75/20/45 73/47/43 
f 67/20/27 68/49/28 76/49/46 75/20/45 
s 10
f 68/49/28 69/50/31 77/50/47 76/49/46 
s 6
f 69/50/31 70/48/37 78/48/48 77/50/47 
s 10
f 70/48/37 71/43/36 79/43/49 78/48/48 
f 71/43/36 72/46/38 80/46/50 79/43/49 
s 6
f 72/46/38 66/45/26 74/45/44 80/46/50 
s 8
f 74/45/44 73/47/43 81/47/51 82/45/52 
s 4
f 73/47/43 75/20/45 83/20/53 81/47/54 
f 75/20/45 76/49/46 84/49/55 83/20/53 
s 8
f 76/49/46 77/50/47 85/50/56 84/49/57 
s 4
f 77/50/47 78/48/48 86/48/58 85/50/59 
s 8
f 78/48/48 79/43/49 87/43/60 86/48/61 
f 79/43/49 80/46/50 88/46/62 87/43/60 
s 4
f 80/46/50 74/45/44 82/45/63 88/46/64 
s 8
f 82/45/52 81/47/51 89/47/65 90/45/66 
s 4
f 81/47/54 83/20/53 91/20/67 89/47/68 
f 83/20/53 84/49/55 92/49/69 91/20/67 
s 8
f 84/49/57 85/50/56 93/50/70 92/49/71 
s 4
f 85/50/59 86/48/58 94/48/72 93/50/73 
s 8
f 86/48/61 87/43/60 95/43/74 94/48/75 
f 87/43/60 88/46/62 96/46/76 95/43/74 
s 4
f 88/46/64 82/45/63 90/45/77 96/46/78 
s 8
f 90/45/66 89/47/65 46/47/79 45/45/79 
s 4
f 89/47/68 91/20/67 48/20/80 46/47/81 
f 91/20/67 92/49/69 50/49/82 48/20/80 
s 8
f 92/49/71 93/50/70 51/50/83 50/49/83 
s 4
f 93/50/73 94/48/72 49/48/84 51/50/84 
s 8
f 94/48/75 95/43/74 47/43/85 49/48/86 
f 95/43/74 96/46/76 44/46/87 47/43/85 
s 4
f 96/46/78 90/45/77 45/45/88 44/46/88 
f 4/4/89 5/5/89 18/51/89 
s 2
f 2/52/90 34/25/90 32/36/90 3/53/90 
f 3/53/90 32/36/90 30/33/90 6/54/90 
s 8
f 7/55/91 21/18/91 18/15/91 5/56/91 
s 2
f 6/54/90 30/33/90 26/32/90 8/57/90 
s 8
f 9/58/91 24/21/91 21/18/91 7/55/91 
f 10/59/92 37/29/92 38/40/92 11/60/92 
s 2
f 12/61/93 33/37/93 35/27/93 13/62/93 
s 8
f 11/60/92 38/40/92 40/42/92 14/63/92 
s 2
f 15/64/93 31/34/93 33/37/93 12/61/93 
s 8
f 14/63/92 40/42/92 28/39/92 16/65/92 
s 2
f 17/66/93 27/35/93 31/34/93 15/64/93 
# 85 polygons - 18 triangles

