# 3ds Max Wavefront OBJ Exporter v0.97b - (c)2007 guruware
# File Created: 25.04.2018 14:00:02

mtllib mug.mtl

#
# object Cylinder001
#

#
# object Cylinder002
#

v  15.0122 0.0000 0.9926
v  13.6502 0.0000 -4.4497
v  13.6502 1.4304 -4.4497
v  15.0122 1.4304 0.9926
v  8.7950 0.0000 -10.2352
v  8.7950 1.4304 -10.2352
v  2.2693 0.0000 -12.7101
v  2.2693 1.4304 -12.7101
v  -4.6591 0.0000 -11.8688
v  -4.6591 1.4304 -11.8688
v  -10.4030 0.0000 -7.9041
v  -10.4030 1.4304 -7.9041
v  -13.6464 0.0000 -1.7243
v  -13.6464 1.4304 -1.7243
v  -13.6464 0.0000 5.2550
v  -13.6464 1.4304 5.2550
v  -10.4030 0.0000 11.4349
v  -10.4030 1.4304 11.4349
v  -4.6591 0.0000 15.3996
v  -4.6591 1.4304 15.3996
v  2.2693 0.0000 16.2408
v  2.2693 1.4304 16.2408
v  8.7950 0.0000 13.7660
v  8.7950 1.4304 13.7660
v  13.4232 0.0000 8.5419
v  13.4232 1.4304 8.5419
v  7.8691 0.0000 12.4245
v  2.0728 0.0000 14.6227
v  -4.0811 0.0000 13.8755
v  -12.0637 0.0000 4.8649
v  -9.1829 0.0000 10.3540
v  -12.0637 0.0000 -1.3342
v  -9.1829 0.0000 -6.8232
v  2.0728 0.0000 -11.0919
v  -4.0811 0.0000 -10.3447
v  12.1942 0.0000 -3.8128
v  7.8691 0.0000 -8.8937
v  13.3858 -0.0000 1.0266
v  11.9798 0.0000 7.7844
v  12.1942 1.4304 -3.8128
v  7.8691 1.4304 -8.8937
v  2.0728 1.4304 -11.0919
v  -9.1829 1.4304 -6.8232
v  -4.0811 1.4304 -10.3447
v  -12.0637 1.4304 -1.3342
v  -12.0637 1.4304 4.8649
v  -4.0811 1.4304 13.8755
v  -9.1829 1.4304 10.3540
v  7.8691 1.4304 12.4245
v  2.0728 1.4304 14.6227
v  11.9798 1.4304 7.7844
v  13.3858 1.4304 1.0266
v  13.3858 30.3839 1.0266
v  14.1990 30.8833 1.0096
v  12.9222 30.8833 -4.1313
v  12.1942 30.3839 -3.8128
v  11.9798 30.3839 7.7844
v  12.7015 30.8833 8.1631
v  7.8691 30.3839 12.4245
v  8.3320 30.8833 13.0952
v  2.0728 30.3839 14.6227
v  2.1710 30.8833 15.4318
v  -4.0811 30.3839 13.8755
v  -4.3701 30.8833 14.6375
v  -9.1829 30.3839 10.3540
v  -9.7929 30.8833 10.8944
v  -12.0637 30.3839 4.8649
v  -12.8551 30.8833 5.0600
v  -12.0637 30.3839 -1.3342
v  -12.8551 30.8833 -1.5292
v  -9.1829 30.3839 -6.8232
v  -9.7929 30.8833 -7.3637
v  -4.0811 30.3839 -10.3447
v  -4.3701 30.8833 -11.1067
v  2.0728 30.3839 -11.0919
v  2.1710 30.8833 -11.9010
v  7.8691 30.3839 -8.8937
v  8.3320 30.8833 -9.5644
v  13.6502 7.3798 -4.4497
v  15.0122 7.3798 0.9926
v  8.7950 30.3839 -10.2352
v  13.6502 30.3839 -4.4497
v  13.6502 26.8417 -4.4497
v  13.6502 25.2280 -4.4497
v  13.6502 9.1964 -4.4497
v  2.2693 30.3839 -12.7101
v  -4.6591 30.3839 -11.8688
v  -10.4030 30.3839 -7.9041
v  -13.6464 30.3839 -1.7243
v  -13.6464 30.3839 5.2550
v  -10.4030 30.3839 11.4349
v  -4.6591 30.3839 15.3996
v  2.2693 30.3839 16.2408
v  8.7950 30.3839 13.7660
v  13.4232 30.3839 8.5419
v  15.0122 9.1964 0.9926
v  15.0122 25.2280 0.9926
v  15.0122 26.8417 0.9926
v  15.0122 30.3839 0.9926
v  17.5410 27.6757 0.4421
v  16.1790 27.6757 -5.0002
v  17.8668 26.0971 0.3712
v  16.5048 26.0971 -5.0711
v  17.3170 10.1422 0.4908
v  15.9550 10.1422 -4.9515
v  18.0908 8.5087 0.3224
v  16.7288 8.5087 -5.1199
v  19.8968 13.0500 -0.0708
v  18.5348 13.0500 -5.5131
v  20.6706 11.4164 -0.2392
v  19.3085 11.4164 -5.6815
v  20.4547 27.8757 -0.1922
v  19.0927 27.8757 -5.6345
v  20.2921 26.3323 -0.1568
v  18.9301 26.3323 -5.5991
v  22.4602 26.6309 -0.6288
v  21.0981 26.6309 -6.0711
v  21.7268 24.8304 -0.4691
v  20.3648 24.8304 -5.9114
v  21.8434 16.0861 -0.4945
v  20.4814 16.0861 -5.9368
v  23.1229 16.0186 -0.7904
v  21.7608 16.0186 -6.2327
v  22.6080 20.7422 -0.6610
v  21.2461 20.7424 -6.1033
v  23.8317 21.7152 -0.9273
v  22.4698 21.7154 -6.3697
# 127 vertices

vn 0.9998 -0.0000 -0.0189
vn 0.8908 -0.0000 -0.4544
vn 0.9998 0.0000 -0.0189
vn 0.5790 0.0000 -0.8153
vn 0.5790 -0.0000 -0.8153
vn 0.1205 0.0000 -0.9927
vn -0.3546 0.0000 -0.9350
vn -0.7485 0.0000 -0.6631
vn -0.9709 0.0000 -0.2393
vn -0.9709 0.0000 0.2393
vn -0.7485 0.0000 0.6631
vn -0.3546 0.0000 0.9350
vn 0.1205 0.0000 0.9927
vn 0.5681 0.0000 0.8230
vn 0.8933 0.0000 0.4495
vn -0.0000 -1.0000 0.0000
vn 0.0000 -1.0000 -0.0000
vn -0.0000 -1.0000 -0.0000
vn 0.0000 -1.0000 0.0000
vn -0.0000 1.0000 0.0000
vn 0.0000 1.0000 0.0000
vn 0.0000 1.0000 -0.0000
vn -0.0000 1.0000 -0.0000
vn -0.7085 0.7056 0.0133
vn 0.1004 0.9949 -0.0011
vn 0.0891 0.9946 -0.0537
vn -0.6361 0.6974 0.3301
vn -0.6329 0.7067 -0.3161
vn 0.1041 0.9933 0.0499
vn -0.4019 0.7066 -0.5823
vn 0.0612 0.9942 0.0886
vn -0.0853 0.7066 -0.7024
vn 0.0130 0.9942 0.1069
vn 0.2509 0.7066 -0.6616
vn -0.0382 0.9942 0.1007
vn 0.5296 0.7066 -0.4692
vn -0.0806 0.9942 0.0714
vn 0.6870 0.7066 -0.1693
vn -0.1046 0.9942 0.0258
vn 0.6870 0.7066 0.1693
vn -0.1046 0.9942 -0.0258
vn 0.5296 0.7066 0.4692
vn -0.0806 0.9942 -0.0714
vn 0.2509 0.7066 0.6616
vn -0.0382 0.9942 -0.1007
vn -0.0853 0.7066 0.7024
vn 0.0130 0.9942 -0.1069
vn -0.4085 0.7066 0.5778
vn 0.0675 0.9936 -0.0903
vn -0.8901 -0.0000 0.4558
vn -0.9998 -0.0000 0.0181
vn -0.8901 0.0000 0.4558
vn -0.8938 0.0000 -0.4485
vn -0.8938 -0.0000 -0.4485
vn -0.5681 0.0000 -0.8230
vn -0.1205 0.0000 -0.9927
vn 0.3546 0.0000 -0.9350
vn 0.7485 0.0000 -0.6631
vn 0.9709 0.0000 -0.2393
vn 0.9709 0.0000 0.2393
vn 0.7485 0.0000 0.6631
vn 0.3546 0.0000 0.9350
vn -0.1205 0.0000 0.9927
vn -0.5762 0.0000 0.8173
vn 0.8534 0.0000 -0.5213
vn 0.9983 0.0000 0.0577
vn 0.8534 -0.0000 -0.5213
vn 0.9983 -0.0000 0.0577
vn -0.4521 0.8848 0.1131
vn -0.2807 0.9572 0.0702
vn -0.2872 0.9552 0.0719
vn 0.2127 -0.0000 0.9771
vn 0.4242 -0.8993 -0.1062
vn 0.2922 -0.9536 -0.0731
vn 0.2870 -0.9552 -0.0718
vn -0.2127 0.0000 -0.9771
vn -0.5318 0.8363 0.1331
vn -0.7127 0.6784 0.1784
vn -0.7085 0.6831 0.1773
vn 0.2127 0.0000 0.9771
vn 0.4903 -0.8629 -0.1227
vn 0.6913 -0.7016 -0.1730
vn 0.6962 -0.6964 -0.1742
vn -0.8761 0.4294 0.2193
vn -0.8756 0.4304 0.2191
vn 0.8876 -0.4036 -0.2221
vn 0.8881 -0.4024 -0.2223
vn 0.3271 0.9414 -0.0819
vn 0.3125 0.9467 -0.0782
vn -0.4037 -0.9093 0.1010
vn -0.4211 -0.9009 0.1054
vn 0.8611 0.4605 -0.2155
vn 0.8586 0.4654 -0.2149
vn -0.9152 -0.3315 0.2291
vn -0.9161 -0.3290 0.2293
vn -0.2127 -0.0000 -0.9771
vn -0.9419 0.2391 0.2357
vn -0.9416 0.2404 0.2357
vn 0.2192 -0.0010 0.9757
vn 0.9507 -0.1990 -0.2379
vn 0.9509 -0.1981 -0.2380
vn -0.2192 0.0010 -0.9757
vn -0.9700 -0.0158 0.2427
vn -0.9700 -0.0159 0.2427
vn 0.2201 -0.0017 0.9755
vn 0.9690 0.0479 -0.2425
vn 0.9690 0.0478 -0.2425
vn -0.2201 0.0017 -0.9755
vn 0.7085 0.7056 -0.0130
vn 0.6395 0.6976 -0.3231
vn 0.6315 0.7068 0.3188
vn 0.4019 0.7066 0.5823
vn 0.0853 0.7066 0.7024
vn -0.2509 0.7066 0.6616
vn -0.5296 0.7066 0.4692
vn -0.6870 0.7066 0.1693
vn -0.6870 0.7066 -0.1693
vn -0.5296 0.7066 -0.4692
vn -0.2509 0.7066 -0.6616
vn 0.0853 0.7066 -0.7024
vn 0.4090 0.7066 -0.5774
# 121 vertex normals

vt 0.7500 0.0000 1.0000
vt 0.8269 0.0000 1.0000
vt 0.8269 1.0000 1.0000
vt 0.7500 1.0000 1.0000
vt 0.9038 0.0000 1.0000
vt 0.9038 1.0000 1.0000
vt 0.9808 0.0000 1.0000
vt 0.9808 1.0000 1.0000
vt 1.0577 0.0000 1.0000
vt 1.0577 1.0000 1.0000
vt 0.0577 0.0000 1.0000
vt 0.1346 0.0000 1.0000
vt 0.1346 1.0000 1.0000
vt 0.0577 1.0000 1.0000
vt 0.2115 0.0000 1.0000
vt 0.2115 1.0000 1.0000
vt 0.2885 0.0000 1.0000
vt 0.2885 1.0000 1.0000
vt 0.3654 0.0000 1.0000
vt 0.3654 1.0000 1.0000
vt 0.4423 0.0000 1.0000
vt 0.4423 1.0000 1.0000
vt 0.5192 0.0000 1.0000
vt 0.5192 1.0000 1.0000
vt 0.5962 0.0000 1.0000
vt 0.5962 1.0000 1.0000
vt 0.6731 0.0000 1.0000
vt 0.6731 1.0000 1.0000
vt 0.9115 0.7840 -0.2500
vt 0.9964 0.5603 -0.2500
vt 0.9675 0.3227 -0.2500
vt 0.6197 0.0145 -0.2500
vt 0.8316 0.1257 -0.2500
vt 0.3803 0.0145 -0.2500
vt 0.1684 0.1257 -0.2500
vt 0.0036 0.5603 -0.2500
vt 0.0325 0.3227 -0.2500
vt 0.2676 0.9427 -0.2500
vt 0.0885 0.7840 -0.2500
vt 0.5000 1.0000 -0.2500
vt 0.7324 0.9427 -0.2500
vt 0.2676 0.9427 0.2500
vt 0.0885 0.7840 0.2500
vt 0.0036 0.5603 0.2500
vt 0.1684 0.1257 0.2500
vt 0.0325 0.3227 0.2500
vt 0.3803 0.0145 0.2500
vt 0.6197 0.0145 0.2500
vt 0.9675 0.3227 0.2500
vt 0.8316 0.1257 0.2500
vt 0.9115 0.7840 0.2500
vt 0.9964 0.5603 0.2500
vt 0.7324 0.9427 0.2500
vt 0.5000 1.0000 0.2500
# 54 texture coords

g Cylinder002
usemtl wire_143225087
s 8
f 1/1/1 2/2/2 3/3/2 4/4/3 
f 2/2/2 5/5/4 6/6/5 3/3/2 
f 5/5/4 7/7/6 8/8/6 6/6/5 
f 7/7/6 9/9/7 10/10/7 8/8/6 
f 9/11/7 11/12/8 12/13/8 10/14/7 
f 11/12/8 13/15/9 14/16/9 12/13/8 
f 13/15/9 15/17/10 16/18/10 14/16/9 
f 15/17/10 17/19/11 18/20/11 16/18/10 
f 17/19/11 19/21/12 20/22/12 18/20/11 
f 19/21/12 21/23/13 22/24/13 20/22/12 
f 21/23/13 23/25/14 24/26/14 22/24/13 
f 23/25/14 25/27/15 26/28/15 24/26/14 
f 25/27/15 1/1/1 4/4/3 26/28/15 
s 1
f 27/29/16 28/30/17 29/31/17 30/32/17 
f 29/31/17 31/33/17 30/32/17 
f 30/32/17 32/34/17 33/35/17 34/36/17 
f 33/35/17 35/37/17 34/36/17 
f 27/29/16 30/32/17 34/36/17 36/38/18 
f 34/36/17 37/39/17 36/38/18 
f 27/29/16 36/38/18 38/40/18 39/41/19 
f 40/42/20 41/43/20 42/44/21 43/45/21 
f 42/44/21 44/46/22 43/45/21 
f 43/45/21 45/47/22 46/48/22 47/49/22 
f 46/48/22 48/50/22 47/49/22 
f 40/42/20 43/45/21 47/49/22 49/51/23 
f 47/49/22 50/52/22 49/51/23 
f 40/42/20 49/51/23 51/53/23 52/54/23 
s off
f 38/1/17 36/2/17 2/2/17 1/1/17 
f 36/2/17 37/5/17 5/5/17 2/2/17 
f 37/5/17 34/7/17 7/7/17 5/5/17 
f 34/7/17 35/9/17 9/9/17 7/7/17 
f 35/11/17 33/12/17 11/12/17 9/11/17 
f 33/12/17 32/15/17 13/15/17 11/12/17 
f 32/15/17 30/17/17 15/17/17 13/15/17 
f 30/17/17 31/19/17 17/19/17 15/17/17 
f 31/19/17 29/21/17 19/21/17 17/19/17 
f 29/21/17 28/23/17 21/23/17 19/21/17 
f 28/23/17 27/25/17 23/25/17 21/23/17 
f 27/25/17 39/27/17 25/27/17 23/25/17 
f 39/27/19 38/1/19 1/1/19 25/27/19 
s 1
f 53/4/24 54/4/25 55/3/26 56/3/27 
f 57/28/28 58/28/29 54/4/25 53/4/24 
f 59/26/30 60/26/31 58/28/29 57/28/28 
f 61/24/32 62/24/33 60/26/31 59/26/30 
f 63/22/34 64/22/35 62/24/33 61/24/32 
f 65/20/36 66/20/37 64/22/35 63/22/34 
f 67/18/38 68/18/39 66/20/37 65/20/36 
f 69/16/40 70/16/41 68/18/39 67/18/38 
f 71/13/42 72/13/43 70/16/41 69/16/40 
f 73/14/44 74/14/45 72/13/43 71/13/42 
f 75/8/46 76/8/47 74/10/45 73/10/44 
f 77/6/48 78/6/49 76/8/47 75/8/46 
f 56/3/27 55/3/26 78/6/49 77/6/48 
s 8
f 40/3/50 52/4/51 53/4/51 56/3/52 
f 52/4/51 51/28/53 57/28/54 53/4/51 
f 51/28/53 49/26/55 59/26/55 57/28/54 
f 49/26/55 50/24/56 61/24/56 59/26/55 
f 50/24/56 47/22/57 63/22/57 61/24/56 
f 47/22/57 48/20/58 65/20/58 63/22/57 
f 48/20/58 46/18/59 67/18/59 65/20/58 
f 46/18/59 45/16/60 69/16/60 67/18/59 
f 45/16/60 43/13/61 71/13/61 69/16/60 
f 43/13/61 44/14/62 73/14/62 71/13/61 
f 44/10/62 42/8/63 75/8/63 73/10/62 
f 42/8/63 41/6/64 77/6/64 75/8/63 
f 41/6/64 40/3/50 56/3/52 77/6/64 
f 3/3/2 79/3/65 80/4/66 4/4/3 
f 3/3/2 6/6/5 81/6/5 79/3/65 
f 81/6/5 82/3/2 83/3/67 84/3/67 
f 81/6/5 84/3/67 85/3/65 79/3/65 
f 6/6/5 8/8/6 86/8/6 81/6/5 
f 8/8/6 10/10/7 87/10/7 86/8/6 
f 10/14/7 12/13/8 88/13/8 87/14/7 
f 12/13/8 14/16/9 89/16/9 88/13/8 
f 14/16/9 16/18/10 90/18/10 89/16/9 
f 16/18/10 18/20/11 91/20/11 90/18/10 
f 18/20/11 20/22/12 92/22/12 91/20/11 
f 20/22/12 22/24/13 93/24/13 92/22/12 
f 22/24/13 24/26/14 94/26/14 93/24/13 
f 24/26/14 26/28/15 95/28/15 94/26/14 
f 26/28/15 4/4/3 80/4/66 96/4/66 
f 26/28/15 96/4/66 97/4/68 98/4/68 
f 26/28/15 98/4/68 99/4/1 95/28/15 
f 82/3/2 99/4/1 98/4/68 83/3/67 
f 84/3/67 97/4/68 96/4/66 85/3/65 
s 1
f 83/3/69 98/4/69 100/4/70 101/3/71 
s off
f 98/4/72 97/4/72 102/4/72 100/4/72 
s 1
f 97/4/73 84/3/73 103/3/74 102/4/75 
s off
f 84/3/76 83/3/76 101/3/76 103/3/76 
s 1
f 85/3/77 96/4/77 104/4/78 105/3/79 
s off
f 96/4/80 80/4/80 106/4/80 104/4/80 
s 1
f 80/4/81 79/3/81 107/3/82 106/4/83 
s off
f 79/3/76 85/3/76 105/3/76 107/3/76 
s 1
f 105/3/79 104/4/78 108/4/84 109/3/85 
s off
f 104/4/80 106/4/80 110/4/80 108/4/80 
s 1
f 106/4/83 107/3/82 111/3/86 110/4/87 
s off
f 107/3/76 105/3/76 109/3/76 111/3/76 
s 1
f 101/3/71 100/4/70 112/4/88 113/3/89 
s off
f 100/4/72 102/4/72 114/4/72 112/4/72 
s 1
f 102/4/75 103/3/74 115/3/90 114/4/91 
s off
f 103/3/76 101/3/76 113/3/76 115/3/76 
s 1
f 113/3/89 112/4/88 116/4/92 117/3/93 
s off
f 112/4/72 114/4/72 118/4/72 116/4/72 
s 1
f 114/4/91 115/3/90 119/3/94 118/4/95 
s off
f 115/3/96 113/3/96 117/3/96 119/3/96 
s 1
f 109/3/85 108/4/84 120/4/97 121/3/98 
s off
f 108/4/99 110/4/99 122/4/99 120/4/99 
s 1
f 110/4/87 111/3/86 123/3/100 122/4/101 
s off
f 111/3/102 109/3/102 121/3/102 123/3/102 
s 1
f 121/3/98 120/4/97 124/4/103 125/3/104 
s off
f 120/4/105 122/4/105 126/4/105 124/4/105 
s 1
f 122/4/101 123/3/100 127/3/106 126/4/107 
s off
f 123/3/108 121/3/108 125/3/108 127/3/108 
s 1
f 117/3/93 116/4/92 126/4/107 127/3/106 
s off
f 116/4/72 118/4/72 124/4/72 126/4/72 
s 1
f 118/4/95 119/3/94 125/3/104 124/4/103 
s off
f 119/3/76 117/3/76 127/3/76 125/3/76 
s 1
f 99/4/109 82/3/110 55/3/26 54/4/25 
f 95/28/111 99/4/109 54/4/25 58/28/29 
f 94/26/112 95/28/111 58/28/29 60/26/31 
f 93/24/113 94/26/112 60/26/31 62/24/33 
f 92/22/114 93/24/113 62/24/33 64/22/35 
f 91/20/115 92/22/114 64/22/35 66/20/37 
f 90/18/116 91/20/115 66/20/37 68/18/39 
f 89/16/117 90/18/116 68/18/39 70/16/41 
f 88/13/118 89/16/117 70/16/41 72/13/43 
f 87/14/119 88/13/118 72/13/43 74/14/45 
f 86/8/120 87/10/119 74/10/45 76/8/47 
f 81/6/121 86/8/120 76/8/47 78/6/49 
f 82/3/110 81/6/121 78/6/49 55/3/26 
# 124 polygons - 6 triangles

