# 3ds Max Wavefront OBJ Exporter v0.97b - (c)2007 guruware
# File Created: 26.04.2018 13:23:18

mtllib mug.mtl

#
# object Cylinder002
#

v  15.1419 1.4304 1.5033
v  15.1419 0.0000 1.5033
v  13.7799 0.0000 -3.9390
v  13.7799 1.4304 -3.9390
v  8.9247 0.0000 -9.7245
v  8.9247 1.4304 -9.7245
v  2.3990 0.0000 -12.1994
v  2.3990 1.4304 -12.1994
v  -4.5294 0.0000 -11.3581
v  -4.5294 1.4304 -11.3581
v  -10.2733 0.0000 -7.3934
v  -10.2733 1.4304 -7.3934
v  -13.5167 0.0000 -1.2136
v  -13.5167 1.4304 -1.2136
v  -13.5167 0.0000 5.7657
v  -13.5167 1.4304 5.7657
v  -10.2733 0.0000 11.9456
v  -10.2733 1.4304 11.9456
v  -4.5294 0.0000 15.9103
v  -4.5294 1.4304 15.9103
v  2.3990 0.0000 16.7515
v  2.3990 1.4304 16.7515
v  8.9247 0.0000 14.2767
v  8.9247 1.4304 14.2767
v  13.5529 0.0000 9.0526
v  13.5529 1.4304 9.0526
v  13.5155 0.0000 1.5373
v  12.3239 0.0000 -3.3021
v  7.9988 0.0000 -8.3830
v  2.2025 0.0000 -10.5812
v  -3.9514 0.0000 -9.8340
v  -9.0532 0.0000 -6.3125
v  -11.9340 0.0000 -0.8235
v  -11.9340 0.0000 5.3756
v  -9.0532 0.0000 10.8647
v  -3.9514 0.0000 14.3862
v  2.2025 0.0000 15.1334
v  7.9988 0.0000 12.9352
v  12.1095 0.0000 8.2951
v  13.0519 30.8833 -3.6206
v  12.3239 30.3839 -3.3021
v  13.5155 30.3839 1.5373
v  14.3287 30.8833 1.5203
v  12.1095 30.3839 8.2951
v  12.8312 30.8833 8.6738
v  7.9988 30.3839 12.9352
v  8.4617 30.8833 13.6059
v  2.2025 30.3839 15.1334
v  2.3007 30.8833 15.9425
v  -3.9514 30.3839 14.3862
v  -4.2404 30.8833 15.1482
v  -9.0532 30.3839 10.8647
v  -9.6632 30.8833 11.4051
v  -11.9340 30.3839 5.3756
v  -12.7254 30.8833 5.5707
v  -11.9340 30.3839 -0.8235
v  -12.7254 30.8833 -1.0185
v  -9.0532 30.3839 -6.3125
v  -9.6632 30.8833 -6.8530
v  -3.9514 30.3839 -9.8340
v  -4.2404 30.8833 -10.5960
v  2.2025 30.3839 -10.5812
v  2.3007 30.8833 -11.3903
v  7.9988 30.3839 -8.3830
v  8.4617 30.8833 -9.0537
v  12.3239 1.4304 -3.3021
v  13.5155 1.4304 1.5373
v  12.1095 1.4304 8.2951
v  7.9988 1.4304 12.9352
v  2.2025 1.4304 15.1334
v  -3.9514 1.4304 14.3862
v  -9.0532 1.4304 10.8647
v  -11.9340 1.4304 5.3756
v  -11.9340 1.4304 -0.8235
v  -9.0532 1.4304 -6.3125
v  -3.9514 1.4304 -9.8340
v  2.2025 1.4304 -10.5812
v  7.9988 1.4304 -8.3830
v  13.7799 7.3798 -3.9390
v  15.1419 7.3798 1.5033
v  8.9247 30.3839 -9.7245
v  13.7799 30.3839 -3.9390
v  13.7799 26.8417 -3.9390
v  13.7799 25.2280 -3.9390
v  13.7799 9.1964 -3.9390
v  2.3990 30.3839 -12.1994
v  -4.5294 30.3839 -11.3581
v  -10.2733 30.3839 -7.3934
v  -13.5167 30.3839 -1.2136
v  -13.5167 30.3839 5.7657
v  -10.2733 30.3839 11.9456
v  -4.5294 30.3839 15.9103
v  2.3990 30.3839 16.7515
v  8.9247 30.3839 14.2767
v  13.5529 30.3839 9.0526
v  15.1419 9.1964 1.5033
v  15.1419 25.2280 1.5033
v  15.1419 26.8417 1.5033
v  15.1419 30.3839 1.5033
v  16.3087 27.6757 -4.4895
v  17.6707 27.6757 0.9528
v  17.9965 26.0971 0.8819
v  16.6345 26.0971 -4.5604
v  16.0847 10.1422 -4.4408
v  17.4467 10.1422 1.0015
v  18.2205 8.5087 0.8331
v  16.8585 8.5087 -4.6092
v  18.6645 13.0500 -5.0024
v  20.0265 13.0500 0.4399
v  20.8003 11.4164 0.2715
v  19.4382 11.4164 -5.1708
v  19.2224 27.8757 -5.1238
v  20.5844 27.8757 0.3185
v  20.4218 26.3323 0.3539
v  19.0598 26.3323 -5.0884
v  21.2278 26.6309 -5.5604
v  22.5899 26.6309 -0.1181
v  21.8565 24.8304 0.0416
v  20.4945 24.8304 -5.4007
v  20.6111 16.0861 -5.4261
v  21.9731 16.0861 0.0162
v  23.2526 16.0186 -0.2797
v  21.8905 16.0186 -5.7220
v  21.3758 20.7424 -5.5926
v  22.7377 20.7422 -0.1503
v  23.9614 21.7152 -0.4166
v  22.5995 21.7154 -5.8590
v  1.2827 0.0000 2.9087
v  0.9159 1.4304 1.7781
# 129 vertices

vn 0.9998 0.0000 -0.0189
vn 0.8908 0.0000 -0.4544
vn 0.5790 0.0000 -0.8153
vn 0.1205 0.0000 -0.9927
vn -0.3546 0.0000 -0.9350
vn -0.7485 0.0000 -0.6631
vn -0.9709 0.0000 -0.2393
vn -0.9709 0.0000 0.2393
vn -0.7485 0.0000 0.6631
vn -0.3546 0.0000 0.9350
vn 0.1205 0.0000 0.9927
vn 0.5681 0.0000 0.8230
vn 0.8933 0.0000 0.4495
vn 0.0000 -1.0000 -0.0000
vn 0.0891 0.9946 -0.0537
vn -0.6361 0.6974 0.3301
vn -0.7085 0.7056 0.0133
vn 0.1004 0.9949 -0.0011
vn -0.6329 0.7067 -0.3161
vn 0.1041 0.9933 0.0499
vn -0.4019 0.7066 -0.5823
vn 0.0612 0.9942 0.0886
vn -0.0853 0.7066 -0.7024
vn 0.0130 0.9942 0.1069
vn 0.2509 0.7066 -0.6616
vn -0.0382 0.9942 0.1007
vn 0.5296 0.7066 -0.4692
vn -0.0806 0.9942 0.0714
vn 0.6870 0.7066 -0.1693
vn -0.1046 0.9942 0.0258
vn 0.6870 0.7066 0.1693
vn -0.1046 0.9942 -0.0258
vn 0.5296 0.7066 0.4692
vn -0.0806 0.9942 -0.0714
vn 0.2509 0.7066 0.6616
vn -0.0382 0.9942 -0.1007
vn -0.0853 0.7066 0.7024
vn 0.0130 0.9942 -0.1069
vn -0.4085 0.7066 0.5778
vn 0.0675 0.9936 -0.0903
vn -0.8901 0.0000 0.4558
vn -0.9998 0.0000 0.0181
vn -0.8938 0.0000 -0.4485
vn -0.5681 0.0000 -0.8230
vn -0.1205 0.0000 -0.9927
vn 0.3546 0.0000 -0.9350
vn 0.7485 0.0000 -0.6631
vn 0.9709 0.0000 -0.2393
vn 0.9709 0.0000 0.2393
vn 0.7485 0.0000 0.6631
vn 0.3546 0.0000 0.9350
vn -0.1205 0.0000 0.9927
vn -0.5762 0.0000 0.8173
vn 0.8534 0.0000 -0.5213
vn 0.9983 0.0000 0.0577
vn -0.2872 0.9552 0.0719
vn -0.4521 0.8848 0.1131
vn -0.2807 0.9572 0.0702
vn 0.2127 0.0000 0.9771
vn 0.2922 -0.9536 -0.0731
vn 0.2870 -0.9552 -0.0718
vn 0.4242 -0.8993 -0.1062
vn -0.2127 0.0000 -0.9771
vn -0.7085 0.6831 0.1773
vn -0.5318 0.8363 0.1331
vn -0.7127 0.6784 0.1784
vn 0.6913 -0.7016 -0.1730
vn 0.6962 -0.6964 -0.1742
vn 0.4903 -0.8629 -0.1227
vn -0.8756 0.4304 0.2191
vn -0.8761 0.4294 0.2193
vn 0.8876 -0.4036 -0.2221
vn 0.8881 -0.4024 -0.2223
vn 0.3125 0.9467 -0.0782
vn 0.3271 0.9414 -0.0819
vn -0.4037 -0.9093 0.1010
vn -0.4211 -0.9009 0.1054
vn 0.8586 0.4654 -0.2149
vn 0.8611 0.4605 -0.2155
vn -0.9152 -0.3315 0.2291
vn -0.9161 -0.3290 0.2293
vn -0.9416 0.2404 0.2357
vn -0.9419 0.2391 0.2357
vn 0.2192 -0.0010 0.9757
vn 0.9507 -0.1990 -0.2379
vn 0.9509 -0.1981 -0.2380
vn -0.2192 0.0010 -0.9757
vn -0.9700 -0.0159 0.2427
vn -0.9700 -0.0158 0.2427
vn 0.2201 -0.0017 0.9755
vn 0.9690 0.0479 -0.2425
vn 0.9690 0.0478 -0.2425
vn -0.2201 0.0017 -0.9755
vn 0.7085 0.7056 -0.0130
vn 0.6395 0.6976 -0.3231
vn 0.6315 0.7068 0.3188
vn 0.4019 0.7066 0.5823
vn 0.0853 0.7066 0.7024
vn -0.2509 0.7066 0.6616
vn -0.5296 0.7066 0.4692
vn -0.6870 0.7066 0.1693
vn -0.6870 0.7066 -0.1693
vn -0.5296 0.7066 -0.4692
vn -0.2509 0.7066 -0.6616
vn 0.0853 0.7066 -0.7024
vn 0.4090 0.7066 -0.5774
vn 0.0000 1.0000 -0.0000
# 107 vertex normals

vt 0.8041 0.0463 0.5019
vt 0.8041 0.0000 0.5019
vt 0.8953 0.0000 0.5442
vt 0.8953 0.0463 0.5442
vt 0.9959 0.0000 0.6671
vt 0.9959 0.0463 0.6671
vt -0.0041 0.0463 0.6671
vt -0.0041 0.0000 0.6671
vt 0.0700 0.0000 0.7855
vt 0.0700 0.0463 0.7855
vt 0.1356 0.0000 0.8782
vt 0.1356 0.0463 0.8782
vt 0.1981 0.0000 0.9364
vt 0.1981 0.0463 0.9364
vt 0.2600 0.0000 0.9631
vt 0.2600 0.0463 0.9631
vt 0.3220 0.0000 0.9631
vt 0.3220 0.0463 0.9631
vt 0.3839 0.0000 0.9364
vt 0.3839 0.0463 0.9364
vt 0.4464 0.0000 0.8782
vt 0.4464 0.0463 0.8782
vt 0.5120 0.0000 0.7855
vt 0.5120 0.0463 0.7855
vt 0.5862 0.0000 0.6671
vt 0.5862 0.0463 0.6671
vt 0.6779 0.0000 0.5543
vt 0.6779 0.0463 0.5543
vt 0.7777 0.3877 0.0000
vt 0.8025 0.4860 0.0000
vt 0.7728 0.4867 0.0000
vt 0.7511 0.3992 0.0000
vt 0.6722 0.3074 0.0000
vt 0.6891 0.2832 0.0000
vt 0.5664 0.2677 0.0000
vt 0.5700 0.2385 0.0000
vt 0.4541 0.2812 0.0000
vt 0.4435 0.2537 0.0000
vt 0.3610 0.3448 0.0000
vt 0.3387 0.3253 0.0000
vt 0.3084 0.4440 0.0000
vt 0.2795 0.4370 0.0000
vt 0.3084 0.5560 0.0000
vt 0.2795 0.5630 0.0000
vt 0.3610 0.6552 0.0000
vt 0.3387 0.6747 0.0000
vt 0.4541 0.7188 0.0000
vt 0.4435 0.7463 0.0000
vt 0.5664 0.7323 0.0000
vt 0.5700 0.7615 0.0000
vt 0.6722 0.6926 0.0000
vt 0.6891 0.7168 0.0000
vt 0.7472 0.6087 0.0000
vt 0.7735 0.6224 0.0000
vt 0.8981 1.0000 0.5049
vt 0.9014 0.9838 0.4657
vt 0.8060 0.9838 0.4200
vt 0.8050 1.0000 0.4610
vt 0.6722 0.9838 0.4731
vt 0.6753 1.0000 0.5136
vt 0.5794 0.9838 0.5858
vt 0.5830 1.0000 0.6263
vt 0.5063 0.9838 0.7028
vt 0.5093 1.0000 0.7440
vt 0.4421 0.9838 0.7948
vt 0.4444 1.0000 0.8364
vt 0.3813 0.9838 0.8534
vt 0.3826 1.0000 0.8948
vt 0.3211 0.9838 0.8808
vt 0.3216 1.0000 0.9219
vt 0.2610 0.9838 0.8808
vt 0.2605 1.0000 0.9219
vt 0.2008 0.9838 0.8534
vt 0.1994 1.0000 0.8948
vt 0.1399 0.9838 0.7947
vt 0.1376 1.0000 0.8364
vt 0.0758 0.9838 0.7028
vt 0.0727 1.0000 0.7440
vt 0.0026 0.9838 0.5858
vt -0.0010 1.0000 0.6263
vt 1.0026 0.9838 0.5858
vt 0.9990 1.0000 0.6263
vt 0.9014 0.0463 0.4657
vt 0.8060 0.0463 0.4200
vt 0.6722 0.0463 0.4731
vt 0.5794 0.0463 0.5858
vt 0.5063 0.0463 0.7028
vt 0.4421 0.0463 0.7948
vt 0.3813 0.0463 0.8534
vt 0.3211 0.0463 0.8808
vt 0.2610 0.0463 0.8808
vt 0.2008 0.0463 0.8534
vt 0.1399 0.0463 0.7947
vt 0.0758 0.0463 0.7028
vt 0.0026 0.0463 0.5858
vt 1.0026 0.0463 0.5858
vt 0.8953 0.2390 0.5442
vt 0.8041 0.2390 0.5019
vt 0.9959 0.9838 0.6671
vt 0.8953 0.9838 0.5442
vt 0.8953 0.8691 0.5442
vt 0.8953 0.8169 0.5442
vt 0.8953 0.2978 0.5442
vt -0.0041 0.9838 0.6671
vt 0.0700 0.9838 0.7855
vt 0.1356 0.9838 0.8782
vt 0.1981 0.9838 0.9364
vt 0.2600 0.9838 0.9631
vt 0.3220 0.9838 0.9631
vt 0.3839 0.9838 0.9364
vt 0.4464 0.9838 0.8782
vt 0.5120 0.9838 0.7855
vt 0.5862 0.9838 0.6671
vt 0.6779 0.9838 0.5543
vt 0.8041 0.2978 0.5019
vt 0.8041 0.8169 0.5019
vt 0.8041 0.8691 0.5019
vt 0.8041 0.9838 0.5019
vt 0.8823 0.8961 0.6655
vt 0.8088 0.8961 0.6317
vt 0.8093 0.8450 0.6484
vt 0.8809 0.8450 0.6814
vt 0.8832 0.3284 0.6546
vt 0.8085 0.3284 0.6202
vt 0.8096 0.2755 0.6599
vt 0.8801 0.2755 0.6923
vt 0.8738 0.4226 0.7812
vt 0.8118 0.4226 0.7529
vt 0.8126 0.3697 0.7928
vt 0.8716 0.3697 0.8196
vt 0.8722 0.9026 0.8089
vt 0.8124 0.9026 0.7816
vt 0.8122 0.8526 0.7733
vt 0.8727 0.8526 0.8008
vt 0.8671 0.8623 0.9090
vt 0.8141 0.8623 0.8850
vt 0.8135 0.8040 0.8472
vt 0.8688 0.8040 0.8723
vt 0.8685 0.5209 0.8781
vt 0.8136 0.5209 0.8532
vt 0.8147 0.5187 0.9194
vt 0.8658 0.5187 0.9427
vt 0.8668 0.6716 0.9164
vt 0.8142 0.6716 0.8927
vt 0.8150 0.7031 0.9558
vt 0.8642 0.7031 0.9779
vt 0.5496 0.5114 0.0000
vt 0.3632 0.6536 0.0000
vt 0.3111 0.5554 0.0000
vt 0.5433 0.5089 0.0000
vt 0.7455 0.3924 0.0000
vt 0.7709 0.5132 0.0000
vt 0.6713 0.3094 0.0000
vt 0.5665 0.2701 0.0000
vt 0.4553 0.2834 0.0000
vt 0.3632 0.3464 0.0000
vt 0.3111 0.4446 0.0000
vt 0.4553 0.7166 0.0000
vt 0.5665 0.7299 0.0000
vt 0.6713 0.6906 0.0000
vt 0.7494 0.5997 0.0000
# 161 texture coords

g Cylinder002
usemtl Material__26
s 8
f 1/1/1 2/2/1 3/3/2 4/4/2 
f 4/4/2 3/3/2 5/5/3 6/6/3 
f 6/7/3 5/8/3 7/9/4 8/10/4 
f 8/10/4 7/9/4 9/11/5 10/12/5 
f 10/12/5 9/11/5 11/13/6 12/14/6 
f 12/14/6 11/13/6 13/15/7 14/16/7 
f 14/16/7 13/15/7 15/17/8 16/18/8 
f 16/18/8 15/17/8 17/19/9 18/20/9 
f 18/20/9 17/19/9 19/21/10 20/22/10 
f 20/22/10 19/21/10 21/23/11 22/24/11 
f 22/24/11 21/23/11 23/25/12 24/26/12 
f 24/26/12 23/25/12 25/27/13 26/28/13 
f 26/28/13 25/27/13 2/2/1 1/1/1 
s off
f 3/29/14 2/30/14 27/31/14 28/32/14 
f 3/29/14 28/32/14 29/33/14 5/34/14 
f 5/34/14 29/33/14 30/35/14 7/36/14 
f 7/36/14 30/35/14 31/37/14 9/38/14 
f 9/38/14 31/37/14 32/39/14 11/40/14 
f 11/40/14 32/39/14 33/41/14 13/42/14 
f 13/42/14 33/41/14 34/43/14 15/44/14 
f 15/44/14 34/43/14 35/45/14 17/46/14 
f 17/46/14 35/45/14 36/47/14 19/48/14 
f 19/48/14 36/47/14 37/49/14 21/50/14 
f 21/50/14 37/49/14 38/51/14 23/52/14 
f 23/52/14 38/51/14 39/53/14 25/54/14 
f 2/30/14 25/54/14 39/53/14 27/31/14 
s 1
f 40/55/15 41/56/16 42/57/17 43/58/18 
f 43/58/18 42/57/17 44/59/19 45/60/20 
f 44/59/19 46/61/21 47/62/22 45/60/20 
f 46/61/21 48/63/23 49/64/24 47/62/22 
f 48/63/23 50/65/25 51/66/26 49/64/24 
f 50/65/25 52/67/27 53/68/28 51/66/26 
f 52/67/27 54/69/29 55/70/30 53/68/28 
f 54/69/29 56/71/31 57/72/32 55/70/30 
f 56/71/31 58/73/33 59/74/34 57/72/32 
f 58/73/33 60/75/35 61/76/36 59/74/34 
f 60/75/35 62/77/37 63/78/38 61/76/36 
f 62/77/37 64/79/39 65/80/40 63/78/38 
f 64/81/39 41/56/16 40/55/15 65/82/40 
s 8
f 41/56/41 66/83/41 67/84/42 42/57/42 
f 42/57/42 67/84/42 68/85/43 44/59/43 
f 44/59/43 68/85/43 69/86/44 46/61/44 
f 46/61/44 69/86/44 70/87/45 48/63/45 
f 48/63/45 70/87/45 71/88/46 50/65/46 
f 50/65/46 71/88/46 72/89/47 52/67/47 
f 52/67/47 72/89/47 73/90/48 54/69/48 
f 54/69/48 73/90/48 74/91/49 56/71/49 
f 56/71/49 74/91/49 75/92/50 58/73/50 
f 58/73/50 75/92/50 76/93/51 60/75/51 
f 60/75/51 76/93/51 77/94/52 62/77/52 
f 62/77/52 77/94/52 78/95/53 64/79/53 
f 64/81/53 78/96/53 66/83/41 41/56/41 
f 1/1/1 4/4/2 79/97/54 80/98/55 
f 79/97/54 4/4/2 6/6/3 81/99/3 
f 81/99/3 82/100/2 83/101/54 84/102/54 
f 81/99/3 84/102/54 85/103/54 79/97/54 
f 81/104/3 6/7/3 8/10/4 86/105/4 
f 86/105/4 8/10/4 10/12/5 87/106/5 
f 87/106/5 10/12/5 12/14/6 88/107/6 
f 88/107/6 12/14/6 14/16/7 89/108/7 
f 89/108/7 14/16/7 16/18/8 90/109/8 
f 90/109/8 16/18/8 18/20/9 91/110/9 
f 91/110/9 18/20/9 20/22/10 92/111/10 
f 92/111/10 20/22/10 22/24/11 93/112/11 
f 93/112/11 22/24/11 24/26/12 94/113/12 
f 94/113/12 24/26/12 26/28/13 95/114/13 
f 26/28/13 1/1/1 80/98/55 96/115/55 
f 26/28/13 96/115/55 97/116/55 98/117/55 
f 95/114/13 26/28/13 98/117/55 99/118/1 
f 83/101/54 82/100/2 99/118/1 98/117/55 
f 85/103/54 84/102/54 97/116/55 96/115/55 
s 1
f 100/119/56 83/101/57 98/117/57 101/120/58 
s off
f 102/121/59 101/120/59 98/117/59 97/116/59 
s 1
f 103/122/60 102/121/61 97/116/62 84/102/62 
s off
f 103/122/63 84/102/63 83/101/63 100/119/63 
s 1
f 104/123/64 85/103/65 96/115/65 105/124/66 
s off
f 106/125/59 105/124/59 96/115/59 80/98/59 
s 1
f 107/126/67 106/125/68 80/98/69 79/97/69 
s off
f 107/126/63 79/97/63 85/103/63 104/123/63 
s 1
f 108/127/70 104/123/64 105/124/66 109/128/71 
s off
f 110/129/59 109/128/59 105/124/59 106/125/59 
s 1
f 111/130/72 110/129/73 106/125/68 107/126/67 
s off
f 111/130/63 107/126/63 104/123/63 108/127/63 
s 1
f 112/131/74 100/119/56 101/120/58 113/132/75 
s off
f 114/133/59 113/132/59 101/120/59 102/121/59 
s 1
f 115/134/76 114/133/77 102/121/61 103/122/60 
s off
f 115/134/63 103/122/63 100/119/63 112/131/63 
s 1
f 116/135/78 112/131/74 113/132/75 117/136/79 
s off
f 117/136/59 113/132/59 114/133/59 118/137/59 
s 1
f 119/138/80 118/137/81 114/133/77 115/134/76 
s off
f 116/135/63 119/138/63 115/134/63 112/131/63 
s 1
f 120/139/82 108/127/70 109/128/71 121/140/83 
s off
f 122/141/84 121/140/84 109/128/84 110/129/84 
s 1
f 123/142/85 122/141/86 110/129/73 111/130/72 
s off
f 123/142/87 111/130/87 108/127/87 120/139/87 
s 1
f 124/143/88 120/139/82 121/140/83 125/144/89 
s off
f 125/144/90 121/140/90 122/141/90 126/145/90 
s 1
f 127/146/91 126/145/92 122/141/86 123/142/85 
s off
f 124/143/93 127/146/93 123/142/93 120/139/93 
s 1
f 127/146/91 116/135/78 117/136/79 126/145/92 
s off
f 126/145/59 117/136/59 118/137/59 125/144/59 
s 1
f 124/143/88 125/144/89 118/137/81 119/138/80 
s off
f 127/146/63 124/143/63 119/138/63 116/135/63 
s 1
f 43/58/18 99/118/94 82/100/95 40/55/15 
f 45/60/20 95/114/96 99/118/94 43/58/18 
f 47/62/22 94/113/97 95/114/96 45/60/20 
f 49/64/24 93/112/98 94/113/97 47/62/22 
f 51/66/26 92/111/99 93/112/98 49/64/24 
f 53/68/28 91/110/100 92/111/99 51/66/26 
f 55/70/30 90/109/101 91/110/100 53/68/28 
f 57/72/32 89/108/102 90/109/101 55/70/30 
f 59/74/34 88/107/103 89/108/102 57/72/32 
f 61/76/36 87/106/104 88/107/103 59/74/34 
f 63/78/38 86/105/105 87/106/104 61/76/36 
f 65/80/40 81/104/106 86/105/105 63/78/38 
f 40/55/15 82/100/95 81/99/106 65/82/40 
s off
f 128/147/14 32/39/14 31/37/14 
f 128/147/14 33/41/14 32/39/14 
f 39/53/14 38/51/14 128/147/14 
f 128/147/14 27/31/14 39/53/14 
f 128/147/14 28/32/14 27/31/14 
f 128/147/14 29/33/14 28/32/14 
f 128/147/14 30/35/14 29/33/14 
f 128/147/14 31/37/14 30/35/14 
f 128/147/14 34/43/14 33/41/14 
f 128/147/14 35/45/14 34/43/14 
f 128/147/14 36/47/14 35/45/14 
f 128/147/14 37/49/14 36/47/14 
f 128/147/14 38/51/14 37/49/14 
f 75/148/107 74/149/107 129/150/107 
f 68/151/107 67/152/107 129/150/107 
f 129/150/107 69/153/107 68/151/107 
f 129/150/107 70/154/107 69/153/107 
f 129/150/107 71/155/107 70/154/107 
f 129/150/107 72/156/107 71/155/107 
f 129/150/107 73/157/107 72/156/107 
f 129/150/107 74/149/107 73/157/107 
f 129/150/107 76/158/107 75/148/107 
f 129/150/107 77/159/107 76/158/107 
f 129/150/107 78/160/107 77/159/107 
f 129/150/107 66/161/107 78/160/107 
f 129/150/107 67/152/107 66/161/107 
# 116 polygons - 26 triangles

