# 3ds Max Wavefront OBJ Exporter v0.97b - (c)2007 guruware
# File Created: 05.04.2018 09:14:33

mtllib glovel.mtl

#
# object Cone002
#

v  -16.2008 -13.2555 9.7349
v  -0.0400 -11.2062 9.7356
v  0.0549 -14.6912 19.8743
v  -13.4797 -15.1839 19.4517
v  -31.1826 -11.3198 9.7119
v  -23.9226 -12.4246 21.3745
v  -33.8428 -1.6424 19.3829
v  -36.4351 0.1452 9.7523
v  -33.0524 8.9138 22.2441
v  -34.3201 11.8013 8.3230
v  -23.3620 18.4819 24.1041
v  -24.3518 23.2475 8.3350
v  -8.4702 25.0187 25.4454
v  -8.8139 30.0073 9.7832
v  8.3763 24.7663 25.9211
v  8.7339 30.0073 9.7813
v  23.3539 18.8121 24.3740
v  24.2717 23.2459 9.7720
v  32.8539 8.3062 23.8763
v  19.3054 8.0375 36.2556
v  27.2414 2.2074 32.1199
v  33.5034 -2.7935 20.3120
v  28.9489 -7.4056 25.2424
v  28.5794 -8.2104 9.7359
v  36.3551 -0.6364 9.7437
v  16.1208 -11.7104 9.7333
v  24.0202 -12.6471 21.4621
v  13.5926 -15.3096 19.5011
v  -15.0380 -16.8159 -15.2458
v  -0.0426 -19.8805 -15.2508
v  -23.0623 -12.7637 -14.4366
v  -49.0121 -16.4241 11.4351
v  -44.5414 -19.6452 9.6178
v  -37.6784 -15.9283 10.0199
v  -41.0083 -12.0306 15.0467
v  7.6795 26.4975 -15.1990
v  -7.7647 26.4975 -15.1974
v  21.3546 20.5466 -15.2072
v  30.1279 10.0080 -15.2201
v  34.2400 11.2719 9.7574
v  31.9895 -2.7039 -15.2347
v  26.5129 -11.4727 -15.2441
v  14.9528 -16.8160 -15.2489
v  -9.8221 -14.9029 -34.8752
v  -0.0447 -16.9011 -34.8785
v  -17.3596 -9.3663 -34.8681
v  -50.0106 -14.2215 -1.5539
v  4.9903 17.4806 -34.8401
v  -5.0797 17.4806 -34.8390
v  13.9069 13.6004 -34.8454
v  19.6273 6.7290 -34.8538
v  20.8411 -1.5595 -34.8633
v  17.2702 -9.3663 -34.8718
v  9.7327 -14.9029 -34.8773
v  -9.6562 -14.6088 -59.5185
v  -0.0473 -16.5725 -59.5217
v  -17.0638 -9.1676 -59.5115
v  -20.5732 -1.4953 -59.5025
v  -20.9305 -1.5595 -34.8589
v  -19.3803 6.6504 -59.4934
v  -19.7167 6.7290 -34.8496
v  -13.7584 13.4034 -59.4863
v  -13.9962 13.6004 -34.8425
v  -4.9955 17.2167 -59.4829
v  4.9010 17.2167 -59.4839
v  13.6639 13.4034 -59.4892
v  19.2858 6.6504 -59.4974
v  20.4786 -1.4953 -59.5068
v  16.9693 -9.1676 -59.5151
v  9.5616 -14.6088 -59.5205
v  -8.4213 -12.6540 -62.5238
v  -0.0476 -14.3653 -62.5266
v  -14.8767 -7.9123 -62.5178
v  -17.9349 -1.2262 -62.5099
v  -16.8954 5.8723 -62.5019
v  -11.9962 11.7572 -62.4958
v  -4.3597 15.0803 -62.4928
v  4.2646 15.0803 -62.4937
v  11.9010 11.7572 -62.4983
v  16.8002 5.8723 -62.5055
v  17.8397 -1.2262 -62.5136
v  14.7815 -7.9123 -62.5209
v  8.3261 -12.6540 -62.5256
v  -7.5501 -18.3099 36.8815
v  -6.2700 -20.2114 33.0961
v  -3.1151 -20.2118 32.7992
v  5.5462 -20.0858 33.4030
v  0.0108 -20.4596 32.9289
v  3.1368 -20.2704 32.8281
v  1.7514 -16.2056 41.5915
v  7.0044 -17.4081 39.1584
v  7.4402 -18.3234 36.8862
v  4.9514 -17.1783 40.5280
v  -5.0621 -17.1692 40.5249
v  -1.8623 -16.2023 41.5903
v  -7.1148 -17.3954 39.1540
v  0.1399 -17.2984 25.5852
v  -7.4053 -17.5237 25.8911
v  7.6856 -17.5671 25.9251
v  13.5018 -16.3822 27.6910
v  18.0704 -13.8733 33.6709
v  17.0198 -9.1430 39.0231
v  12.0651 -6.2907 42.2524
v  4.3417 -4.0777 44.7597
v  6.9483 12.5913 39.4541
v  -4.3813 -4.0794 44.7618
v  -6.9929 12.6560 39.4286
v  -12.1054 -6.2955 42.2582
v  -19.3246 8.2168 36.1850
v  -17.0611 -9.1497 39.0313
v  -27.2278 2.4601 32.0204
v  -18.1134 -13.8804 33.6796
v  -28.8811 -7.1373 25.1367
v  -15.0204 -16.8338 27.0307
v  -51.0269 -3.2960 -1.5171
v  -51.8134 -6.4243 11.1308
v  -51.0749 -0.5186 10.2124
v  -20.5605 21.9441 -14.3377
v  -43.6493 -1.8610 14.3103
v  -28.0225 -2.2860 -25.2461
v  -25.8626 7.5306 -25.4501
v  -26.0107 -10.2848 -14.1928
v  -34.5284 -1.0966 3.0372
v  -30.8057 -7.5868 2.2562
v  -29.9244 15.8835 -13.0357
v  -31.3580 12.6759 -2.6132
v  -39.6215 -8.8359 -17.8249
v  -42.6027 2.3526 -15.3507
v  -35.9398 -13.2502 -7.1101
v  -35.7444 -12.8547 5.9005
v  -38.1201 -8.4148 6.3447
v  -39.7401 2.3337 4.4793
v  -41.3132 5.8746 -4.8754
v  -35.2333 7.5125 3.1099
# 134 vertices

vn -0.0426 -0.9975 -0.0571
vn 0.0162 -0.9994 -0.0316
vn 0.0136 -0.9342 -0.3565
vn -0.1205 -0.9799 -0.1593
vn -0.6515 -0.7586 0.0005
vn -0.4519 -0.8753 0.1724
vn -0.9147 -0.2385 0.3263
vn -0.9921 -0.1218 -0.0315
vn -0.8523 0.3384 0.3989
vn -0.8924 0.4509 0.0196
vn -0.5475 0.7017 0.4560
vn -0.5890 0.8064 0.0528
vn -0.1987 0.8521 0.4842
vn -0.2045 0.9753 0.0839
vn 0.1865 0.8494 0.4937
vn 0.2022 0.9761 0.0804
vn 0.5417 0.7047 0.4583
vn 0.5935 0.8027 0.0588
vn 0.8500 0.3080 0.4273
vn 0.4774 0.3633 0.8001
vn 0.7173 0.0251 0.6963
vn 0.8870 -0.3805 0.2618
vn 0.7731 -0.5335 0.3431
vn 0.5561 -0.8310 0.0097
vn 0.9650 -0.2617 0.0142
vn 0.1614 -0.9862 -0.0365
vn 0.5018 -0.8647 -0.0224
vn 0.1378 -0.9564 -0.2575
vn -0.3191 -0.9476 -0.0153
vn -0.0190 -0.9976 0.0673
vn -0.5321 -0.8274 -0.1797
vn -0.6135 -0.5616 0.5552
vn -0.0271 -0.9341 0.3561
vn 0.7082 -0.5557 0.4355
vn 0.3593 -0.1523 0.9207
vn 0.1962 0.9380 -0.2857
vn -0.1799 0.9409 -0.2870
vn 0.5737 0.7613 -0.3022
vn 0.8646 0.3844 -0.3235
vn 0.9019 0.4318 0.0071
vn 0.9313 -0.1972 -0.3063
vn 0.6527 -0.7389 -0.1671
vn 0.3050 -0.9523 -0.0111
vn -0.3731 -0.9086 -0.1877
vn -0.0000 -0.9887 -0.1501
vn -0.7270 -0.6259 -0.2824
vn -0.7249 -0.5877 -0.3593
vn 0.1793 0.8845 -0.4306
vn -0.1793 0.8845 -0.4306
vn 0.5250 0.7200 -0.4538
vn 0.7940 0.3656 -0.4857
vn 0.8595 -0.1259 -0.4955
vn 0.6783 -0.6132 -0.4048
vn 0.3412 -0.9149 -0.2156
vn -0.3890 -0.8661 -0.3140
vn -0.0000 -0.9518 -0.3067
vn -0.0000 -0.9999 -0.0133
vn -0.4057 -0.9139 -0.0136
vn -0.7358 -0.5914 -0.3301
vn -0.7758 -0.6309 -0.0144
vn -0.9310 -0.1310 -0.3408
vn -0.9899 -0.1412 -0.0147
vn -0.8615 0.3804 -0.3362
vn -0.9132 0.4073 -0.0138
vn -0.5726 0.7548 -0.3200
vn -0.6002 0.7997 -0.0122
vn -0.1962 0.9314 -0.3065
vn -0.2039 0.9789 -0.0112
vn 0.1961 0.9314 -0.3065
vn 0.2039 0.9789 -0.0112
vn 0.5726 0.7548 -0.3201
vn 0.6002 0.7997 -0.0123
vn 0.8615 0.3804 -0.3363
vn 0.9132 0.4073 -0.0140
vn 0.9309 -0.1310 -0.3410
vn 0.9899 -0.1412 -0.0149
vn 0.7357 -0.5914 -0.3302
vn 0.7758 -0.6309 -0.0146
vn 0.3890 -0.8661 -0.3141
vn 0.4057 -0.9139 -0.0137
vn -0.1931 -0.4508 -0.8715
vn -0.0001 -0.4949 -0.8689
vn -0.3661 -0.3091 -0.8777
vn -0.4652 -0.0682 -0.8826
vn -0.4297 0.2009 -0.8803
vn -0.2844 0.3951 -0.8735
vn -0.0974 0.4860 -0.8685
vn 0.0972 0.4860 -0.8685
vn 0.2843 0.3951 -0.8735
vn 0.4296 0.2009 -0.8804
vn 0.4650 -0.0682 -0.8827
vn 0.3659 -0.3091 -0.8778
vn 0.1929 -0.4508 -0.8715
vn -0.3002 -0.8661 0.3997
vn -0.1429 -0.9887 0.0464
vn -0.0407 -0.9985 0.0380
vn 0.2091 -0.9728 0.0996
vn -0.0364 -0.9092 0.4148
vn 0.0634 -0.9843 -0.1649
vn 0.0598 -0.6189 0.7832
vn 0.2918 -0.7748 0.5609
vn 0.3357 -0.8851 0.3222
vn -0.0549 -0.9233 0.3802
vn -0.1568 -0.7301 0.6651
vn -0.0650 -0.4968 0.8654
vn -0.3984 -0.7187 0.5699
vn 0.0080 -0.9178 -0.3969
vn -0.0704 -0.9429 -0.3255
vn 0.0985 -0.9486 -0.3006
vn 0.3323 -0.9425 -0.0344
vn 0.5595 -0.7372 0.3788
vn 0.5705 -0.3184 0.7571
vn 0.3810 -0.0867 0.9205
vn 0.1478 0.0188 0.9888
vn 0.1818 0.5194 0.8350
vn -0.1526 0.0223 0.9880
vn -0.1868 0.5210 0.8328
vn -0.3884 -0.0831 0.9177
vn -0.4846 0.3690 0.7931
vn -0.5871 -0.3145 0.7459
vn -0.7268 0.0390 0.6858
vn -0.6075 -0.6843 0.4032
vn -0.7508 -0.5036 0.4273
vn -0.3493 -0.9262 -0.1420
vn -0.9244 0.2615 -0.2778
vn -0.8465 -0.0269 0.5318
vn -0.6825 0.6046 0.4107
vn -0.5282 0.7179 -0.4535
vn -0.4928 0.8194 -0.2930
vn 0.2247 0.4809 0.8475
vn -0.8423 -0.2126 -0.4953
vn -0.6160 -0.3454 -0.7080
vn -0.6680 0.4179 -0.6158
vn -0.7642 0.3850 -0.5174
vn -0.4080 -0.8402 -0.3573
vn -0.5188 -0.0924 0.8499
vn -0.4593 -0.7850 0.4158
vn -0.5880 0.7789 -0.2180
vn -0.6840 0.7289 0.0279
vn -0.3803 -0.5702 -0.7282
vn -0.7555 0.3519 -0.5526
vn 0.1664 -0.9552 -0.2447
vn 0.8823 -0.2437 0.4026
vn 0.7115 0.2575 0.6538
vn 0.1398 0.6680 0.7309
vn -0.6339 0.7718 0.0503
vn -0.8551 0.4134 0.3128
# 147 vertex normals

vt 0.8269 0.2000 0.0000
vt 0.7500 0.2000 0.0000
vt 0.7500 0.0000 0.0000
vt 0.8269 0.0000 0.0000
vt 0.9038 0.2000 0.0000
vt 0.9038 0.0000 0.0000
vt 0.9808 0.1593 0.0000
vt 0.9808 0.2000 0.0000
vt 1.0577 0.1317 0.0000
vt 1.0577 0.2000 0.0000
vt 0.1240 0.2265 0.0000
vt 0.0577 0.1317 0.0000
vt 0.1346 0.1249 0.0000
vt 0.1346 0.2000 0.0000
vt 0.2115 0.1280 0.0000
vt 0.2115 0.2000 0.0000
vt 0.2885 0.1243 0.0000
vt 0.2885 0.2000 0.0000
vt 0.3654 0.1301 0.0000
vt 0.3654 0.2000 0.0000
vt 0.4423 0.1252 0.0000
vt 0.3654 0.0000 0.0000
vt 0.4423 0.0000 0.0000
vt 0.5192 0.1460 0.0000
vt 0.5192 0.0000 0.0000
vt 0.5962 0.2000 0.0000
vt 0.5192 0.2000 0.0000
vt 0.6731 0.2000 0.0000
vt 0.5962 0.0000 0.0000
vt 0.6731 0.0000 0.0000
vt 0.8269 0.4000 0.0000
vt 0.7500 0.4000 0.0000
vt 0.9038 0.4000 0.0000
vt 0.9808 0.4000 0.0000
vt 0.9356 0.4000 0.0000
vt 0.9351 0.2921 0.0000
vt 0.9808 0.2868 0.0000
vt 0.2885 0.4000 0.0000
vt 0.2115 0.4000 0.0000
vt 0.3654 0.4000 0.0000
vt 0.4423 0.4000 0.0000
vt 0.4423 0.2000 0.0000
vt 0.5192 0.4000 0.0000
vt 0.5962 0.4000 0.0000
vt 0.6731 0.4000 0.0000
vt 0.8269 0.6000 0.0000
vt 0.7500 0.6000 0.0000
vt 0.9038 0.6000 0.0000
vt 0.9808 0.4971 0.0000
vt 0.2885 0.6000 0.0000
vt 0.2115 0.6000 0.0000
vt 0.3654 0.6000 0.0000
vt 0.4423 0.6000 0.0000
vt 0.5192 0.6000 0.0000
vt 0.5962 0.6000 0.0000
vt 0.6731 0.6000 0.0000
vt 0.8269 0.8000 0.0000
vt 0.7500 0.8000 0.0000
vt 0.9038 0.8000 0.0000
vt 0.9808 0.8000 0.0000
vt 0.9808 0.6000 0.0000
vt 1.0577 0.8000 0.0000
vt 1.0577 0.6000 0.0000
vt 0.1346 0.8000 0.0000
vt 0.0577 0.8000 0.0000
vt 0.0577 0.6000 0.0000
vt 0.1346 0.6000 0.0000
vt 0.2115 0.8000 0.0000
vt 0.2885 0.8000 0.0000
vt 0.3654 0.8000 0.0000
vt 0.4423 0.8000 0.0000
vt 0.5192 0.8000 0.0000
vt 0.5962 0.8000 0.0000
vt 0.6731 0.8000 0.0000
vt 0.8269 1.0000 0.0000
vt 0.7500 1.0000 0.0000
vt 0.9038 1.0000 0.0000
vt 0.9808 1.0000 0.0000
vt 1.0577 1.0000 0.0000
vt 0.1346 1.0000 0.0000
vt 0.0577 1.0000 0.0000
vt 0.2115 1.0000 0.0000
vt 0.2885 1.0000 0.0000
vt 0.3654 1.0000 0.0000
vt 0.4423 1.0000 0.0000
vt 0.5192 1.0000 0.0000
vt 0.5962 1.0000 0.0000
vt 0.6731 1.0000 0.0000
vt 0.0036 0.5603 0.0000
vt 0.0885 0.7840 0.0000
vt 0.2676 0.9427 0.0000
vt 0.9115 0.7840 0.0000
vt 0.5000 1.0000 0.0000
vt 0.7324 0.9427 0.0000
vt 0.6197 0.0145 0.0000
vt 0.9675 0.3227 0.0000
vt 0.9964 0.5603 0.0000
vt 0.8316 0.1257 0.0000
vt 0.1684 0.1257 0.0000
vt 0.3803 0.0145 0.0000
vt 0.0325 0.3227 0.0000
vt 0.7173 0.4176 0.0000
vt 0.7307 0.5280 0.0000
vt 0.6912 0.6320 0.0000
vt 0.3920 0.7058 0.0000
vt 0.6080 0.7058 0.0000
vt 0.5000 0.7324 0.0000
vt 0.3459 0.3261 0.0000
vt 0.2693 0.5280 0.0000
vt 0.3088 0.6320 0.0000
vt 0.2827 0.4176 0.0000
vt 0.5556 0.2744 0.0000
vt 0.4444 0.2744 0.0000
vt 0.6541 0.3261 0.0000
vt 0.8619 0.5217 0.0000
vt 0.6907 0.4532 0.0000
vt 0.5461 0.4509 0.0000
vt 0.2115 0.4496 0.0000
vt 0.1346 0.4443 0.0000
vt 0.3277 0.3080 0.0000
vt 0.3955 0.5217 0.0000
vt 0.5872 0.2996 0.0000
vt 0.3960 0.3527 0.0000
vt 0.3805 0.3425 0.0000
vt 0.3489 0.3219 0.0000
vt 0.9808 0.0000 0.0000
vt 1.0577 0.0000 0.0000
vt 0.1346 0.0000 0.0000
vt 0.0577 0.0000 0.0000
vt 0.2115 0.0000 0.0000
vt 0.2885 0.0000 0.0000
vt 0.0526 0.1591 0.0000
vt 0.4005 -0.1025 0.0000
vt 0.7250 0.3080 0.0000
# 134 texture coords

g Cone002
usemtl wire_145028177
s off
f 1/1/1 2/2/2 3/3/3 4/4/4 
f 5/5/5 1/1/1 4/4/4 6/6/6 
f 7/7/7 8/8/8 5/5/5 
f 8/8/8 7/7/7 9/9/9 10/10/10 
f 10/11/10 9/12/9 11/13/11 12/14/12 
f 12/14/12 11/13/11 13/15/13 14/16/14 
f 13/15/13 15/17/15 16/18/16 14/16/14 
f 15/17/15 17/19/17 18/20/18 16/18/16 
f 19/21/19 17/19/17 20/22/20 21/23/21 
f 22/24/22 19/21/19 21/23/21 23/25/23 
f 24/26/24 25/27/25 22/24/22 
f 26/28/26 24/26/24 27/29/27 28/30/28 
f 2/2/2 26/28/26 28/30/28 3/3/3 
f 29/31/29 30/32/30 2/2/2 1/1/1 
f 31/33/31 29/31/29 1/1/1 5/5/5 
f 32/34/32 33/35/33 34/36/34 35/37/35 
f 36/38/36 37/39/37 14/16/14 16/18/16 
f 38/40/38 36/38/36 16/18/16 18/20/18 
f 39/41/39 38/40/38 18/20/18 40/42/40 
f 41/43/41 39/41/39 40/42/40 25/27/25 
f 42/44/42 41/43/41 25/27/25 24/26/24 
f 43/45/43 42/44/42 24/26/24 26/28/26 
f 30/32/30 43/45/43 26/28/26 2/2/2 
f 44/46/44 45/47/45 30/32/30 29/31/29 
f 46/48/46 44/46/44 29/31/29 31/33/31 
f 33/35/33 32/34/32 47/49/47 
f 48/50/48 49/51/49 37/39/37 36/38/36 
f 50/52/50 48/50/48 36/38/36 38/40/38 
f 51/53/51 50/52/50 38/40/38 39/41/39 
f 52/54/52 51/53/51 39/41/39 41/43/41 
f 53/55/53 52/54/52 41/43/41 42/44/42 
f 54/56/54 53/55/53 42/44/42 43/45/43 
f 45/47/45 54/56/54 43/45/43 30/32/30 
f 55/57/55 56/58/56 45/47/57 44/46/58 
f 57/59/59 55/57/55 44/46/58 46/48/60 
f 58/60/61 57/59/59 46/48/60 59/61/62 
f 60/62/63 58/60/61 59/61/62 61/63/64 
f 62/64/65 60/65/63 61/66/64 63/67/66 
f 64/68/67 62/64/65 63/67/66 49/51/68 
f 65/69/69 64/68/67 49/51/68 48/50/70 
f 66/70/71 65/69/69 48/50/70 50/52/72 
f 67/71/73 66/70/71 50/52/72 51/53/74 
f 68/72/75 67/71/73 51/53/74 52/54/76 
f 69/73/77 68/72/75 52/54/76 53/55/78 
f 70/74/79 69/73/77 53/55/78 54/56/80 
f 56/58/56 70/74/79 54/56/80 45/47/57 
f 71/75/81 72/76/82 56/58/56 55/57/55 
f 73/77/83 71/75/81 55/57/55 57/59/59 
f 74/78/84 73/77/83 57/59/59 58/60/61 
f 75/79/85 74/78/84 58/60/61 60/62/63 
f 76/80/86 75/81/85 60/65/63 62/64/65 
f 77/82/87 76/80/86 62/64/65 64/68/67 
f 78/83/88 77/82/87 64/68/67 65/69/69 
f 79/84/89 78/83/88 65/69/69 66/70/71 
f 80/85/90 79/84/89 66/70/71 67/71/73 
f 81/86/91 80/85/90 67/71/73 68/72/75 
f 82/87/92 81/86/91 68/72/75 69/73/77 
f 83/88/93 82/87/92 69/73/77 70/74/79 
f 72/76/82 83/88/93 70/74/79 56/58/56 
f 84/89/94 85/90/95 86/91/96 87/92/97 
f 87/92/97 86/91/96 88/93/98 89/94/99 
f 90/95/100 84/89/94 87/92/97 91/96/101 
f 87/92/97 92/97/102 91/96/101 
f 91/96/101 93/98/103 90/95/100 
f 94/99/104 84/89/94 90/95/100 95/100/105 
f 84/89/94 94/99/104 96/101/106 
f 80/102/90 81/103/91 82/104/92 71/105/81 
f 71/105/81 82/104/92 83/106/93 72/107/82 
f 76/108/86 80/102/90 71/105/81 74/109/84 
f 71/105/81 73/110/83 74/109/84 
f 74/109/84 75/111/85 76/108/86 
f 78/112/88 80/102/90 76/108/86 77/113/87 
f 80/102/90 78/112/88 79/114/89 
f 97/93/107 98/91/108 4/91/4 3/93/3 
f 99/94/109 97/93/107 3/93/3 28/94/28 
f 100/92/110 99/94/109 28/94/28 27/92/27 
f 101/97/111 100/92/110 27/92/27 23/97/23 
f 102/96/112 101/97/111 23/97/23 21/96/21 
f 103/98/113 102/96/112 21/96/21 20/98/20 
f 104/95/114 103/98/113 20/98/20 105/95/115 
f 106/100/116 104/95/114 105/95/115 107/100/117 
f 108/99/118 106/100/116 107/100/117 109/99/119 
f 110/101/120 108/99/118 109/99/119 111/101/121 
f 112/89/122 110/101/120 111/101/121 113/89/123 
f 114/90/124 112/89/122 113/89/123 6/90/6 
f 98/91/108 114/90/124 6/90/6 4/91/4 
f 115/115/125 116/116/126 117/117/127 
f 37/118/37 49/51/49 63/67/128 118/119/129 
f 116/116/126 119/120/130 117/117/127 
f 37/118/37 118/119/129 12/14/12 14/16/14 
f 32/34/32 35/37/35 119/120/130 116/116/126 
f 47/49/47 32/34/32 116/116/126 115/121/125 
f 59/61/131 120/49/132 121/121/133 61/66/134 
f 59/61/131 46/48/46 31/33/31 120/49/132 
f 31/33/31 122/35/135 120/49/132 
f 8/8/8 123/37/136 124/36/137 5/5/5 
f 123/37/136 8/8/8 10/122/10 
f 118/119/129 125/117/138 126/123/139 
f 118/119/129 63/67/128 61/63/134 121/115/133 
f 118/119/129 121/115/133 125/117/138 
f 127/49/140 128/121/141 121/121/133 120/49/132 
f 129/35/142 127/49/140 120/49/132 122/35/135 
f 130/36/143 129/35/142 122/35/135 124/36/137 
f 131/37/144 130/36/143 124/36/137 123/37/136 
f 123/37/136 132/120/145 131/37/144 
f 133/117/146 132/124/145 134/125/147 126/123/139 
f 133/117/146 126/123/139 125/117/138 
f 128/115/141 133/117/146 125/117/138 121/115/133 
f 47/49/47 115/121/125 128/121/141 127/49/140 
f 33/35/33 47/49/47 127/49/140 129/35/142 
f 34/36/34 33/35/33 129/35/142 130/36/143 
f 35/37/35 34/36/34 130/36/143 131/37/144 
f 119/120/130 35/37/35 131/37/144 132/120/145 
f 117/117/127 119/120/130 132/120/145 133/117/146 
f 115/115/125 117/117/127 133/117/146 128/115/141 
f 113/126/123 7/7/7 5/5/5 6/6/6 
f 111/127/121 9/9/9 7/7/7 113/126/123 
f 109/128/119 11/13/11 9/12/9 111/129/121 
f 107/130/117 13/15/13 11/13/11 109/128/119 
f 15/17/15 13/15/13 107/130/117 105/131/115 
f 17/19/17 15/17/15 105/131/115 20/22/20 
f 24/26/24 22/24/22 23/25/23 27/29/27 
f 19/21/19 22/24/22 25/27/25 40/42/40 
f 17/19/17 19/21/19 40/42/40 18/20/18 
f 88/93/98 86/91/96 98/91/108 97/93/107 
f 89/94/99 88/93/98 97/93/107 99/94/109 
f 87/92/97 89/94/99 99/94/109 100/92/110 
f 92/97/102 87/92/97 100/92/110 101/97/111 
f 91/96/101 92/97/102 101/97/111 102/96/112 
f 93/98/103 91/96/101 102/96/112 103/98/113 
f 90/95/100 93/98/103 103/98/113 104/95/114 
f 95/100/105 90/95/100 104/95/114 106/100/116 
f 94/99/104 95/100/105 106/100/116 108/99/118 
f 96/101/106 94/99/104 108/99/118 110/101/120 
f 84/89/94 96/101/106 110/101/120 112/89/122 
f 85/90/95 84/89/94 112/89/122 114/90/124 
f 86/91/96 85/90/95 114/90/124 98/91/108 
f 123/37/136 10/122/10 134/120/147 
f 126/132/139 134/133/147 10/134/10 
f 10/11/10 12/14/12 118/119/129 126/123/139 
f 134/120/147 132/120/145 123/37/136 
f 122/35/135 31/33/31 5/5/5 124/36/137 
# 122 polygons - 20 triangles

