# 3ds Max Wavefront OBJ Exporter v0.97b - (c)2007 guruware
# File Created: 21.03.2018 15:25:26

mtllib gloveL.mtl

#
# object Line001
#

#
# object Cone002
#

v  16.8090 -19.7655 -38.7695
v  -7.2257 -16.7177 -38.7696
v  -7.3652 -21.8836 -53.8541
v  12.7637 -22.6172 -53.2241
v  39.0903 -16.8868 -38.7296
v  28.2949 -18.5102 -56.0776
v  43.0481 -2.4779 -53.0959
v  46.9019 0.1643 -38.7695
v  41.8731 13.2262 -57.3334
v  43.7562 17.4970 -36.6246
v  27.4616 27.4593 -60.0850
v  28.9312 34.5202 -36.6246
v  5.3143 37.1831 -62.0711
v  5.8230 44.5760 -38.7695
v  -19.7400 36.8086 -62.7816
v  -20.2744 44.5760 -38.7695
v  -42.0153 27.9508 -60.4932
v  -43.3826 34.5202 -38.7696
v  -56.1440 12.3254 -59.7723
v  -35.9925 11.9467 -78.1813
v  -47.7956 3.2689 -72.0418
v  -57.1106 -4.1883 -54.4902
v  -50.3363 -11.0393 -61.8297
v  -49.7891 -12.2624 -38.7696
v  -61.3534 -0.9981 -38.7696
v  -31.2604 -17.4676 -38.7696
v  -43.0067 -18.8409 -56.2158
v  -27.4989 -22.8039 -53.3022
v  15.0758 -25.1028 -1.6239
v  -7.2257 -29.6604 -1.6239
v  27.0099 -19.0749 -2.8192
v  65.6069 -24.4751 -41.2982
v  58.9578 -29.2687 -38.6017
v  48.7510 -23.7400 -39.1945
v  53.7041 -17.9350 -46.6634
v  -18.7102 39.3139 -1.6239
v  4.2588 39.3139 -1.6239
v  -39.0482 30.4636 -1.6239
v  -52.0960 14.7904 -1.6239
v  -58.2077 16.7122 -38.7696
v  -54.8646 -4.1150 -1.6239
v  -46.7197 -17.1563 -1.6239
v  -29.5272 -25.1028 -1.6239
v  7.3154 -22.2908 27.5718
v  -7.2257 -25.2625 27.5718
v  18.5254 -14.0566 27.5718
v  67.0900 -21.2213 -21.9768
v  -14.7139 25.8707 27.5718
v  0.2624 25.8707 27.5718
v  -27.9748 20.1000 27.5718
v  -36.4823 9.8807 27.5718
v  -38.2875 -2.4461 27.5718
v  -32.9768 -14.0566 27.5718
v  -21.7669 -22.2908 27.5718
v  7.0649 -21.8950 64.2223
v  -7.2257 -24.8155 64.2223
v  18.0817 -13.8026 64.2223
v  23.3009 -2.3922 64.2223
v  23.8361 -2.4461 27.5718
v  21.5268 9.7222 64.2223
v  22.0309 9.8807 27.5718
v  13.1658 19.7654 64.2223
v  13.5233 20.1000 27.5718
v  0.1334 25.4367 64.2223
v  -14.5849 25.4367 64.2223
v  -27.6173 19.7654 64.2223
v  -35.9783 9.7222 64.2223
v  -37.7523 -2.3922 64.2223
v  -32.5332 -13.8026 64.2223
v  -21.5163 -21.8950 64.2223
v  5.2278 -18.9929 68.6950
v  -7.2257 -21.5379 68.6950
v  14.8284 -11.9408 68.6950
v  19.3767 -1.9972 68.6950
v  17.8306 8.5600 68.6950
v  10.5445 17.3121 68.6950
v  -0.8126 22.2543 68.6950
v  -13.6389 22.2543 68.6950
v  -24.9960 17.3121 68.6950
v  -32.2821 8.5600 68.6950
v  -33.8281 -1.9972 68.6950
v  -29.2799 -11.9408 68.6950
v  -19.6793 -18.9929 68.6950
v  3.9478 -27.2368 -79.1523
v  2.0434 -30.0711 -73.5260
v  -2.6487 -30.0721 -73.0850
v  -15.5299 -29.8838 -73.9841
v  -7.2976 -30.4405 -73.2788
v  -11.9467 -30.1593 -73.1291
v  -9.8849 -24.0993 -86.1550
v  -17.6976 -25.8918 -82.5395
v  -18.3461 -27.2569 -79.1617
v  -14.6441 -25.5476 -84.5757
v  0.2481 -25.5342 -84.5694
v  -4.5105 -24.0944 -86.1528
v  3.3007 -25.8728 -82.5306
v  -7.4908 -25.7515 -62.3518
v  3.7307 -26.0861 -62.8060
v  -18.7128 -26.1505 -62.8590
v  -27.3626 -24.3854 -65.4841
v  -34.1561 -20.6440 -74.3741
v  -32.5927 -13.5999 -82.3259
v  -25.2235 -9.3525 -87.1229
v  -13.7367 -6.0571 -90.8469
v  -17.6143 18.7245 -82.9286
v  -0.7638 -6.0596 -90.8486
v  3.1195 18.8207 -82.8884
v  10.7234 -9.3596 -87.1277
v  21.4590 12.2131 -78.0700
v  18.0932 -13.6099 -82.3326
v  33.2121 3.6446 -71.8847
v  19.6573 -20.6546 -74.3813
v  35.6699 -10.6404 -61.6630
v  15.0562 -25.0581 -64.4984
v  68.6015 -4.9725 -22.0130
v  69.7731 -9.6036 -40.8284
v  68.6747 -0.8221 -39.4526
v  23.2890 32.5435 -2.9082
v  57.6319 -2.8116 -45.5507
v  34.3850 -3.5104 13.2754
v  31.1727 11.0887 13.5950
v  31.3948 -15.3878 -3.1771
v  44.0652 -1.6939 -28.7852
v  38.5286 -11.3475 -27.6351
v  37.2155 23.5323 -4.8533
v  39.3492 18.7793 -20.3591
v  51.6365 -13.2390 2.2292
v  56.0705 3.4048 -1.4312
v  46.1627 -19.7861 -13.7141
v  45.8742 -19.1759 -33.0632
v  49.4074 -12.5721 -33.7159
v  51.8163 3.4102 -30.9232
v  54.1545 8.6605 -17.0045
v  45.1135 11.1100 -28.8786
# 134 vertices

vn 0.0426 -0.9975 0.0560
vn -0.0162 -0.9994 0.0304
vn -0.0136 -0.9346 0.3554
vn 0.1205 -0.9800 0.1582
vn 0.6515 -0.7586 -0.0013
vn 0.4519 -0.8751 -0.1733
vn 0.9147 -0.2381 -0.3265
vn 0.9920 -0.1218 0.0315
vn 0.8523 0.3389 -0.3984
vn 0.8924 0.4509 -0.0190
vn 0.5475 0.7022 -0.4551
vn 0.5890 0.8065 -0.0519
vn 0.1987 0.8527 -0.4832
vn 0.2045 0.9754 -0.0828
vn -0.1864 0.8500 -0.4927
vn -0.2021 0.9761 -0.0793
vn -0.5416 0.7052 -0.4575
vn -0.5935 0.8028 -0.0579
vn -0.8500 0.3084 -0.4271
vn -0.4774 0.3642 -0.7997
vn -0.7172 0.0259 -0.6964
vn -0.8869 -0.3802 -0.2623
vn -0.7731 -0.5331 -0.3438
vn -0.5561 -0.8310 -0.0107
vn -0.9650 -0.2617 -0.0146
vn -0.1614 -0.9863 0.0354
vn -0.5018 -0.8647 0.0214
vn -0.1379 -0.9567 0.2564
vn 0.3191 -0.9476 0.0142
vn 0.0190 -0.9975 -0.0684
vn 0.5321 -0.8276 0.1788
vn 0.6135 -0.5610 -0.5558
vn 0.0271 -0.9337 -0.3571
vn -0.7081 -0.5552 -0.4362
vn -0.3592 -0.1512 -0.9209
vn -0.1963 0.9377 0.2868
vn 0.1799 0.9406 0.2880
vn -0.5738 0.7609 0.3030
vn -0.8647 0.3840 0.3238
vn -0.9019 0.4318 -0.0067
vn -0.9313 -0.1976 0.3060
vn -0.6528 -0.7391 0.1662
vn -0.3050 -0.9523 0.0100
vn 0.3731 -0.9088 0.1867
vn -0.0000 -0.9888 0.1490
vn 0.7270 -0.6262 0.2817
vn 0.7248 -0.5881 0.3587
vn -0.1793 0.8841 0.4316
vn 0.1793 0.8841 0.4316
vn -0.5250 0.7195 0.4545
vn -0.7941 0.3650 0.4860
vn -0.8595 -0.1264 0.4952
vn -0.6783 -0.6136 0.4041
vn -0.3412 -0.9152 0.2145
vn 0.3890 -0.8664 0.3130
vn -0.0000 -0.9521 0.3056
vn -0.0000 -0.9999 0.0122
vn 0.4057 -0.9139 0.0126
vn 0.7357 -0.5917 0.3295
vn 0.7758 -0.6309 0.0138
vn 0.9309 -0.1313 0.3408
vn 0.9899 -0.1412 0.0147
vn 0.8615 0.3801 0.3367
vn 0.9132 0.4073 0.0143
vn 0.5726 0.7544 0.3209
vn 0.6002 0.7997 0.0132
vn 0.1961 0.9311 0.3076
vn 0.2039 0.9789 0.0123
vn -0.1961 0.9311 0.3076
vn -0.2039 0.9789 0.0123
vn -0.5726 0.7544 0.3209
vn -0.6002 0.7997 0.0132
vn -0.8615 0.3801 0.3367
vn -0.9132 0.4073 0.0143
vn -0.9309 -0.1313 0.3408
vn -0.9899 -0.1412 0.0147
vn -0.7357 -0.5917 0.3295
vn -0.7758 -0.6309 0.0138
vn -0.3890 -0.8664 0.3130
vn -0.4057 -0.9139 0.0126
vn 0.1930 -0.4518 0.8710
vn -0.0000 -0.4959 0.8684
vn 0.3660 -0.3101 0.8774
vn 0.4651 -0.0692 0.8825
vn 0.4296 0.1999 0.8806
vn 0.2843 0.3941 0.8740
vn 0.0973 0.4851 0.8691
vn -0.0973 0.4851 0.8691
vn -0.2843 0.3942 0.8740
vn -0.4297 0.1999 0.8806
vn -0.4651 -0.0692 0.8825
vn -0.3660 -0.3101 0.8774
vn -0.1930 -0.4518 0.8710
vn 0.3003 -0.8656 -0.4007
vn 0.1429 -0.9886 -0.0475
vn 0.0407 -0.9984 -0.0391
vn -0.2091 -0.9727 -0.1007
vn 0.0364 -0.9087 -0.4159
vn -0.0634 -0.9845 0.1638
vn -0.0597 -0.6180 -0.7839
vn -0.2918 -0.7741 -0.5618
vn -0.3357 -0.8848 -0.3233
vn 0.0549 -0.9228 -0.3812
vn 0.1568 -0.7294 -0.6659
vn 0.0651 -0.4958 -0.8660
vn 0.3985 -0.7181 -0.5706
vn -0.0081 -0.9183 0.3959
vn 0.0704 -0.9433 0.3245
vn -0.0986 -0.9490 0.2995
vn -0.3323 -0.9426 0.0333
vn -0.5595 -0.7368 -0.3797
vn -0.5704 -0.3175 -0.7575
vn -0.3809 -0.0856 -0.9206
vn -0.1477 0.0199 -0.9888
vn -0.1817 0.5203 -0.8344
vn 0.1527 0.0235 -0.9880
vn 0.1869 0.5220 -0.8322
vn 0.3885 -0.0821 -0.9178
vn 0.4847 0.3699 -0.7926
vn 0.5872 -0.3136 -0.7462
vn 0.7269 0.0397 -0.6856
vn 0.6076 -0.6839 -0.4039
vn 0.7509 -0.5031 -0.4278
vn 0.3493 -0.9264 0.1410
vn 0.9243 0.2612 0.2782
vn 0.8465 -0.0263 -0.5317
vn 0.6825 0.6051 -0.4099
vn 0.5281 0.7174 0.4544
vn 0.4927 0.8190 0.2940
vn -0.2246 0.4819 -0.8469
vn 0.8423 -0.2132 0.4951
vn 0.6159 -0.3462 0.7077
vn 0.6679 0.4172 0.6163
vn 0.7642 0.3845 0.5179
vn 0.4080 -0.8406 0.3563
vn 0.5189 -0.0915 -0.8499
vn 0.4594 -0.7845 -0.4166
vn 0.5880 0.7787 0.2190
vn 0.6840 0.7289 -0.0270
vn 0.3802 -0.5711 0.7276
vn 0.7555 0.3513 0.5531
vn -0.1664 -0.9555 0.2436
vn -0.8823 -0.2433 -0.4030
vn -0.7115 0.2583 -0.6535
vn -0.1398 0.6688 -0.7301
vn 0.6339 0.7718 -0.0494
vn 0.8552 0.4138 -0.3122
# 147 vertex normals

vt 0.8269 0.2000 0.0000
vt 0.7500 0.2000 0.0000
vt 0.7500 0.0000 0.0000
vt 0.8269 0.0000 0.0000
vt 0.9038 0.2000 0.0000
vt 0.9038 0.0000 0.0000
vt 0.9808 0.1593 0.0000
vt 0.9808 0.2000 0.0000
vt 1.0577 0.1317 0.0000
vt 1.0577 0.2000 0.0000
vt 0.1240 0.2265 0.0000
vt 0.0577 0.1317 0.0000
vt 0.1346 0.1249 0.0000
vt 0.1346 0.2000 0.0000
vt 0.2115 0.1280 0.0000
vt 0.2115 0.2000 0.0000
vt 0.2885 0.1243 0.0000
vt 0.2885 0.2000 0.0000
vt 0.3654 0.1301 0.0000
vt 0.3654 0.2000 0.0000
vt 0.4423 0.1252 0.0000
vt 0.3654 0.0000 0.0000
vt 0.4423 0.0000 0.0000
vt 0.5192 0.1460 0.0000
vt 0.5192 0.0000 0.0000
vt 0.5962 0.2000 0.0000
vt 0.5192 0.2000 0.0000
vt 0.6731 0.2000 0.0000
vt 0.5962 0.0000 0.0000
vt 0.6731 0.0000 0.0000
vt 0.8269 0.4000 0.0000
vt 0.7500 0.4000 0.0000
vt 0.9038 0.4000 0.0000
vt 0.9808 0.4000 0.0000
vt 0.9356 0.4000 0.0000
vt 0.9351 0.2921 0.0000
vt 0.9808 0.2868 0.0000
vt 0.2885 0.4000 0.0000
vt 0.2115 0.4000 0.0000
vt 0.3654 0.4000 0.0000
vt 0.4423 0.4000 0.0000
vt 0.4423 0.2000 0.0000
vt 0.5192 0.4000 0.0000
vt 0.5962 0.4000 0.0000
vt 0.6731 0.4000 0.0000
vt 0.8269 0.6000 0.0000
vt 0.7500 0.6000 0.0000
vt 0.9038 0.6000 0.0000
vt 0.9808 0.4971 0.0000
vt 0.2885 0.6000 0.0000
vt 0.2115 0.6000 0.0000
vt 0.3654 0.6000 0.0000
vt 0.4423 0.6000 0.0000
vt 0.5192 0.6000 0.0000
vt 0.5962 0.6000 0.0000
vt 0.6731 0.6000 0.0000
vt 0.8269 0.8000 0.0000
vt 0.7500 0.8000 0.0000
vt 0.9038 0.8000 0.0000
vt 0.9808 0.8000 0.0000
vt 0.9808 0.6000 0.0000
vt 1.0577 0.8000 0.0000
vt 1.0577 0.6000 0.0000
vt 0.1346 0.8000 0.0000
vt 0.0577 0.8000 0.0000
vt 0.0577 0.6000 0.0000
vt 0.1346 0.6000 0.0000
vt 0.2115 0.8000 0.0000
vt 0.2885 0.8000 0.0000
vt 0.3654 0.8000 0.0000
vt 0.4423 0.8000 0.0000
vt 0.5192 0.8000 0.0000
vt 0.5962 0.8000 0.0000
vt 0.6731 0.8000 0.0000
vt 0.8269 1.0000 0.0000
vt 0.7500 1.0000 0.0000
vt 0.9038 1.0000 0.0000
vt 0.9808 1.0000 0.0000
vt 1.0577 1.0000 0.0000
vt 0.1346 1.0000 0.0000
vt 0.0577 1.0000 0.0000
vt 0.2115 1.0000 0.0000
vt 0.2885 1.0000 0.0000
vt 0.3654 1.0000 0.0000
vt 0.4423 1.0000 0.0000
vt 0.5192 1.0000 0.0000
vt 0.5962 1.0000 0.0000
vt 0.6731 1.0000 0.0000
vt 0.0036 0.5603 0.0000
vt 0.0885 0.7840 0.0000
vt 0.2676 0.9427 0.0000
vt 0.9115 0.7840 0.0000
vt 0.5000 1.0000 0.0000
vt 0.7324 0.9427 0.0000
vt 0.6197 0.0145 0.0000
vt 0.9675 0.3227 0.0000
vt 0.9964 0.5603 0.0000
vt 0.8316 0.1257 0.0000
vt 0.1684 0.1257 0.0000
vt 0.3803 0.0145 0.0000
vt 0.0325 0.3227 0.0000
vt 0.7173 0.4176 0.0000
vt 0.7307 0.5280 0.0000
vt 0.6912 0.6320 0.0000
vt 0.3920 0.7058 0.0000
vt 0.6080 0.7058 0.0000
vt 0.5000 0.7324 0.0000
vt 0.3459 0.3261 0.0000
vt 0.2693 0.5280 0.0000
vt 0.3088 0.6320 0.0000
vt 0.2827 0.4176 0.0000
vt 0.5556 0.2744 0.0000
vt 0.4444 0.2744 0.0000
vt 0.6541 0.3261 0.0000
vt 0.8619 0.5217 0.0000
vt 0.6907 0.4532 0.0000
vt 0.5461 0.4509 0.0000
vt 0.2115 0.4496 0.0000
vt 0.1346 0.4443 0.0000
vt 0.3277 0.3080 0.0000
vt 0.3955 0.5217 0.0000
vt 0.5872 0.2996 0.0000
vt 0.3960 0.3527 0.0000
vt 0.3805 0.3425 0.0000
vt 0.3489 0.3219 0.0000
vt 0.9808 0.0000 0.0000
vt 1.0577 0.0000 0.0000
vt 0.1346 0.0000 0.0000
vt 0.0577 0.0000 0.0000
vt 0.2115 0.0000 0.0000
vt 0.2885 0.0000 0.0000
vt 0.0526 0.1591 0.0000
vt 0.4005 -0.1025 0.0000
vt 0.7250 0.3080 0.0000
# 134 texture coords

g Cone002
usemtl wire_145028177
s off
f 1/1/1 2/2/2 3/3/3 4/4/4 
f 5/5/5 1/1/1 4/4/4 6/6/6 
f 7/7/7 8/8/8 5/5/5 
f 8/8/8 7/7/7 9/9/9 10/10/10 
f 10/11/10 9/12/9 11/13/11 12/14/12 
f 12/14/12 11/13/11 13/15/13 14/16/14 
f 13/15/13 15/17/15 16/18/16 14/16/14 
f 15/17/15 17/19/17 18/20/18 16/18/16 
f 19/21/19 17/19/17 20/22/20 21/23/21 
f 22/24/22 19/21/19 21/23/21 23/25/23 
f 24/26/24 25/27/25 22/24/22 
f 26/28/26 24/26/24 27/29/27 28/30/28 
f 2/2/2 26/28/26 28/30/28 3/3/3 
f 29/31/29 30/32/30 2/2/2 1/1/1 
f 31/33/31 29/31/29 1/1/1 5/5/5 
f 32/34/32 33/35/33 34/36/34 35/37/35 
f 36/38/36 37/39/37 14/16/14 16/18/16 
f 38/40/38 36/38/36 16/18/16 18/20/18 
f 39/41/39 38/40/38 18/20/18 40/42/40 
f 41/43/41 39/41/39 40/42/40 25/27/25 
f 42/44/42 41/43/41 25/27/25 24/26/24 
f 43/45/43 42/44/42 24/26/24 26/28/26 
f 30/32/30 43/45/43 26/28/26 2/2/2 
f 44/46/44 45/47/45 30/32/30 29/31/29 
f 46/48/46 44/46/44 29/31/29 31/33/31 
f 33/35/33 32/34/32 47/49/47 
f 48/50/48 49/51/49 37/39/37 36/38/36 
f 50/52/50 48/50/48 36/38/36 38/40/38 
f 51/53/51 50/52/50 38/40/38 39/41/39 
f 52/54/52 51/53/51 39/41/39 41/43/41 
f 53/55/53 52/54/52 41/43/41 42/44/42 
f 54/56/54 53/55/53 42/44/42 43/45/43 
f 45/47/45 54/56/54 43/45/43 30/32/30 
f 55/57/55 56/58/56 45/47/57 44/46/58 
f 57/59/59 55/57/55 44/46/58 46/48/60 
f 58/60/61 57/59/59 46/48/60 59/61/62 
f 60/62/63 58/60/61 59/61/62 61/63/64 
f 62/64/65 60/65/63 61/66/64 63/67/66 
f 64/68/67 62/64/65 63/67/66 49/51/68 
f 65/69/69 64/68/67 49/51/68 48/50/70 
f 66/70/71 65/69/69 48/50/70 50/52/72 
f 67/71/73 66/70/71 50/52/72 51/53/74 
f 68/72/75 67/71/73 51/53/74 52/54/76 
f 69/73/77 68/72/75 52/54/76 53/55/78 
f 70/74/79 69/73/77 53/55/78 54/56/80 
f 56/58/56 70/74/79 54/56/80 45/47/57 
f 71/75/81 72/76/82 56/58/56 55/57/55 
f 73/77/83 71/75/81 55/57/55 57/59/59 
f 74/78/84 73/77/83 57/59/59 58/60/61 
f 75/79/85 74/78/84 58/60/61 60/62/63 
f 76/80/86 75/81/85 60/65/63 62/64/65 
f 77/82/87 76/80/86 62/64/65 64/68/67 
f 78/83/88 77/82/87 64/68/67 65/69/69 
f 79/84/89 78/83/88 65/69/69 66/70/71 
f 80/85/90 79/84/89 66/70/71 67/71/73 
f 81/86/91 80/85/90 67/71/73 68/72/75 
f 82/87/92 81/86/91 68/72/75 69/73/77 
f 83/88/93 82/87/92 69/73/77 70/74/79 
f 72/76/82 83/88/93 70/74/79 56/58/56 
f 84/89/94 85/90/95 86/91/96 87/92/97 
f 87/92/97 86/91/96 88/93/98 89/94/99 
f 90/95/100 84/89/94 87/92/97 91/96/101 
f 87/92/97 92/97/102 91/96/101 
f 91/96/101 93/98/103 90/95/100 
f 94/99/104 84/89/94 90/95/100 95/100/105 
f 84/89/94 94/99/104 96/101/106 
f 80/102/90 81/103/91 82/104/92 71/105/81 
f 71/105/81 82/104/92 83/106/93 72/107/82 
f 76/108/86 80/102/90 71/105/81 74/109/84 
f 71/105/81 73/110/83 74/109/84 
f 74/109/84 75/111/85 76/108/86 
f 78/112/88 80/102/90 76/108/86 77/113/87 
f 80/102/90 78/112/88 79/114/89 
f 97/93/107 98/91/108 4/91/4 3/93/3 
f 99/94/109 97/93/107 3/93/3 28/94/28 
f 100/92/110 99/94/109 28/94/28 27/92/27 
f 101/97/111 100/92/110 27/92/27 23/97/23 
f 102/96/112 101/97/111 23/97/23 21/96/21 
f 103/98/113 102/96/112 21/96/21 20/98/20 
f 104/95/114 103/98/113 20/98/20 105/95/115 
f 106/100/116 104/95/114 105/95/115 107/100/117 
f 108/99/118 106/100/116 107/100/117 109/99/119 
f 110/101/120 108/99/118 109/99/119 111/101/121 
f 112/89/122 110/101/120 111/101/121 113/89/123 
f 114/90/124 112/89/122 113/89/123 6/90/6 
f 98/91/108 114/90/124 6/90/6 4/91/4 
f 115/115/125 116/116/126 117/117/127 
f 37/118/37 49/51/49 63/67/128 118/119/129 
f 116/116/126 119/120/130 117/117/127 
f 37/118/37 118/119/129 12/14/12 14/16/14 
f 32/34/32 35/37/35 119/120/130 116/116/126 
f 47/49/47 32/34/32 116/116/126 115/121/125 
f 59/61/131 120/49/132 121/121/133 61/66/134 
f 59/61/131 46/48/46 31/33/31 120/49/132 
f 31/33/31 122/35/135 120/49/132 
f 8/8/8 123/37/136 124/36/137 5/5/5 
f 123/37/136 8/8/8 10/122/10 
f 118/119/129 125/117/138 126/123/139 
f 118/119/129 63/67/128 61/63/134 121/115/133 
f 118/119/129 121/115/133 125/117/138 
f 127/49/140 128/121/141 121/121/133 120/49/132 
f 129/35/142 127/49/140 120/49/132 122/35/135 
f 130/36/143 129/35/142 122/35/135 124/36/137 
f 131/37/144 130/36/143 124/36/137 123/37/136 
f 123/37/136 132/120/145 131/37/144 
f 133/117/146 132/124/145 134/125/147 126/123/139 
f 133/117/146 126/123/139 125/117/138 
f 128/115/141 133/117/146 125/117/138 121/115/133 
f 47/49/47 115/121/125 128/121/141 127/49/140 
f 33/35/33 47/49/47 127/49/140 129/35/142 
f 34/36/34 33/35/33 129/35/142 130/36/143 
f 35/37/35 34/36/34 130/36/143 131/37/144 
f 119/120/130 35/37/35 131/37/144 132/120/145 
f 117/117/127 119/120/130 132/120/145 133/117/146 
f 115/115/125 117/117/127 133/117/146 128/115/141 
f 113/126/123 7/7/7 5/5/5 6/6/6 
f 111/127/121 9/9/9 7/7/7 113/126/123 
f 109/128/119 11/13/11 9/12/9 111/129/121 
f 107/130/117 13/15/13 11/13/11 109/128/119 
f 15/17/15 13/15/13 107/130/117 105/131/115 
f 17/19/17 15/17/15 105/131/115 20/22/20 
f 24/26/24 22/24/22 23/25/23 27/29/27 
f 19/21/19 22/24/22 25/27/25 40/42/40 
f 17/19/17 19/21/19 40/42/40 18/20/18 
f 88/93/98 86/91/96 98/91/108 97/93/107 
f 89/94/99 88/93/98 97/93/107 99/94/109 
f 87/92/97 89/94/99 99/94/109 100/92/110 
f 92/97/102 87/92/97 100/92/110 101/97/111 
f 91/96/101 92/97/102 101/97/111 102/96/112 
f 93/98/103 91/96/101 102/96/112 103/98/113 
f 90/95/100 93/98/103 103/98/113 104/95/114 
f 95/100/105 90/95/100 104/95/114 106/100/116 
f 94/99/104 95/100/105 106/100/116 108/99/118 
f 96/101/106 94/99/104 108/99/118 110/101/120 
f 84/89/94 96/101/106 110/101/120 112/89/122 
f 85/90/95 84/89/94 112/89/122 114/90/124 
f 86/91/96 85/90/95 114/90/124 98/91/108 
f 123/37/136 10/122/10 134/120/147 
f 126/132/139 134/133/147 10/134/10 
f 10/11/10 12/14/12 118/119/129 126/123/139 
f 134/120/147 132/120/145 123/37/136 
f 122/35/135 31/33/31 5/5/5 124/36/137 
# 122 polygons - 20 triangles

