# 3ds Max Wavefront OBJ Exporter v0.97b - (c)2007 guruware
# File Created: 23.03.2018 10:26:04

mtllib gloveR.mtl

#
# object Cone002
#

v  -15.6700 -17.9411 -31.9237
v  6.1464 -15.1747 -31.9237
v  6.2730 -19.8638 -45.6159
v  -11.9981 -20.5296 -45.0441
v  -35.8947 -15.3281 -31.8874
v  -26.0957 -16.8017 -47.6342
v  -39.4872 -2.2492 -44.9277
v  -42.9854 0.1492 -31.9237
v  -38.4207 12.0055 -48.7741
v  -40.1300 15.8821 -29.9767
v  -25.3393 24.9249 -51.2717
v  -26.6733 31.3340 -29.9767
v  -5.2362 33.7512 -53.0745
v  -5.6980 40.4617 -31.9236
v  17.5056 33.4112 -53.7195
v  17.9907 40.4617 -31.9236
v  37.7249 25.3710 -51.6423
v  38.9660 31.3340 -31.9237
v  50.5495 11.1878 -50.9878
v  32.2580 10.8440 -67.6978
v  42.9717 2.9672 -62.1249
v  51.4269 -3.8017 -46.1933
v  45.2779 -10.0203 -52.8554
v  44.7812 -11.1305 -31.9237
v  55.2781 -0.9060 -31.9237
v  27.9627 -15.8554 -31.9237
v  38.6248 -17.1019 -47.7596
v  24.5483 -20.6991 -45.1149
v  -14.0967 -22.7858 1.7935
v  6.1464 -26.9228 1.7935
v  -24.9293 -17.3143 0.7085
v  -59.9639 -22.2160 -34.2189
v  -53.9285 -26.5672 -31.7713
v  -44.6638 -21.5488 -32.3094
v  -49.1597 -16.2795 -39.0889
v  16.5709 35.6853 1.7935
v  -4.2781 35.6853 1.7935
v  35.0317 27.6519 1.7935
v  46.8752 13.4253 1.7935
v  52.4228 15.1697 -31.9237
v  49.3883 -3.7352 1.7935
v  41.9951 -15.5727 1.7935
v  26.3895 -22.7858 1.7935
v  -7.0527 -20.2334 28.2945
v  6.1464 -22.9308 28.2945
v  -17.2280 -12.7591 28.2945
v  -61.3101 -19.2625 -16.6809
v  12.9434 23.4829 28.2945
v  -0.6506 23.4829 28.2945
v  24.9803 18.2449 28.2945
v  32.7026 8.9688 28.2945
v  34.3412 -2.2203 28.2945
v  29.5207 -12.7591 28.2945
v  19.3454 -20.2334 28.2945
v  -6.8252 -19.8741 61.5622
v  6.1464 -22.5250 61.5622
v  -16.8252 -12.5286 61.5622
v  -21.5627 -2.1714 61.5622
v  -22.0485 -2.2203 28.2945
v  -19.9523 8.8249 61.5622
v  -20.4099 8.9688 28.2945
v  -12.3631 17.9412 61.5622
v  -12.6876 18.2449 28.2945
v  -0.5335 23.0889 61.5622
v  12.8263 23.0889 61.5622
v  24.6558 17.9411 61.5622
v  32.2451 8.8249 61.5622
v  33.8554 -2.1714 61.5622
v  29.1180 -12.5287 61.5622
v  19.1180 -19.8741 61.5622
v  -5.1577 -17.2398 65.6221
v  6.1464 -19.5499 65.6221
v  -13.8722 -10.8386 65.6221
v  -18.0007 -1.8128 65.6221
v  -16.5973 7.7699 65.6221
v  -9.9837 15.7143 65.6221
v  0.3252 20.2003 65.6221
v  11.9676 20.2003 65.6221
v  22.2764 15.7143 65.6221
v  28.8901 7.7699 65.6221
v  30.2934 -1.8128 65.6221
v  26.1650 -10.8386 65.6221
v  17.4505 -17.2398 65.6221
v  -3.9958 -24.7228 -68.5792
v  -2.2672 -27.2955 -63.4721
v  1.9918 -27.2965 -63.0718
v  13.6841 -27.1255 -63.8880
v  6.2116 -27.6309 -63.2477
v  10.4316 -27.3756 -63.1118
v  8.5601 -21.8749 -74.9355
v  15.6517 -23.5020 -71.6537
v  16.2404 -24.7411 -68.5876
v  12.8800 -23.1896 -73.5019
v  -0.6376 -23.1774 -73.4963
v  3.6817 -21.8705 -74.9335
v  -3.4085 -23.4848 -71.6457
v  6.3870 -23.3746 -53.3293
v  -3.7988 -23.6784 -53.7415
v  16.5732 -23.7368 -53.7897
v  24.4246 -22.1346 -56.1725
v  30.5911 -18.7385 -64.2420
v  29.1721 -12.3446 -71.4598
v  22.4830 -8.4893 -75.8141
v  12.0564 -5.4980 -79.1943
v  15.5761 16.9963 -72.0069
v  0.2808 -5.5003 -79.1959
v  -3.2440 17.0836 -71.9704
v  -10.1461 -8.4957 -75.8184
v  -19.8908 11.0859 -67.5967
v  -16.8356 -12.3537 -71.4659
v  -30.5591 3.3083 -61.9824
v  -18.2554 -18.7481 -64.2485
v  -32.7900 -9.6582 -52.7041
v  -14.0789 -22.7453 -55.2778
v  -62.6821 -4.5135 -16.7138
v  -63.7456 -8.7172 -33.7925
v  -62.7485 -0.7462 -32.5437
v  -21.5519 29.5398 0.6277
v  -52.7249 -2.5521 -38.0789
v  -31.6237 -3.1864 15.3176
v  -28.7079 10.0652 15.6077
v  -28.9096 -13.9675 0.3836
v  -40.4105 -1.5375 -22.8608
v  -35.3849 -10.3001 -21.8169
v  -34.1930 21.3603 -1.1378
v  -36.1297 17.0461 -15.2124
v  -47.2830 -12.0170 5.2909
v  -51.3077 3.0906 1.9684
v  -42.3144 -17.9598 -9.1808
v  -42.0525 -17.4060 -26.7440
v  -45.2596 -11.4117 -27.3364
v  -47.4462 3.0955 -24.8015
v  -49.5685 7.8612 -12.1675
v  -41.3620 10.0846 -22.9456
# 134 vertices

vn -0.0426 -0.9975 0.0560
vn 0.0162 -0.9994 0.0304
vn 0.0136 -0.9346 0.3554
vn -0.1205 -0.9800 0.1582
vn -0.6515 -0.7586 -0.0013
vn -0.4519 -0.8751 -0.1733
vn -0.9147 -0.2381 -0.3265
vn -0.9920 -0.1218 0.0315
vn -0.8523 0.3389 -0.3984
vn -0.8924 0.4509 -0.0190
vn -0.5475 0.7022 -0.4551
vn -0.5890 0.8065 -0.0519
vn -0.1987 0.8527 -0.4832
vn -0.2045 0.9754 -0.0828
vn 0.1864 0.8500 -0.4927
vn 0.2021 0.9761 -0.0793
vn 0.5416 0.7052 -0.4575
vn 0.5935 0.8028 -0.0579
vn 0.8500 0.3084 -0.4271
vn 0.4774 0.3642 -0.7997
vn 0.7172 0.0259 -0.6964
vn 0.8869 -0.3802 -0.2623
vn 0.7731 -0.5331 -0.3438
vn 0.5561 -0.8310 -0.0107
vn 0.9650 -0.2617 -0.0146
vn 0.1614 -0.9863 0.0354
vn 0.5018 -0.8647 0.0214
vn 0.1379 -0.9567 0.2564
vn -0.3191 -0.9476 0.0142
vn -0.0190 -0.9975 -0.0684
vn -0.5321 -0.8276 0.1788
vn -0.6135 -0.5610 -0.5558
vn -0.0271 -0.9337 -0.3571
vn 0.7081 -0.5552 -0.4362
vn 0.3592 -0.1512 -0.9209
vn 0.1963 0.9377 0.2868
vn -0.1799 0.9406 0.2880
vn 0.5738 0.7609 0.3030
vn 0.8647 0.3840 0.3238
vn 0.9019 0.4318 -0.0067
vn 0.9313 -0.1976 0.3060
vn 0.6528 -0.7391 0.1662
vn 0.3050 -0.9523 0.0100
vn -0.3731 -0.9088 0.1867
vn -0.0000 -0.9888 0.1490
vn -0.7270 -0.6262 0.2817
vn -0.7248 -0.5881 0.3587
vn 0.1793 0.8841 0.4316
vn -0.1793 0.8841 0.4316
vn 0.5250 0.7195 0.4545
vn 0.7941 0.3650 0.4860
vn 0.8595 -0.1264 0.4952
vn 0.6783 -0.6136 0.4041
vn 0.3412 -0.9152 0.2145
vn -0.3890 -0.8664 0.3130
vn -0.0000 -0.9521 0.3056
vn -0.0000 -0.9999 0.0122
vn -0.4057 -0.9139 0.0126
vn -0.7357 -0.5917 0.3295
vn -0.7758 -0.6309 0.0138
vn -0.9309 -0.1313 0.3408
vn -0.9899 -0.1412 0.0147
vn -0.8615 0.3801 0.3367
vn -0.9132 0.4073 0.0143
vn -0.5726 0.7544 0.3209
vn -0.6002 0.7997 0.0132
vn -0.1961 0.9311 0.3076
vn -0.2039 0.9789 0.0123
vn 0.1961 0.9311 0.3076
vn 0.2039 0.9789 0.0123
vn 0.5726 0.7544 0.3209
vn 0.6002 0.7997 0.0132
vn 0.8615 0.3801 0.3367
vn 0.9132 0.4073 0.0143
vn 0.9309 -0.1313 0.3408
vn 0.9899 -0.1412 0.0147
vn 0.7357 -0.5917 0.3295
vn 0.7758 -0.6309 0.0138
vn 0.3890 -0.8664 0.3130
vn 0.4057 -0.9139 0.0126
vn -0.1930 -0.4518 0.8710
vn -0.0000 -0.4959 0.8684
vn -0.3660 -0.3101 0.8774
vn -0.4651 -0.0692 0.8825
vn -0.4296 0.1999 0.8806
vn -0.2843 0.3941 0.8740
vn -0.0973 0.4851 0.8691
vn 0.0973 0.4851 0.8691
vn 0.2843 0.3942 0.8740
vn 0.4297 0.1999 0.8806
vn 0.4651 -0.0692 0.8825
vn 0.3660 -0.3101 0.8774
vn 0.1930 -0.4518 0.8710
vn -0.3003 -0.8656 -0.4007
vn -0.1429 -0.9886 -0.0475
vn -0.0407 -0.9984 -0.0391
vn 0.2091 -0.9727 -0.1007
vn -0.0364 -0.9087 -0.4159
vn 0.0634 -0.9845 0.1638
vn 0.0597 -0.6180 -0.7839
vn 0.2918 -0.7741 -0.5618
vn 0.3357 -0.8848 -0.3233
vn -0.0549 -0.9228 -0.3812
vn -0.1568 -0.7294 -0.6659
vn -0.0651 -0.4958 -0.8660
vn -0.3985 -0.7181 -0.5706
vn 0.0081 -0.9183 0.3959
vn -0.0704 -0.9433 0.3245
vn 0.0986 -0.9490 0.2995
vn 0.3323 -0.9426 0.0333
vn 0.5595 -0.7368 -0.3797
vn 0.5704 -0.3175 -0.7575
vn 0.3809 -0.0856 -0.9206
vn 0.1477 0.0199 -0.9888
vn 0.1817 0.5203 -0.8344
vn -0.1527 0.0235 -0.9880
vn -0.1869 0.5220 -0.8322
vn -0.3885 -0.0821 -0.9178
vn -0.4847 0.3699 -0.7926
vn -0.5872 -0.3136 -0.7462
vn -0.7269 0.0398 -0.6856
vn -0.6076 -0.6839 -0.4039
vn -0.7509 -0.5031 -0.4278
vn -0.3493 -0.9264 0.1410
vn -0.9243 0.2612 0.2782
vn -0.8465 -0.0263 -0.5317
vn -0.6825 0.6051 -0.4099
vn -0.5281 0.7174 0.4544
vn -0.4927 0.8190 0.2940
vn 0.2246 0.4819 -0.8469
vn -0.8423 -0.2132 0.4951
vn -0.6159 -0.3462 0.7077
vn -0.6679 0.4172 0.6163
vn -0.7642 0.3845 0.5179
vn -0.4080 -0.8406 0.3563
vn -0.5189 -0.0915 -0.8499
vn -0.4594 -0.7845 -0.4166
vn -0.5880 0.7787 0.2190
vn -0.6840 0.7289 -0.0270
vn -0.3802 -0.5711 0.7276
vn -0.7555 0.3513 0.5531
vn 0.1664 -0.9555 0.2436
vn 0.8823 -0.2433 -0.4030
vn 0.7115 0.2583 -0.6535
vn 0.1398 0.6688 -0.7301
vn -0.6339 0.7718 -0.0494
vn -0.8552 0.4138 -0.3122
# 147 vertex normals

vt 0.8269 0.2000 0.0000
vt 0.7500 0.2000 0.0000
vt 0.7500 0.0000 0.0000
vt 0.8269 0.0000 0.0000
vt 0.9038 0.2000 0.0000
vt 0.9038 0.0000 0.0000
vt 0.9808 0.1593 0.0000
vt 0.9808 0.2000 0.0000
vt 1.0577 0.1317 0.0000
vt 1.0577 0.2000 0.0000
vt 0.1240 0.2265 0.0000
vt 0.0577 0.1317 0.0000
vt 0.1346 0.1249 0.0000
vt 0.1346 0.2000 0.0000
vt 0.2115 0.1280 0.0000
vt 0.2115 0.2000 0.0000
vt 0.2885 0.1243 0.0000
vt 0.2885 0.2000 0.0000
vt 0.3654 0.1301 0.0000
vt 0.3654 0.2000 0.0000
vt 0.4423 0.1252 0.0000
vt 0.3654 0.0000 0.0000
vt 0.4423 0.0000 0.0000
vt 0.5192 0.1460 0.0000
vt 0.5192 0.0000 0.0000
vt 0.5962 0.2000 0.0000
vt 0.5192 0.2000 0.0000
vt 0.6731 0.2000 0.0000
vt 0.5962 0.0000 0.0000
vt 0.6731 0.0000 0.0000
vt 0.8269 0.4000 0.0000
vt 0.7500 0.4000 0.0000
vt 0.9038 0.4000 0.0000
vt 0.9808 0.4000 0.0000
vt 0.9356 0.4000 0.0000
vt 0.9351 0.2921 0.0000
vt 0.9808 0.2868 0.0000
vt 0.2885 0.4000 0.0000
vt 0.2115 0.4000 0.0000
vt 0.3654 0.4000 0.0000
vt 0.4423 0.4000 0.0000
vt 0.4423 0.2000 0.0000
vt 0.5192 0.4000 0.0000
vt 0.5962 0.4000 0.0000
vt 0.6731 0.4000 0.0000
vt 0.8269 0.6000 0.0000
vt 0.7500 0.6000 0.0000
vt 0.9038 0.6000 0.0000
vt 0.9808 0.4971 0.0000
vt 0.2885 0.6000 0.0000
vt 0.2115 0.6000 0.0000
vt 0.3654 0.6000 0.0000
vt 0.4423 0.6000 0.0000
vt 0.5192 0.6000 0.0000
vt 0.5962 0.6000 0.0000
vt 0.6731 0.6000 0.0000
vt 0.8269 0.8000 0.0000
vt 0.7500 0.8000 0.0000
vt 0.9038 0.8000 0.0000
vt 0.9808 0.8000 0.0000
vt 0.9808 0.6000 0.0000
vt 1.0577 0.8000 0.0000
vt 1.0577 0.6000 0.0000
vt 0.1346 0.8000 0.0000
vt 0.0577 0.8000 0.0000
vt 0.0577 0.6000 0.0000
vt 0.1346 0.6000 0.0000
vt 0.2115 0.8000 0.0000
vt 0.2885 0.8000 0.0000
vt 0.3654 0.8000 0.0000
vt 0.4423 0.8000 0.0000
vt 0.5192 0.8000 0.0000
vt 0.5962 0.8000 0.0000
vt 0.6731 0.8000 0.0000
vt 0.8269 1.0000 0.0000
vt 0.7500 1.0000 0.0000
vt 0.9038 1.0000 0.0000
vt 0.9808 1.0000 0.0000
vt 1.0577 1.0000 0.0000
vt 0.1346 1.0000 0.0000
vt 0.0577 1.0000 0.0000
vt 0.2115 1.0000 0.0000
vt 0.2885 1.0000 0.0000
vt 0.3654 1.0000 0.0000
vt 0.4423 1.0000 0.0000
vt 0.5192 1.0000 0.0000
vt 0.5962 1.0000 0.0000
vt 0.6731 1.0000 0.0000
vt 0.0036 0.5603 0.0000
vt 0.0885 0.7840 0.0000
vt 0.2676 0.9427 0.0000
vt 0.9115 0.7840 0.0000
vt 0.5000 1.0000 0.0000
vt 0.7324 0.9427 0.0000
vt 0.6197 0.0145 0.0000
vt 0.9675 0.3227 0.0000
vt 0.9964 0.5603 0.0000
vt 0.8316 0.1257 0.0000
vt 0.1684 0.1257 0.0000
vt 0.3803 0.0145 0.0000
vt 0.0325 0.3227 0.0000
vt 0.7173 0.4176 0.0000
vt 0.7307 0.5280 0.0000
vt 0.6912 0.6320 0.0000
vt 0.3920 0.7058 0.0000
vt 0.6080 0.7058 0.0000
vt 0.5000 0.7324 0.0000
vt 0.3459 0.3261 0.0000
vt 0.2693 0.5280 0.0000
vt 0.3088 0.6320 0.0000
vt 0.2827 0.4176 0.0000
vt 0.5556 0.2744 0.0000
vt 0.4444 0.2744 0.0000
vt 0.6541 0.3261 0.0000
vt 0.8619 0.5217 0.0000
vt 0.6907 0.4532 0.0000
vt 0.5461 0.4509 0.0000
vt 0.2115 0.4496 0.0000
vt 0.1346 0.4443 0.0000
vt 0.3277 0.3080 0.0000
vt 0.3955 0.5217 0.0000
vt 0.5872 0.2996 0.0000
vt 0.3960 0.3527 0.0000
vt 0.3805 0.3425 0.0000
vt 0.3489 0.3219 0.0000
vt 0.9808 0.0000 0.0000
vt 1.0577 0.0000 0.0000
vt 0.1346 0.0000 0.0000
vt 0.0577 0.0000 0.0000
vt 0.2115 0.0000 0.0000
vt 0.2885 0.0000 0.0000
vt 0.0526 0.1591 0.0000
vt 0.4005 -0.1025 0.0000
vt 0.7250 0.3080 0.0000
# 134 texture coords

g Cone002
usemtl wire_145028177
s off
f 4/4/4 3/3/3 2/2/2 1/1/1 
f 6/6/6 4/4/4 1/1/1 5/5/5 
f 5/5/5 8/8/8 7/7/7 
f 10/10/10 9/9/9 7/7/7 8/8/8 
f 12/14/12 11/13/11 9/12/9 10/11/10 
f 14/16/14 13/15/13 11/13/11 12/14/12 
f 14/16/14 16/18/16 15/17/15 13/15/13 
f 16/18/16 18/20/18 17/19/17 15/17/15 
f 21/23/21 20/22/20 17/19/17 19/21/19 
f 23/25/23 21/23/21 19/21/19 22/24/22 
f 22/24/22 25/27/25 24/26/24 
f 28/30/28 27/29/27 24/26/24 26/28/26 
f 3/3/3 28/30/28 26/28/26 2/2/2 
f 1/1/1 2/2/2 30/32/30 29/31/29 
f 5/5/5 1/1/1 29/31/29 31/33/31 
f 35/37/35 34/36/34 33/35/33 32/34/32 
f 16/18/16 14/16/14 37/39/37 36/38/36 
f 18/20/18 16/18/16 36/38/36 38/40/38 
f 40/42/40 18/20/18 38/40/38 39/41/39 
f 25/27/25 40/42/40 39/41/39 41/43/41 
f 24/26/24 25/27/25 41/43/41 42/44/42 
f 26/28/26 24/26/24 42/44/42 43/45/43 
f 2/2/2 26/28/26 43/45/43 30/32/30 
f 29/31/29 30/32/30 45/47/45 44/46/44 
f 31/33/31 29/31/29 44/46/44 46/48/46 
f 47/49/47 32/34/32 33/35/33 
f 36/38/36 37/39/37 49/51/49 48/50/48 
f 38/40/38 36/38/36 48/50/48 50/52/50 
f 39/41/39 38/40/38 50/52/50 51/53/51 
f 41/43/41 39/41/39 51/53/51 52/54/52 
f 42/44/42 41/43/41 52/54/52 53/55/53 
f 43/45/43 42/44/42 53/55/53 54/56/54 
f 30/32/30 43/45/43 54/56/54 45/47/45 
f 44/46/58 45/47/57 56/58/56 55/57/55 
f 46/48/60 44/46/58 55/57/55 57/59/59 
f 59/61/62 46/48/60 57/59/59 58/60/61 
f 61/63/64 59/61/62 58/60/61 60/62/63 
f 63/67/66 61/66/64 60/65/63 62/64/65 
f 49/51/68 63/67/66 62/64/65 64/68/67 
f 48/50/70 49/51/68 64/68/67 65/69/69 
f 50/52/72 48/50/70 65/69/69 66/70/71 
f 51/53/74 50/52/72 66/70/71 67/71/73 
f 52/54/76 51/53/74 67/71/73 68/72/75 
f 53/55/78 52/54/76 68/72/75 69/73/77 
f 54/56/80 53/55/78 69/73/77 70/74/79 
f 45/47/57 54/56/80 70/74/79 56/58/56 
f 55/57/55 56/58/56 72/76/82 71/75/81 
f 57/59/59 55/57/55 71/75/81 73/77/83 
f 58/60/61 57/59/59 73/77/83 74/78/84 
f 60/62/63 58/60/61 74/78/84 75/79/85 
f 62/64/65 60/65/63 75/81/85 76/80/86 
f 64/68/67 62/64/65 76/80/86 77/82/87 
f 65/69/69 64/68/67 77/82/87 78/83/88 
f 66/70/71 65/69/69 78/83/88 79/84/89 
f 67/71/73 66/70/71 79/84/89 80/85/90 
f 68/72/75 67/71/73 80/85/90 81/86/91 
f 69/73/77 68/72/75 81/86/91 82/87/92 
f 70/74/79 69/73/77 82/87/92 83/88/93 
f 56/58/56 70/74/79 83/88/93 72/76/82 
f 87/92/97 86/91/96 85/90/95 84/89/94 
f 89/94/99 88/93/98 86/91/96 87/92/97 
f 91/96/101 87/92/97 84/89/94 90/95/100 
f 91/96/101 92/97/102 87/92/97 
f 90/95/100 93/98/103 91/96/101 
f 95/100/105 90/95/100 84/89/94 94/99/104 
f 96/101/106 94/99/104 84/89/94 
f 71/105/81 82/104/92 81/103/91 80/102/90 
f 72/107/82 83/106/93 82/104/92 71/105/81 
f 74/109/84 71/105/81 80/102/90 76/108/86 
f 74/109/84 73/110/83 71/105/81 
f 76/108/86 75/111/85 74/109/84 
f 77/113/87 76/108/86 80/102/90 78/112/88 
f 79/114/89 78/112/88 80/102/90 
f 3/93/3 4/91/4 98/91/108 97/93/107 
f 28/94/28 3/93/3 97/93/107 99/94/109 
f 27/92/27 28/94/28 99/94/109 100/92/110 
f 23/97/23 27/92/27 100/92/110 101/97/111 
f 21/96/21 23/97/23 101/97/111 102/96/112 
f 20/98/20 21/96/21 102/96/112 103/98/113 
f 105/95/115 20/98/20 103/98/113 104/95/114 
f 107/100/117 105/95/115 104/95/114 106/100/116 
f 109/99/119 107/100/117 106/100/116 108/99/118 
f 111/101/121 109/99/119 108/99/118 110/101/120 
f 113/89/123 111/101/121 110/101/120 112/89/122 
f 6/90/6 113/89/123 112/89/122 114/90/124 
f 4/91/4 6/90/6 114/90/124 98/91/108 
f 117/117/127 116/116/126 115/115/125 
f 118/119/129 63/67/128 49/51/49 37/118/37 
f 117/117/127 119/120/130 116/116/126 
f 14/16/14 12/14/12 118/119/129 37/118/37 
f 116/116/126 119/120/130 35/37/35 32/34/32 
f 115/121/125 116/116/126 32/34/32 47/49/47 
f 61/66/134 121/121/133 120/49/132 59/61/131 
f 120/49/132 31/33/31 46/48/46 59/61/131 
f 120/49/132 122/35/135 31/33/31 
f 5/5/5 124/36/137 123/37/136 8/8/8 
f 10/122/10 8/8/8 123/37/136 
f 126/123/139 125/117/138 118/119/129 
f 121/115/133 61/63/134 63/67/128 118/119/129 
f 125/117/138 121/115/133 118/119/129 
f 120/49/132 121/121/133 128/121/141 127/49/140 
f 122/35/135 120/49/132 127/49/140 129/35/142 
f 124/36/137 122/35/135 129/35/142 130/36/143 
f 123/37/136 124/36/137 130/36/143 131/37/144 
f 131/37/144 132/120/145 123/37/136 
f 126/123/139 134/125/147 132/124/145 133/117/146 
f 125/117/138 126/123/139 133/117/146 
f 121/115/133 125/117/138 133/117/146 128/115/141 
f 127/49/140 128/121/141 115/121/125 47/49/47 
f 129/35/142 127/49/140 47/49/47 33/35/33 
f 130/36/143 129/35/142 33/35/33 34/36/34 
f 131/37/144 130/36/143 34/36/34 35/37/35 
f 132/120/145 131/37/144 35/37/35 119/120/130 
f 133/117/146 132/120/145 119/120/130 117/117/127 
f 128/115/141 133/117/146 117/117/127 115/115/125 
f 6/6/6 5/5/5 7/7/7 113/126/123 
f 113/126/123 7/7/7 9/9/9 111/127/121 
f 111/129/121 9/12/9 11/13/11 109/128/119 
f 109/128/119 11/13/11 13/15/13 107/130/117 
f 105/131/115 107/130/117 13/15/13 15/17/15 
f 20/22/20 105/131/115 15/17/15 17/19/17 
f 27/29/27 23/25/23 22/24/22 24/26/24 
f 40/42/40 25/27/25 22/24/22 19/21/19 
f 18/20/18 40/42/40 19/21/19 17/19/17 
f 97/93/107 98/91/108 86/91/96 88/93/98 
f 99/94/109 97/93/107 88/93/98 89/94/99 
f 100/92/110 99/94/109 89/94/99 87/92/97 
f 101/97/111 100/92/110 87/92/97 92/97/102 
f 102/96/112 101/97/111 92/97/102 91/96/101 
f 103/98/113 102/96/112 91/96/101 93/98/103 
f 104/95/114 103/98/113 93/98/103 90/95/100 
f 106/100/116 104/95/114 90/95/100 95/100/105 
f 108/99/118 106/100/116 95/100/105 94/99/104 
f 110/101/120 108/99/118 94/99/104 96/101/106 
f 112/89/122 110/101/120 96/101/106 84/89/94 
f 114/90/124 112/89/122 84/89/94 85/90/95 
f 98/91/108 114/90/124 85/90/95 86/91/96 
f 134/120/147 10/122/10 123/37/136 
f 10/134/10 134/133/147 126/132/139 
f 126/123/139 118/119/129 12/14/12 10/11/10 
f 123/37/136 132/120/145 134/120/147 
f 124/36/137 5/5/5 31/33/31 122/35/135 
# 122 polygons - 20 triangles

