# 3ds Max Wavefront OBJ Exporter v0.97b - (c)2007 guruware
# File Created: 14.03.2018 13:00:16

mtllib stone4.mtl

#
# object GeoSphere001
#

v  0.4083 24.2917 -0.1131
v  -2.9138 22.7978 -9.5901
v  -4.8591 23.1465 -3.6603
v  -9.7978 21.6430 -6.9862
v  -4.9330 23.4713 3.4839
v  -19.0925 17.5835 -13.2454
v  -15.0478 20.5115 -3.4800
v  -20.0023 18.4039 -6.6935
v  -20.5434 18.8917 6.6418
v  -24.9320 15.7399 -3.2611
v  -29.0004 12.0602 -6.0941
v  -29.5643 12.2914 5.9826
v  -38.7963 -4.2086 -8.0997
v  -32.9552 -9.4217 -17.9983
v  -38.2827 -8.3308 -4.2031
v  -34.9848 -13.4858 -6.8172
v  -40.4750 -8.8029 4.2087
v  -40.4454 -4.3857 -0.1131
v  -38.6128 0.0000 -3.9145
v  -36.1478 -4.4881 -15.3295
v  -36.5090 4.2241 7.0455
v  -35.7927 4.1422 -7.1327
v  -33.2222 8.2657 -3.3656
v  -30.4028 7.5728 -16.2665
v  0.4083 -25.2117 -0.1131
v  -1.7418 -24.7359 -6.2467
v  3.9784 -24.4990 -10.2973
v  -4.1268 -25.1782 12.8243
v  -8.9211 -24.4542 -6.3957
v  -19.5439 -22.2375 -13.5493
v  -17.1178 -24.5560 6.7070
v  -16.6466 -23.8958 -6.7498
v  -25.0969 -22.6920 -7.2599
v  -34.1524 -17.3672 -0.1131
v  -31.4590 -18.8234 -7.2461
v  3.9972 -24.6281 10.1248
v  15.0404 25.1025 -0.1131
v  4.8010 24.3868 12.4176
v  15.3661 -21.0794 18.1660
v  12.8603 -17.7198 23.9397
v  -5.9487 -22.0863 18.0213
v  36.6569 -4.1476 -14.7948
v  38.4653 4.6723 -15.9542
v  41.1770 4.3765 -8.4183
v  23.4104 19.5656 -20.4401
v  36.8266 13.8764 -7.0113
v  14.6288 21.2091 18.8369
v  -6.3169 19.6235 19.0717
v  7.6142 7.7364 32.7339
v  11.4143 -4.0752 -31.5096
v  35.3366 0.0000 -18.8046
v  31.8628 -7.7309 -16.6038
v  -1.7618 -16.1557 25.8893
v  -31.4823 -13.9426 12.8160
v  11.9672 -4.2800 32.8606
v  24.4934 -13.3214 24.2921
v  27.5749 -4.2898 28.2439
v  24.3013 14.4082 24.8093
v  0.2906 8.3041 -33.0055
v  -11.5010 16.9476 -23.1177
v  11.6217 12.0389 -32.1010
v  0.8941 20.1029 -21.9877
v  15.0578 21.8490 -19.6348
v  -27.7892 8.1827 23.8414
v  -36.5791 -4.5410 15.2829
v  -14.7867 0.0000 31.5202
v  12.0161 4.0325 -33.2262
v  3.3946 -12.2051 -28.2194
v  0.4083 0.0000 -34.9399
v  16.5455 -21.4153 -10.9802
v  38.4662 4.6724 15.7284
v  33.1118 -8.0379 9.6250
v  17.7540 24.3032 6.6368
v  37.8843 9.2307 11.3008
v  -32.8621 5.6936 16.8665
v  -27.6480 11.5056 18.7807
v  -8.4782 22.1453 13.4739
v  20.9450 22.8889 -13.9429
v  3.5287 -12.7531 29.2552
v  -3.6061 4.1737 34.2280
v  1.8625 -22.5706 -16.2507
v  7.0617 -19.4138 -19.0929
v  -15.2278 -17.1452 -23.6926
v  -14.1812 0.0000 -30.4860
v  -30.9984 -4.4419 -21.2631
v  -29.2942 3.9413 -20.1154
v  29.2743 9.4889 -24.1674
v  18.2889 13.5347 -29.3468
v  -20.8328 11.7484 -21.6365
v  32.2529 0.0000 26.4636
v  30.6603 9.9445 25.0962
v  27.0957 -16.5766 -10.3205
v  19.8609 -7.7798 -25.1036
v  0.4083 0.0000 34.5879
v  -17.9163 16.2262 19.8275
v  -14.9766 -7.9348 -31.3948
v  22.0283 -19.4943 14.4463
v  41.4044 8.8271 -4.4467
# 98 vertices

vn -0.1544 0.9855 -0.0707
vn -0.2159 0.9423 -0.2558
vn -0.2979 0.9484 -0.1089
vn -0.3649 0.9101 -0.1965
vn -0.3000 0.9538 0.0162
vn -0.5644 0.7564 -0.3307
vn -0.4310 0.8973 -0.0951
vn -0.5784 0.7994 -0.1623
vn -0.5952 0.8032 0.0240
vn -0.7287 0.6771 -0.1025
vn -0.7876 0.5919 -0.1710
vn -0.8059 0.5878 0.0704
vn -0.9305 -0.2551 -0.2626
vn -0.9049 -0.2978 -0.3042
vn -0.9334 -0.2548 -0.2528
vn -0.9004 -0.3427 -0.2680
vn -0.9355 -0.2668 -0.2317
vn -0.9577 -0.1843 -0.2211
vn -0.9709 0.1569 -0.1810
vn -0.9399 0.2121 -0.2675
vn -0.9331 0.2261 -0.2796
vn -0.8624 0.2247 -0.4537
vn -0.9422 0.3348 -0.0126
vn -0.8964 0.4399 0.0543
vn -0.8921 0.4372 -0.1140
vn -0.9069 0.2535 -0.3365
vn -0.8637 0.4954 -0.0924
vn -0.7683 0.5662 -0.2986
vn -0.1393 -0.9883 -0.0619
vn -0.0689 -0.9879 -0.1387
vn -0.0720 -0.9608 -0.2677
vn -0.0699 -0.9967 -0.0418
vn -0.0650 -0.9794 -0.1912
vn -0.1298 -0.9505 -0.2823
vn -0.0937 -0.9942 -0.0536
vn -0.1410 -0.9746 -0.1740
vn -0.1971 -0.9670 -0.1616
vn -0.6184 -0.7811 0.0866
vn -0.6754 -0.7370 -0.0262
vn -0.6072 -0.7874 0.1064
vn -0.5729 -0.6237 -0.5318
vn -0.5788 -0.5713 -0.5819
vn -0.5754 -0.5667 -0.5897
vn -0.9039 -0.3774 -0.2012
vn -0.8904 -0.3754 -0.2574
vn 0.2340 -0.9722 0.0014
vn 0.3327 -0.9430 -0.0086
vn 0.2688 -0.9628 0.0274
vn -0.0300 0.9971 -0.0698
vn 0.1161 -0.9924 0.0413
vn -0.1231 0.9900 0.0696
vn 0.0497 -0.7641 0.6432
vn 0.0296 -0.7115 0.7020
vn 0.0324 -0.7397 0.6722
vn 0.8979 -0.1607 -0.4098
vn 0.9156 -0.1593 -0.3691
vn 0.9342 -0.1572 -0.3202
vn 0.7982 0.4064 -0.4448
vn 0.7776 0.4209 -0.4671
vn 0.8045 0.4002 -0.4388
vn -0.0235 0.6439 0.7648
vn -0.1747 0.6902 0.7022
vn -0.0837 0.5792 0.8109
vn 0.5327 -0.1843 -0.8260
vn 0.5537 -0.2430 -0.7965
vn 0.5692 -0.3237 -0.7558
vn -0.8658 0.2495 -0.4336
vn -0.5772 -0.8015 0.1562
vn -0.3659 -0.4348 0.8228
vn -0.4685 -0.4609 0.7537
vn -0.4027 -0.6322 0.6619
vn 0.2391 -0.3849 0.8914
vn 0.2397 -0.3864 0.8907
vn 0.2851 -0.3447 0.8944
vn 0.0693 0.5770 0.8138
vn -0.1849 0.5171 -0.8357
vn -0.1612 0.5604 -0.8124
vn -0.0437 0.6139 -0.7882
vn -0.0840 0.6236 -0.7772
vn 0.0989 0.6664 -0.7390
vn -0.6030 -0.1044 0.7909
vn -0.9601 0.2790 0.0206
vn -0.5627 -0.5073 -0.6527
vn 0.3040 -0.3062 -0.9021
vn 0.4557 -0.8901 -0.0097
vn 0.9224 -0.3424 0.1787
vn 0.9035 -0.4016 0.1496
vn 0.9196 -0.3888 0.0559
vn 0.6581 0.7237 0.2078
vn 0.6607 0.6861 0.3045
vn 0.7192 0.6548 0.2322
vn 0.9200 -0.3784 0.1022
vn -0.8578 0.4537 0.2416
vn -0.8281 0.5085 0.2360
vn -0.2143 0.7903 0.5740
vn -0.0977 0.7753 0.6240
vn 0.7323 0.6673 0.1358
vn 0.6446 0.7643 0.0193
vn -0.0660 0.9648 -0.2546
vn 0.2096 -0.4121 0.8867
vn -0.3628 0.2249 0.9043
vn 0.0873 -0.6398 -0.7636
vn 0.0423 -0.5228 -0.8514
vn 0.1385 -0.6390 -0.7566
vn 0.0160 -0.5761 -0.8172
vn -0.4305 0.1744 -0.8856
vn -0.5444 0.1377 -0.8275
vn -0.5298 0.2032 -0.8234
vn -0.5556 -0.4927 -0.6698
vn 0.5841 0.4109 -0.7000
vn 0.5052 -0.0686 -0.8603
vn 0.5088 -0.0707 -0.8580
vn -0.5240 -0.3355 0.7829
vn -0.3591 -0.3721 0.8559
vn -0.4540 0.2897 -0.8426
vn -0.4153 0.3211 -0.8511
vn -0.3793 0.2507 -0.8906
vn 0.2892 0.1082 0.9511
vn 0.3024 0.1064 0.9472
vn 0.2712 0.0801 0.9592
vn 0.8950 0.1369 0.4245
vn 0.5331 0.7497 0.3922
vn -0.1000 -0.7957 -0.5974
vn 0.8763 -0.4800 0.0421
vn 0.4695 -0.5626 -0.6805
vn 0.4245 -0.5330 -0.7319
vn 0.5178 -0.5276 -0.6734
vn -0.1884 -0.3360 0.9228
vn -0.1344 -0.3041 0.9431
vn 0.8694 -0.4255 0.2514
vn 0.3501 -0.6530 0.6716
vn -0.6895 -0.5199 0.5043
vn -0.9540 0.1618 0.2523
vn -0.9468 0.1065 0.3036
vn -0.9522 0.1656 0.2568
vn 0.2401 0.0826 0.9672
vn -0.0061 -0.2877 0.9577
vn -0.5449 0.7752 0.3195
vn -0.5832 0.7472 0.3187
vn -0.5566 0.7669 0.3194
vn -0.1825 0.5521 0.8136
vn -0.2279 0.5706 0.7890
vn -0.2565 0.5036 0.8250
vn 0.0478 -0.3596 -0.9319
vn 0.0118 -0.4434 -0.8962
vn 0.3816 -0.6391 -0.6678
vn 0.5696 -0.8215 -0.0272
vn 0.4233 -0.9055 0.0282
vn -0.4234 -0.6827 0.5956
vn 0.5380 -0.6921 0.4812
vn -0.8762 -0.3726 0.3056
vn -0.6074 -0.7001 0.3753
vn -0.5178 0.7935 0.3197
vn 0.3687 -0.5231 -0.7684
vn -0.2205 -0.1356 -0.9659
vn 0.6124 0.4856 0.6238
vn 0.8926 -0.3743 0.2513
vn 0.1447 0.0798 0.9863
vn -0.0227 0.9737 -0.2267
vn 0.6938 0.6787 -0.2409
vn 0.9832 0.1526 0.0997
vn -0.4326 0.8091 -0.3979
vn -0.6429 0.6075 -0.4665
vn 0.7795 0.4233 -0.4618
vn 0.0547 0.1332 -0.9896
vn 0.1037 0.1029 -0.9893
vn 0.0523 0.1347 -0.9895
vn 0.4420 0.0678 -0.8944
vn -0.8104 0.2159 -0.5446
vn -0.7695 0.1643 -0.6172
vn -0.9140 -0.2781 -0.2953
vn -0.5335 -0.4273 -0.7299
vn -0.8529 0.1501 0.5001
vn -0.9543 0.1867 0.2334
vn -0.9573 0.2085 0.2001
vn 0.8519 -0.5017 0.1500
vn 0.1856 0.9115 0.3670
vn 0.0494 -0.7602 0.6478
vn -0.3293 -0.7760 0.5379
vn 0.0749 0.9879 0.1355
vn 0.4516 0.8920 -0.0207
vn 0.2888 0.8241 -0.4872
vn 0.1956 0.6583 -0.7269
vn 0.1318 0.6557 -0.7434
vn -0.2088 0.9177 -0.3381
vn 0.8220 0.5493 0.1506
vn 0.8457 0.3684 -0.3860
vn 0.2089 -0.4173 0.8845
vn 0.2815 -0.8360 -0.4710
vn 0.3012 -0.7885 -0.5362
vn 0.4036 -0.6513 -0.6425
vn -0.0747 -0.9175 -0.3906
vn -0.3099 0.1370 -0.9409
vn 0.0032 0.1645 -0.9864
vn 0.3750 0.1049 -0.9211
vn 0.7263 -0.3498 0.5917
vn 0.3035 0.0629 0.9508
vn 0.3545 -0.4668 -0.8102
vn 0.6061 -0.0644 -0.7928
vn 0.0865 0.1163 0.9894
vn -0.2122 -0.0753 0.9743
vn -0.8370 0.4139 0.3579
vn -0.5282 0.6325 0.5665
vn 0.7419 -0.4952 -0.4521
vn 0.6525 -0.3332 -0.6806
vn 0.8532 -0.1627 -0.4955
vn 0.6959 0.0044 -0.7181
vn 0.2044 -0.9300 0.3054
vn 0.3766 -0.9233 0.0756
vn -0.7755 -0.0910 -0.6248
vn -0.5970 -0.2080 -0.7748
vn 0.9647 -0.1641 0.2058
vn 0.9387 0.1625 -0.3042
vn 0.0205 -0.5918 0.8058
vn 0.0042 -0.6511 0.7590
vn -0.4497 0.1027 -0.8873
vn 0.6896 0.6650 0.2866
vn 0.2808 0.3072 0.9093
vn -0.6476 0.3730 -0.6645
vn -0.3268 0.9427 0.0673
# 220 vertex normals

vt 0.8000 1.0000 43.3533
vt 0.8000 0.9035 43.3533
vt 0.9000 0.9413 43.3533
vt 0.9000 0.8825 43.3533
vt 0.0000 1.0000 43.3533
vt -0.1000 0.9413 43.3533
vt 0.1000 0.9413 43.3533
vt -0.1000 0.8825 43.3533
vt 0.9000 0.7651 43.3533
vt 0.9633 0.8490 43.3533
vt -0.0367 0.8490 43.3533
vt 0.9467 0.7893 43.3533
vt -0.0533 0.7893 43.3533
vt 0.0533 0.7893 43.3533
vt 0.9788 0.7381 43.3533
vt -0.0212 0.7381 43.3533
vt 0.9656 0.6729 43.3533
vt -0.0344 0.6729 43.3533
vt 0.0344 0.6729 43.3533
vt 0.9656 0.4501 43.3533
vt 0.9165 0.3876 43.3533
vt 0.9819 0.4007 43.3533
vt 0.9679 0.3369 43.3533
vt -0.0181 0.4007 43.3533
vt -0.0321 0.3369 43.3533
vt 0.0181 0.4007 43.3533
vt 0.0000 0.4489 43.3533
vt -0.0344 0.4501 43.3533
vt -0.0167 0.5000 43.3533
vt 0.9833 0.5000 43.3533
vt 0.9328 0.4468 43.3533
vt 0.0328 0.5532 43.3533
vt -0.0328 0.5532 43.3533
vt 0.9672 0.5532 43.3533
vt -0.0165 0.6124 43.3533
vt 0.9835 0.6124 43.3533
vt 0.9181 0.5993 43.3533
vt 0.7000 0.0000 43.3533
vt 0.8000 0.0587 43.3533
vt 0.7000 0.0965 43.3533
vt -0.1000 0.0000 43.3533
vt 0.2000 0.1175 43.3533
vt -0.2000 0.0587 43.3533
vt -0.1000 0.0965 43.3533
vt 0.9000 0.0965 43.3533
vt 0.9000 0.2019 43.3533
vt 0.0633 0.1510 43.3533
vt -0.0633 0.1510 43.3533
vt 0.9367 0.1510 43.3533
vt -0.0467 0.2107 43.3533
vt 0.9533 0.2107 43.3533
vt 0.0000 0.2937 43.3533
vt -0.0377 0.2729 43.3533
vt 0.9623 0.2729 43.3533
vt 0.5000 0.0000 43.3533
vt 0.3000 0.0965 43.3533
vt 0.6000 1.0000 43.3533
vt 0.5000 0.8825 43.3533
vt 0.3000 0.0000 43.3533
vt 0.2000 1.0000 43.3533
vt 0.3000 0.8825 43.3533
vt 0.3533 0.2107 43.3533
vt 0.3212 0.2619 43.3533
vt 0.2000 0.1762 43.3533
vt 0.5656 0.4501 43.3533
vt 0.5672 0.5532 43.3533
vt 0.5344 0.5499 43.3533
vt 0.6212 0.7381 43.3533
vt 0.5321 0.6631 43.3533
vt 0.3467 0.7893 43.3533
vt 0.2000 0.7981 43.3533
vt 0.2819 0.5993 43.3533
vt 0.7000 0.4456 43.3533
vt 0.5833 0.5000 43.3533
vt 0.5819 0.4007 43.3533
vt 0.2377 0.2729 43.3533
vt 0.0656 0.3271 43.3533
vt 0.3000 0.4456 43.3533
vt 0.3679 0.3369 43.3533
vt 0.3656 0.4501 43.3533
vt 0.3656 0.6729 43.3533
vt 0.7505 0.6079 43.3533
vt 0.8212 0.7381 43.3533
vt 0.7000 0.6476 43.3533
vt 0.7467 0.7893 43.3533
vt 0.6533 0.7893 43.3533
vt 0.1181 0.5993 43.3533
vt 0.0672 0.4468 43.3533
vt 0.1833 0.5000 43.3533
vt 0.7000 0.5511 43.3533
vt 0.7344 0.3271 43.3533
vt 0.7500 0.5000 43.3533
vt 0.6000 0.1762 43.3533
vt 0.4328 0.5532 43.3533
vt 0.4505 0.3921 43.3533
vt 0.4367 0.8490 43.3533
vt 0.4495 0.6079 43.3533
vt 0.1000 0.5511 43.3533
vt 0.1000 0.6476 43.3533
vt 0.1633 0.8490 43.3533
vt 0.6000 0.7981 43.3533
vt 0.2656 0.3271 43.3533
vt 0.2328 0.5532 43.3533
vt 0.7367 0.1510 43.3533
vt 0.7000 0.2019 43.3533
vt 0.8377 0.2729 43.3533
vt 0.8167 0.5000 43.3533
vt 0.9000 0.4456 43.3533
vt 0.9000 0.5511 43.3533
vt 0.6165 0.6124 43.3533
vt 0.6679 0.6631 43.3533
vt 0.8679 0.6631 43.3533
vt 0.3833 0.5000 43.3533
vt 0.3835 0.6124 43.3533
vt 0.4000 1.0000 43.3533
vt 0.5623 0.2729 43.3533
vt 0.6505 0.3921 43.3533
vt 0.2500 0.5000 43.3533
vt 0.1377 0.7271 43.3533
vt 0.8181 0.4007 43.3533
vt 0.4000 0.2349 43.3533
vt 0.5181 0.5993 43.3533
# 122 texture coords

g GeoSphere001
usemtl Material__33
s 1
f 1/1/1 2/2/2 3/3/3 
f 3/3/3 2/2/2 4/4/4 
f 1/5/1 3/6/3 5/7/5 
f 3/6/3 4/8/4 5/7/5 
f 4/4/4 6/9/6 7/10/7 
f 4/8/4 7/11/7 5/7/5 
f 6/9/6 8/12/8 7/10/7 
f 7/11/7 8/13/8 9/14/9 
f 8/12/8 6/9/6 10/15/10 
f 8/13/8 10/16/10 9/14/9 
f 6/9/6 11/17/11 10/15/10 
f 10/16/10 11/18/11 12/19/12 
s 2
f 13/20/13 14/21/14 15/22/15 
f 14/21/14 16/23/16 15/22/15 
f 15/24/15 16/25/16 17/26/17 
f 15/24/15 18/27/18 13/28/13 
s 4
f 18/27/19 19/29/20 13/28/21 
f 13/20/21 19/30/20 20/31/22 
s 1
f 19/29/23 21/32/24 22/33/25 
s 4
f 19/30/20 22/34/26 20/31/22 
s 1
f 21/32/24 23/35/27 22/33/25 
f 22/34/25 23/36/27 24/37/28 
f 23/35/27 12/19/12 11/18/11 
f 23/36/27 11/17/11 24/37/28 
f 25/38/29 26/39/30 27/40/31 
f 25/41/29 28/42/32 26/43/30 
f 28/42/32 29/44/33 26/43/30 
f 26/39/30 29/45/33 30/46/34 
f 31/47/35 32/48/36 29/44/33 
f 29/45/33 32/49/36 30/46/34 
f 31/47/35 33/50/37 32/48/36 
f 32/49/36 33/51/37 30/46/34 
s 4
f 34/52/38 35/53/39 33/50/40 
s 8
f 33/51/41 35/54/42 30/46/43 
s 2
f 34/52/44 16/25/16 35/53/45 
f 35/54/45 16/23/16 14/21/14 
f 25/55/46 27/40/47 36/56/48 
s 1
f 1/57/1 37/58/49 2/2/2 
s 2
f 25/59/46 36/56/48 28/42/50 
s 1
f 1/60/1 5/7/5 38/61/51 
s 4
f 39/62/52 40/63/53 41/64/54 
s 1
f 42/65/55 43/66/56 44/67/57 
s 2
f 43/66/58 45/68/59 46/69/60 
f 47/70/61 48/71/62 49/72/63 
s 4
f 50/73/64 51/74/65 52/75/66 
f 20/31/22 22/34/26 24/37/67 
f 31/47/68 34/52/38 33/50/40 
s 8
f 53/76/69 54/77/70 41/64/71 
s 1
f 55/78/72 56/79/73 57/80/74 
s 2
f 47/70/61 49/72/63 58/81/75 
s 8
f 59/82/76 60/83/77 61/84/78 
f 62/85/79 63/86/80 61/84/78 
s 4
f 64/87/81 65/88/81 66/89/81 
s 1
f 18/27/82 21/32/24 19/29/23 
s 8
f 35/54/42 14/21/83 30/46/43 
s 1
f 67/90/84 68/91/84 69/92/84 
s 2
f 27/40/47 70/93/85 36/56/48 
s 8
f 71/94/86 72/95/87 42/65/88 
s 4
f 73/96/89 58/81/90 74/97/91 
s 8
f 71/94/86 42/65/88 44/67/92 
s 1
f 75/98/93 76/99/94 21/32/24 
s 2
f 77/100/95 48/71/62 38/61/96 
s 4
f 73/96/89 46/69/97 78/101/98 
s 1
f 37/58/49 63/86/99 2/2/2 
f 55/78/72 79/102/100 56/79/73 
s 16
f 66/89/101 80/103/101 64/87/101 
s 2
f 81/104/102 68/91/103 82/105/104 
f 81/104/102 83/106/105 68/91/103 
s 16
f 84/107/106 85/108/107 86/109/108 
s 8
f 30/46/43 14/21/83 83/106/109 
s 1
f 87/110/110 88/111/110 45/68/110 
s 4
f 50/73/64 67/90/111 87/110/112 
s 8
f 65/88/113 54/77/70 66/89/114 
s 2
f 34/52/44 17/26/17 16/25/16 
s 1
f 6/9/6 24/37/28 11/17/11 
s 16
f 89/112/115 60/83/116 59/82/117 
s 32
f 90/113/118 91/114/119 55/78/120 
s 1
f 90/113/121 74/97/121 91/114/121 
s 4
f 47/70/122 58/81/90 73/96/89 
s 1
f 1/115/1 38/61/51 37/58/49 
s 4
f 30/46/123 83/106/123 81/104/123 
s 1
f 26/39/30 30/46/34 27/40/31 
s 8
f 72/95/87 92/116/124 42/65/88 
s 16
f 92/116/125 93/117/126 52/75/127 
s 8
f 79/102/128 94/118/129 66/89/114 
f 53/76/69 66/89/114 54/77/70 
f 72/95/87 71/94/86 56/79/130 
s 16
f 39/62/131 56/79/131 40/63/131 
s 1
f 9/14/9 12/19/12 76/99/94 
f 10/16/10 12/19/12 9/14/9 
f 17/26/132 34/52/132 65/88/132 
s 16
f 75/98/133 21/32/134 18/27/135 
s 32
f 55/78/120 91/114/119 49/72/136 
s 8
f 94/118/129 79/102/128 55/78/137 
s 1
f 4/4/4 2/2/2 6/9/6 
s 8
f 62/85/79 61/84/78 60/83/77 
s 4
f 9/14/138 76/99/139 95/119/140 
s 2
f 80/103/141 95/119/142 64/87/143 
s 16
f 84/107/106 89/112/115 59/82/117 
s 2
f 69/92/144 68/91/103 96/120/145 
s 16
f 82/105/146 93/117/126 92/116/125 
s 2
f 70/93/85 92/116/147 97/121/148 
s 1
f 28/42/32 31/47/35 29/44/33 
s 8
f 31/47/149 41/64/71 54/77/70 
s 2
f 70/93/85 97/121/148 36/56/48 
s 32
f 97/121/150 56/79/150 39/62/150 
f 65/88/151 34/52/151 54/77/151 
s 16
f 31/47/152 54/77/152 34/52/152 
s 4
f 9/14/138 95/119/140 77/100/153 
s 1
f 7/11/7 9/14/9 5/7/5 
s 16
f 82/105/146 68/91/154 93/117/126 
s 8
f 67/90/155 50/73/155 68/91/155 
s 2
f 71/94/156 74/97/156 90/113/156 
s 8
f 56/79/130 71/94/86 90/113/157 
s 32
f 49/72/136 94/118/158 55/78/120 
s 2
f 80/103/141 49/72/63 95/119/142 
s 1
f 37/58/49 78/101/159 63/86/99 
s 16
f 78/101/160 46/69/160 45/68/160 
s 4
f 73/96/89 74/97/91 46/69/97 
s 16
f 74/97/161 71/94/161 44/67/161 
s 1
f 2/2/2 60/83/162 6/9/6 
f 60/83/162 89/112/163 6/9/6 
s 2
f 87/110/164 45/68/59 43/66/58 
s 4
f 50/73/64 87/110/112 51/74/65 
s 32
f 61/84/165 67/90/166 69/92/167 
s 4
f 67/90/111 88/111/168 87/110/112 
f 86/109/169 85/108/170 20/31/22 
s 2
f 20/31/171 14/21/14 13/20/13 
s 1
f 6/9/6 89/112/163 24/37/28 
s 4
f 86/109/169 20/31/22 24/37/67 
s 2
f 96/120/145 68/91/103 83/106/105 
s 8
f 96/120/172 83/106/109 14/21/83 
s 64
f 75/98/173 65/88/173 64/87/173 
s 16
f 75/98/133 17/26/174 65/88/175 
s 8
f 97/121/176 72/95/87 56/79/130 
f 97/121/176 92/116/124 72/95/87 
f 38/61/177 47/70/177 73/96/177 
s 2
f 38/61/96 48/71/62 47/70/61 
s 4
f 28/42/178 39/62/52 41/64/54 
s 8
f 28/42/179 41/64/71 31/47/149 
s 1
f 38/61/51 73/96/180 37/58/49 
s 2
f 73/96/181 78/101/181 37/58/181 
s 32
f 78/101/182 45/68/182 63/86/182 
s 8
f 45/68/183 88/111/184 63/86/80 
s 1
f 2/2/2 62/85/185 60/83/162 
f 2/2/2 63/86/99 62/85/185 
s 4
f 98/122/186 46/69/97 74/97/91 
s 2
f 43/66/58 46/69/60 98/122/187 
s 8
f 53/76/69 79/102/128 66/89/114 
s 1
f 40/63/188 56/79/73 79/102/100 
s 16
f 27/40/189 81/104/190 70/93/191 
s 1
f 30/46/34 81/104/192 27/40/31 
s 16
f 84/107/106 59/82/117 69/92/193 
s 32
f 69/92/167 59/82/194 61/84/165 
s 4
f 67/90/111 61/84/195 88/111/168 
s 8
f 63/86/80 88/111/184 61/84/78 
s 4
f 56/79/196 90/113/196 57/80/196 
s 32
f 57/80/197 90/113/118 55/78/120 
s 16
f 93/117/126 68/91/154 50/73/198 
s 1
f 50/73/199 52/75/199 93/117/199 
s 32
f 94/118/158 49/72/136 80/103/200 
s 1
f 94/118/201 80/103/201 66/89/201 
f 76/99/94 75/98/93 64/87/202 
s 8
f 64/87/203 95/119/203 76/99/203 
s 32
f 42/65/204 92/116/204 52/75/204 
s 4
f 52/75/66 51/74/65 42/65/205 
s 2
f 77/100/95 95/119/142 48/71/62 
f 48/71/62 95/119/142 49/72/63 
s 1
f 51/74/206 43/66/56 42/65/55 
s 8
f 51/74/207 87/110/207 43/66/207 
s 16
f 70/93/191 82/105/146 92/116/125 
f 81/104/190 82/105/146 70/93/191 
s 64
f 36/56/208 39/62/208 28/42/208 
s 2
f 36/56/48 97/121/148 39/62/209 
s 1
f 76/99/94 12/19/12 21/32/24 
f 21/32/24 12/19/12 23/35/27 
f 85/108/210 14/21/210 20/31/210 
s 32
f 85/108/211 96/120/211 14/21/211 
f 74/97/212 44/67/212 98/122/212 
s 64
f 43/66/213 98/122/213 44/67/213 
s 4
f 40/63/53 79/102/214 53/76/215 
f 41/64/54 40/63/53 53/76/215 
s 2
f 17/26/17 18/27/18 15/24/15 
s 16
f 17/26/174 75/98/133 18/27/135 
f 96/120/216 84/107/106 69/92/193 
f 84/107/106 96/120/216 85/108/107 
s 4
f 74/97/91 58/81/90 91/114/217 
s 8
f 91/114/218 58/81/218 49/72/218 
s 2
f 86/109/219 24/37/219 89/112/219 
s 16
f 86/109/108 89/112/115 84/107/106 
s 1
f 5/7/5 9/14/9 77/100/220 
f 5/7/5 77/100/220 38/61/51 
# 0 polygons - 192 triangles

