# 3ds Max Wavefront OBJ Exporter v0.97b - (c)2007 guruware
# File Created: 18.04.2018 13:09:10

mtllib vine02.mtl

#
# object Plane001
#

v  -138.9485 0.0000 224.2972
v  -276.5165 0.0000 224.2972
v  -276.5165 0.0000 398.6617
v  -138.9485 0.0000 398.6617
v  -1.3805 0.0000 224.2972
v  -1.3805 0.0000 398.6617
v  136.1875 0.0000 224.2972
v  136.1875 0.0000 398.6617
v  273.7555 0.0000 224.2972
v  273.7555 0.0000 398.6617
v  -138.9485 0.0000 49.9326
v  -276.5165 0.0000 49.9326
v  -1.3805 0.0000 49.9326
v  136.1875 0.0000 49.9326
v  273.7555 0.0000 49.9326
v  -138.9485 0.0000 -124.4320
v  -276.5165 0.0000 -124.4320
v  -1.3805 0.0000 -124.4320
v  136.1875 0.0000 -124.4320
v  273.7555 0.0000 -124.4320
v  -138.9485 0.0000 -298.7966
v  -276.5165 0.0000 -298.7966
v  -1.3805 0.0000 -298.7966
v  136.1875 0.0000 -298.7966
v  273.7555 0.0000 -298.7966
# 25 vertices

vn 0.0000 1.0000 -0.0000
# 1 vertex normals

vt 0.2500 0.2500 0.0000
vt 0.0000 0.2500 0.0000
vt 0.0000 0.0000 0.0000
vt 0.2500 0.0000 0.0000
vt 0.5000 0.2500 0.0000
vt 0.5000 0.0000 0.0000
vt 0.7500 0.2500 0.0000
vt 0.7500 0.0000 0.0000
vt 1.0000 0.2500 0.0000
vt 1.0000 0.0000 0.0000
vt 0.2500 0.5000 0.0000
vt 0.0000 0.5000 0.0000
vt 0.5000 0.5000 0.0000
vt 0.7500 0.5000 0.0000
vt 1.0000 0.5000 0.0000
vt 0.2500 0.7500 0.0000
vt 0.0000 0.7500 0.0000
vt 0.5000 0.7500 0.0000
vt 0.7500 0.7500 0.0000
vt 1.0000 0.7500 0.0000
vt 0.2500 1.0000 0.0000
vt 0.0000 1.0000 0.0000
vt 0.5000 1.0000 0.0000
vt 0.7500 1.0000 0.0000
vt 1.0000 1.0000 0.0000
# 25 texture coords

g Plane001
usemtl Material__2
s off
f 1/1/1 2/2/1 3/3/1 
f 1/1/1 3/3/1 4/4/1 
f 5/5/1 1/1/1 4/4/1 
f 5/5/1 4/4/1 6/6/1 
f 7/7/1 5/5/1 6/6/1 
f 7/7/1 6/6/1 8/8/1 
f 9/9/1 7/7/1 8/8/1 
f 9/9/1 8/8/1 10/10/1 
f 11/11/1 12/12/1 2/2/1 
f 11/11/1 2/2/1 1/1/1 
f 13/13/1 11/11/1 1/1/1 
f 13/13/1 1/1/1 5/5/1 
f 14/14/1 13/13/1 5/5/1 
f 14/14/1 5/5/1 7/7/1 
f 15/15/1 14/14/1 7/7/1 
f 15/15/1 7/7/1 9/9/1 
f 16/16/1 17/17/1 12/12/1 
f 16/16/1 12/12/1 11/11/1 
f 18/18/1 16/16/1 11/11/1 
f 18/18/1 11/11/1 13/13/1 
f 19/19/1 18/18/1 13/13/1 
f 19/19/1 13/13/1 14/14/1 
f 20/20/1 19/19/1 14/14/1 
f 20/20/1 14/14/1 15/15/1 
f 21/21/1 22/22/1 17/17/1 
f 21/21/1 17/17/1 16/16/1 
f 23/23/1 21/21/1 16/16/1 
f 23/23/1 16/16/1 18/18/1 
f 24/24/1 23/23/1 18/18/1 
f 24/24/1 18/18/1 19/19/1 
f 25/25/1 24/24/1 19/19/1 
f 25/25/1 19/19/1 20/20/1 
# 0 polygons - 32 triangles

#
# object Plane002
#

v  61.2087 12.7030 70.3514
v  78.8349 12.7030 -19.9867
v  -2.9859 12.7030 57.8262
v  14.6403 12.7030 -32.5119
v  -8.9630 7.2181 -213.1001
v  -30.5431 16.5829 -124.1155
v  54.6189 8.8231 -197.8495
v  33.0390 18.1879 -108.8648
v  -54.7700 3.6951 -113.6135
v  -54.5308 19.6491 -22.9653
v  10.6349 3.6656 -113.7809
v  10.8741 19.6196 -23.1328
v  75.3159 21.7846 -62.0841
v  30.9208 3.6215 -164.3028
v  11.3989 19.3576 -75.7424
v  94.8378 6.0484 -150.6444
v  -82.3671 6.3876 -255.9621
v  -37.0170 19.0185 -153.3302
v  -18.3249 8.0100 -242.7789
v  -101.0592 17.3960 -166.5134
v  75.8210 12.7030 -39.2551
v  -5.1612 12.7030 4.4890
v  106.9058 12.7030 18.2911
v  25.9236 12.7030 62.0352
v  65.2000 18.6686 -133.0814
v  25.3612 6.7375 -238.0577
v  1.9466 16.7896 -149.6135
v  88.6146 8.6164 -221.5257
v  -49.8547 12.7030 -170.0898
v  -15.7145 12.7030 -277.7185
v  -77.9891 12.7030 -257.7261
v  12.4199 12.7030 -190.0822
v  -152.8715 19.4253 -167.2295
v  -88.6745 21.5870 -154.9043
v  -71.0652 5.9807 -243.8876
v  -135.2621 3.8191 -256.2126
v  116.6868 16.8415 -158.5116
v  120.9613 8.8293 -250.1042
v  51.3522 16.5768 -161.5376
v  55.6267 8.5646 -253.1302
v  52.8633 15.9309 -176.9216
v  -11.2060 9.4752 -269.6736
v  -12.5349 15.8653 -177.8637
v  54.1924 9.5407 -268.7315
v  -74.9815 20.6027 -114.9859
v  8.4299 4.8033 -189.4332
v  -55.4922 1.9282 -202.9808
v  -11.0594 23.4778 -101.4384
v  25.1327 12.7030 96.6151
v  0.1188 12.7030 8.0377
v  -37.8108 12.7030 114.3901
v  -62.8247 12.7030 25.8127
v  62.5873 6.2068 -161.3108
v  126.9635 19.1993 -69.4609
v  127.9884 6.3088 -160.5897
v  61.5624 19.0973 -70.1820
v  -5.9371 8.5196 154.8020
v  -63.4196 8.5196 57.3509
v  -60.5595 8.5196 157.4487
v  -8.7973 8.5196 54.7042
# 60 vertices

vn 0.0000 1.0000 -0.0000
# 1 vertex normals

vt 1.0000 0.0000 0.0000
vt 1.0000 1.0000 0.0000
vt 0.0000 0.0000 0.0000
vt 0.0000 1.0000 0.0000
# 4 texture coords

g Plane002
usemtl Material__3
s off
f 26/26/2 27/27/2 28/28/2 
f 28/28/2 27/27/2 29/29/2 
f 30/26/2 31/27/2 32/28/2 
f 32/28/2 31/27/2 33/29/2 
f 34/26/2 35/27/2 36/28/2 
f 37/29/2 36/28/2 35/27/2 
f 38/29/2 39/26/2 40/27/2 
f 39/26/2 38/29/2 41/28/2 
f 42/26/2 43/29/2 44/28/2 
f 43/29/2 42/26/2 45/27/2 
f 46/26/2 47/27/2 48/28/2 
f 48/28/2 47/27/2 49/29/2 
f 50/29/2 51/26/2 52/27/2 
f 51/26/2 50/29/2 53/28/2 
f 54/27/2 55/28/2 56/26/2 
f 55/28/2 54/27/2 57/29/2 
f 58/27/2 59/29/2 60/28/2 
f 58/27/2 60/28/2 61/26/2 
f 62/29/2 63/28/2 64/27/2 
f 63/28/2 65/26/2 64/27/2 
f 66/29/2 67/26/2 68/27/2 
f 67/26/2 66/29/2 69/28/2 
f 70/27/2 71/28/2 72/26/2 
f 71/28/2 70/27/2 73/29/2 
f 74/29/2 75/28/2 76/27/2 
f 75/28/2 77/26/2 76/27/2 
f 78/26/2 79/29/2 80/28/2 
f 79/29/2 78/26/2 81/27/2 
f 82/29/2 83/26/2 84/27/2 
f 83/26/2 82/29/2 85/28/2 
# 0 polygons - 30 triangles

#
# object Plane004
#

v  -175.2751 25.5145 77.1283
v  -274.3687 7.0213 68.9356
v  -283.1326 7.0213 174.9400
v  -184.0391 25.5145 183.1326
v  -76.1815 49.5317 85.3209
v  -84.9455 49.5317 191.3252
v  22.9120 26.9305 93.5135
v  14.1481 26.9305 199.5179
v  122.0056 13.1223 101.7061
v  113.2416 13.1223 207.7105
v  -166.5111 25.5145 -28.8761
v  -265.6047 7.0213 -37.0687
v  -67.4175 49.5317 -20.6835
v  31.6760 26.9305 -12.4908
v  130.7696 13.1223 -4.2982
v  -157.7471 25.5145 -134.8805
v  -256.8407 7.0213 -143.0731
v  -58.6536 49.5317 -126.6878
v  40.4400 26.9305 -118.4952
v  139.5336 13.1223 -110.3026
v  -148.9832 25.5145 -240.8848
v  -248.0767 7.0213 -249.0775
v  -49.8896 49.5317 -232.6922
v  49.2040 26.9305 -224.4996
v  148.2976 13.1223 -216.3070
# 25 vertices

vn 0.0000 1.0000 -0.0000
# 1 vertex normals

vt 0.2500 0.2500 0.0000
vt 0.0000 0.2500 0.0000
vt 0.0000 0.0000 0.0000
vt 0.2500 0.0000 0.0000
vt 0.5000 0.2500 0.0000
vt 0.5000 0.0000 0.0000
vt 0.7500 0.2500 0.0000
vt 0.7500 0.0000 0.0000
vt 1.0000 0.2500 0.0000
vt 1.0000 0.0000 0.0000
vt 0.2500 0.5000 0.0000
vt 0.0000 0.5000 0.0000
vt 0.5000 0.5000 0.0000
vt 0.7500 0.5000 0.0000
vt 1.0000 0.5000 0.0000
vt 0.2500 0.7500 0.0000
vt 0.0000 0.7500 0.0000
vt 0.5000 0.7500 0.0000
vt 0.7500 0.7500 0.0000
vt 1.0000 0.7500 0.0000
vt 0.2500 1.0000 0.0000
vt 0.0000 1.0000 0.0000
vt 0.5000 1.0000 0.0000
vt 0.7500 1.0000 0.0000
vt 1.0000 1.0000 0.0000
# 25 texture coords

g Plane004
usemtl Material__2
s off
f 86/30/3 87/31/3 88/32/3 
f 86/30/3 88/32/3 89/33/3 
f 90/34/3 86/30/3 89/33/3 
f 90/34/3 89/33/3 91/35/3 
f 92/36/3 90/34/3 91/35/3 
f 92/36/3 91/35/3 93/37/3 
f 94/38/3 92/36/3 93/37/3 
f 94/38/3 93/37/3 95/39/3 
f 96/40/3 97/41/3 87/31/3 
f 96/40/3 87/31/3 86/30/3 
f 98/42/3 96/40/3 86/30/3 
f 98/42/3 86/30/3 90/34/3 
f 99/43/3 98/42/3 90/34/3 
f 99/43/3 90/34/3 92/36/3 
f 100/44/3 99/43/3 92/36/3 
f 100/44/3 92/36/3 94/38/3 
f 101/45/3 102/46/3 97/41/3 
f 101/45/3 97/41/3 96/40/3 
f 103/47/3 101/45/3 96/40/3 
f 103/47/3 96/40/3 98/42/3 
f 104/48/3 103/47/3 98/42/3 
f 104/48/3 98/42/3 99/43/3 
f 105/49/3 104/48/3 99/43/3 
f 105/49/3 99/43/3 100/44/3 
f 106/50/3 107/51/3 102/46/3 
f 106/50/3 102/46/3 101/45/3 
f 108/52/3 106/50/3 101/45/3 
f 108/52/3 101/45/3 103/47/3 
f 109/53/3 108/52/3 103/47/3 
f 109/53/3 103/47/3 104/48/3 
f 110/54/3 109/53/3 104/48/3 
f 110/54/3 104/48/3 105/49/3 
# 0 polygons - 32 triangles

#
# object Plane005
#

v  -75.4716 52.4939 -176.1352
v  -91.4770 59.4396 -110.1375
v  -28.3145 53.6843 -164.8242
v  -44.3198 60.6300 -98.8265
v  -97.7828 49.0352 -101.9269
v  -97.6053 60.8680 -34.6954
v  -49.2735 49.0134 -102.0511
v  -49.0962 60.8461 -34.8196
v  -14.8087 55.9670 -78.9230
v  -47.7355 42.4959 -154.7361
v  -62.2144 54.1670 -89.0531
v  -0.3299 44.2959 -144.6060
v  -169.0530 30.1555 -217.5087
v  -135.4180 39.5235 -141.3890
v  -121.5546 31.3588 -207.7309
v  -182.9166 38.3202 -151.1668
v  -11.8791 53.6560 -146.6406
v  -41.4266 44.8070 -224.4989
v  -58.7927 52.2624 -158.9021
v  5.4868 46.2005 -212.2375
v  -89.4009 52.7964 -129.3518
v  -64.0799 52.7964 -209.1774
v  -110.2674 52.7964 -194.3495
v  -43.2133 52.7964 -144.1796
v  -180.8702 38.2759 -124.3164
v  -133.2568 39.8791 -115.1750
v  -120.1965 28.3043 -181.1717
v  -167.8098 26.7011 -190.3129
v  31.0797 52.3009 -126.0192
v  34.2500 46.3584 -193.9512
v  -17.3773 52.1045 -128.2636
v  -14.2070 46.1621 -196.1955
v  -24.0832 55.1904 -154.9678
v  -71.6017 50.4024 -223.7597
v  -72.5875 55.1418 -155.6666
v  -23.0974 50.4510 -223.0610
v  -136.1415 55.0905 -124.6018
v  -74.2773 43.3725 -179.8176
v  -121.6866 41.2401 -189.8654
v  -88.7320 57.2229 -114.5539
v  -1.0312 44.4134 -149.4473
v  46.7150 54.0496 -81.3246
v  47.4752 44.4890 -148.9125
v  -1.7914 53.9739 -81.8594
v  -63.9449 49.2315 85.9599
v  -114.9590 49.2315 19.5459
v  -112.4207 49.2315 87.7636
v  -66.4832 49.2315 17.7421
# 48 vertices

vn 0.0000 1.0000 -0.0000
# 1 vertex normals

vt 1.0000 0.0000 0.0000
vt 1.0000 1.0000 0.0000
vt 0.0000 0.0000 0.0000
vt 0.0000 1.0000 0.0000
# 4 texture coords

g Plane005
usemtl Material__3
s off
f 111/55/4 112/56/4 113/57/4 
f 113/57/4 112/56/4 114/58/4 
f 115/55/4 116/56/4 117/57/4 
f 118/58/4 117/57/4 116/56/4 
f 119/58/4 120/55/4 121/56/4 
f 120/55/4 119/58/4 122/57/4 
f 123/55/4 124/58/4 125/57/4 
f 124/58/4 123/55/4 126/56/4 
f 127/58/4 128/55/4 129/56/4 
f 128/55/4 127/58/4 130/57/4 
f 131/56/4 132/57/4 133/55/4 
f 132/57/4 131/56/4 134/58/4 
f 135/56/4 136/58/4 137/57/4 
f 135/56/4 137/57/4 138/55/4 
f 139/58/4 140/57/4 141/56/4 
f 140/57/4 142/55/4 141/56/4 
f 143/58/4 144/55/4 145/56/4 
f 144/55/4 143/58/4 146/57/4 
f 147/56/4 148/57/4 149/55/4 
f 148/57/4 147/56/4 150/58/4 
f 151/55/4 152/58/4 153/57/4 
f 152/58/4 151/55/4 154/56/4 
f 155/58/4 156/55/4 157/56/4 
f 156/55/4 155/58/4 158/57/4 
# 0 polygons - 24 triangles

#
# object Plane006
#

v  142.6472 2.5229 93.3794
v  241.7218 -15.9703 101.7972
v  232.7169 -15.9702 207.7814
v  133.6423 2.5230 199.3635
v  43.5724 26.5401 84.9616
v  34.5676 26.5402 190.9457
v  -55.5023 3.9389 76.5438
v  -64.5071 3.9390 182.5279
v  -154.5770 -9.8693 68.1260
v  -163.5819 -9.8692 174.1101
v  151.6520 2.5229 -12.6048
v  250.7267 -15.9703 -4.1870
v  52.5773 26.5401 -21.0226
v  -46.4974 3.9389 -29.4404
v  -145.5721 -9.8694 -37.8582
v  160.6569 2.5228 -118.5890
v  259.7315 -15.9704 -110.1712
v  61.5821 26.5400 -127.0068
v  -37.4926 3.9388 -135.4246
v  -136.5673 -9.8694 -143.8424
v  169.6617 2.5228 -224.5732
v  268.7364 -15.9705 -216.1553
v  70.5870 26.5400 -232.9909
v  -28.4877 3.9388 -241.4087
v  -127.5624 -9.8695 -249.8265
# 25 vertices

vn 0.0000 1.0000 -0.0000
# 1 vertex normals

vt 0.2500 0.2500 0.0000
vt 0.0000 0.2500 0.0000
vt 0.0000 0.0000 0.0000
vt 0.2500 0.0000 0.0000
vt 0.5000 0.2500 0.0000
vt 0.5000 0.0000 0.0000
vt 0.7500 0.2500 0.0000
vt 0.7500 0.0000 0.0000
vt 1.0000 0.2500 0.0000
vt 1.0000 0.0000 0.0000
vt 0.2500 0.5000 0.0000
vt 0.0000 0.5000 0.0000
vt 0.5000 0.5000 0.0000
vt 0.7500 0.5000 0.0000
vt 1.0000 0.5000 0.0000
vt 0.2500 0.7500 0.0000
vt 0.0000 0.7500 0.0000
vt 0.5000 0.7500 0.0000
vt 0.7500 0.7500 0.0000
vt 1.0000 0.7500 0.0000
vt 0.2500 1.0000 0.0000
vt 0.0000 1.0000 0.0000
vt 0.5000 1.0000 0.0000
vt 0.7500 1.0000 0.0000
vt 1.0000 1.0000 0.0000
# 25 texture coords

g Plane006
usemtl Material__2
s off
f 161/61/5 160/60/5 159/59/5 
f 162/62/5 161/61/5 159/59/5 
f 162/62/5 159/59/5 163/63/5 
f 164/64/5 162/62/5 163/63/5 
f 164/64/5 163/63/5 165/65/5 
f 166/66/5 164/64/5 165/65/5 
f 166/66/5 165/65/5 167/67/5 
f 168/68/5 166/66/5 167/67/5 
f 160/60/5 170/70/5 169/69/5 
f 159/59/5 160/60/5 169/69/5 
f 159/59/5 169/69/5 171/71/5 
f 163/63/5 159/59/5 171/71/5 
f 163/63/5 171/71/5 172/72/5 
f 165/65/5 163/63/5 172/72/5 
f 165/65/5 172/72/5 173/73/5 
f 167/67/5 165/65/5 173/73/5 
f 170/70/5 175/75/5 174/74/5 
f 169/69/5 170/70/5 174/74/5 
f 169/69/5 174/74/5 176/76/5 
f 171/71/5 169/69/5 176/76/5 
f 171/71/5 176/76/5 177/77/5 
f 172/72/5 171/71/5 177/77/5 
f 172/72/5 177/77/5 178/78/5 
f 173/73/5 172/72/5 178/78/5 
f 175/75/5 180/80/5 179/79/5 
f 174/74/5 175/75/5 179/79/5 
f 174/74/5 179/79/5 181/81/5 
f 176/76/5 174/74/5 181/81/5 
f 176/76/5 181/81/5 182/82/5 
f 177/77/5 176/76/5 182/82/5 
f 177/77/5 182/82/5 183/83/5 
f 178/78/5 177/77/5 183/83/5 
# 0 polygons - 32 triangles

#
# object Plane007
#

v  86.1305 29.5025 -173.4873
v  91.0118 36.4481 -105.7523
v  37.7527 30.6929 -170.1230
v  42.6339 37.6385 -102.3880
v  95.8745 26.0438 -96.6127
v  84.5916 37.8765 -30.3344
v  48.0524 26.0219 -104.7498
v  36.7696 37.8546 -38.4715
v  10.2400 32.9756 -87.6338
v  55.2401 19.5045 -156.9648
v  58.6678 31.1756 -89.7923
v  6.8122 21.3045 -154.8063
v  185.2615 7.1641 -198.8308
v  139.5123 16.5321 -129.3144
v  136.8004 8.3674 -197.0350
v  187.9736 15.3288 -131.1101
v  18.5389 30.6645 -154.9047
v  60.5440 21.8156 -226.8112
v  66.8336 29.2710 -159.2467
v  12.2495 23.2091 -222.4694
v  92.1389 29.8050 -125.0455
v  80.3545 29.8050 -207.9575
v  123.4574 29.8050 -185.7024
v  49.0358 29.8050 -147.3006
v  181.5192 15.2844 -104.9668
v  133.0498 16.8877 -103.8178
v  131.0729 5.3129 -171.0652
v  179.5421 3.7097 -172.2142
v  -27.2366 29.3094 -141.6643
v  -19.1397 23.3670 -209.1866
v  20.9253 29.1131 -135.8719
v  29.0222 23.1707 -203.3941
v  31.9510 32.1990 -161.1012
v  90.1822 27.4110 -221.0967
v  79.9042 32.1504 -153.7765
v  42.2291 27.4596 -228.4214
v  137.4523 32.0990 -112.6383
v  85.5610 20.3810 -177.3164
v  133.9789 18.2487 -179.3932
v  89.0343 34.2314 -110.5615
v  8.3038 21.4219 -159.4652
v  -50.0414 31.0581 -100.1672
v  -39.6244 21.4976 -166.9518
v  -2.1133 30.9825 -92.6805
v  31.4592 26.2399 83.1014
v  92.7451 26.2400 26.0286
v  78.9708 26.2399 92.8895
v  45.2335 26.2400 16.2405
# 48 vertices

vn -0.0000 1.0000 0.0000
# 1 vertex normals

vt 1.0000 0.0000 0.0000
vt 1.0000 1.0000 0.0000
vt 0.0000 0.0000 0.0000
vt 0.0000 1.0000 0.0000
# 4 texture coords

g Plane007
usemtl Material__3
s off
f 186/86/6 185/85/6 184/84/6 
f 187/87/6 185/85/6 186/86/6 
f 190/86/6 189/85/6 188/84/6 
f 189/85/6 190/86/6 191/87/6 
f 194/85/6 193/84/6 192/87/6 
f 195/86/6 192/87/6 193/84/6 
f 198/86/6 197/87/6 196/84/6 
f 199/85/6 196/84/6 197/87/6 
f 202/85/6 201/84/6 200/87/6 
f 203/86/6 200/87/6 201/84/6 
f 206/84/6 205/86/6 204/85/6 
f 207/87/6 204/85/6 205/86/6 
f 210/86/6 209/87/6 208/85/6 
f 211/84/6 210/86/6 208/85/6 
f 214/85/6 213/86/6 212/87/6 
f 214/85/6 215/84/6 213/86/6 
f 218/85/6 217/84/6 216/87/6 
f 219/86/6 216/87/6 217/84/6 
f 222/84/6 221/86/6 220/85/6 
f 223/87/6 220/85/6 221/86/6 
f 226/86/6 225/87/6 224/84/6 
f 227/85/6 224/84/6 225/87/6 
f 230/85/6 229/84/6 228/87/6 
f 231/86/6 228/87/6 229/84/6 
# 0 polygons - 24 triangles

